<svg width="19" height="19" viewBox="0 0 19 19" fill="none" xmlns="http://www.w3.org/2000/svg">
<path d="M5.54167 7.13292L5.54958 7.12421M8.70833 7.13292L8.71625 7.12421M5.54167 10.2996L5.54958 10.2909M8.70833 10.2996L8.71625 10.2909M5.54167 13.4663L5.54958 13.4575M8.70833 13.4663L8.71625 13.4575M11.875 16.625H2.85C2.72402 16.625 2.6032 16.575 2.51412 16.4859C2.42504 16.3968 2.375 16.276 2.375 16.15V4.43333C2.375 4.30736 2.42504 4.18654 2.51412 4.09746C2.6032 4.00838 2.72402 3.95833 2.85 3.95833H7.125V2.85C7.125 2.72402 7.17504 2.6032 7.26412 2.51412C7.3532 2.42504 7.47402 2.375 7.6 2.375H11.4C11.526 2.375 11.6468 2.42504 11.7359 2.51412C11.825 2.6032 11.875 2.72402 11.875 2.85V7.125M11.875 16.625H16.15C16.276 16.625 16.3968 16.575 16.4859 16.4859C16.575 16.3968 16.625 16.276 16.625 16.15V7.6C16.625 7.47402 16.575 7.3532 16.4859 7.26412C16.3968 7.17504 16.276 7.125 16.15 7.125H11.875M11.875 16.625V13.4583M11.875 7.125V10.2917M11.875 13.4583V10.2917M11.875 13.4583H13.4583M11.875 10.2917H13.4583" stroke="#4BA664" stroke-width="1.5" stroke-linecap="round" stroke-linejoin="round"/>
</svg>
