<svg width="21" height="21" viewBox="0 0 21 21" fill="none" xmlns="http://www.w3.org/2000/svg">
<path d="M14.8775 2.2365L12.6892 1.75C12.2517 2.625 11.3749 3.0625 10.4999 3.0625C9.62492 3.0625 8.74904 2.625 8.31067 1.75L6.12229 2.2365M14.8775 2.2365L15.2547 2.31963C16.1367 2.51563 16.9294 3.03888 17.2497 3.88325C17.828 5.4145 18.304 7.861 18.3714 11.3741C18.3802 11.7827 18.3837 11.9875 18.255 12.1188C18.1264 12.25 17.919 12.25 17.5043 12.25H15.7202M14.8775 2.2365C14.8775 4.25775 15.0665 7.76212 15.7202 12.25M6.12229 2.2365L5.74429 2.31963C4.86317 2.51563 4.07042 3.03888 3.75104 3.88325C3.17179 5.4145 2.69667 7.861 2.62842 11.3741C2.61967 11.7827 2.61617 11.9875 2.74479 12.1188C2.87342 12.25 3.08079 12.25 3.49554 12.25H5.27967M6.12229 2.2365C6.12229 4.25775 5.93329 7.76212 5.27967 12.25M15.7202 12.25C15.8462 13.1145 16.0947 14.5408 16.2994 15.6888C16.4543 16.555 16.5322 16.9881 16.2382 17.5271C15.945 18.067 15.6484 18.1912 15.0552 18.4397C14.0673 18.8545 12.5807 19.25 10.4999 19.25C8.42004 19.25 6.93254 18.8545 5.94467 18.4397C5.35142 18.1912 5.05479 18.067 4.76167 17.5271C4.46767 16.9881 4.54554 16.555 4.70042 15.6888C4.90517 14.5408 5.15367 13.1145 5.27967 12.25" stroke="#4BA664" stroke-width="1.5" stroke-linecap="round" stroke-linejoin="round"/>
<path d="M12.2771 2.625C12.1485 5.66825 12.3541 12.0295 15.75 13.125M8.72375 2.625C8.8515 5.66825 8.645 12.0295 5.25 13.125" stroke="#4BA664" stroke-width="1.5" stroke-linecap="round" stroke-linejoin="round"/>
</svg>
