<svg width="18" height="18" viewBox="0 0 18 18" fill="none" xmlns="http://www.w3.org/2000/svg">
<path fill-rule="evenodd" clip-rule="evenodd" d="M14.1049 7.28551C14.5896 7.07337 14.9573 6.71401 15.3022 6.35337C15.6953 5.94226 15.7005 5.42701 15.7005 5.15733C15.7005 4.72854 15.2977 4.3904 14.643 4.37465C14.2962 4.36629 14.0843 4.45276 13.7954 4.66329C13.5884 4.81372 13.1033 5.30615 13.3197 5.7089C13.3308 5.7299 13.3493 5.75529 13.3753 5.78508C13.4009 5.81487 13.4151 5.85271 13.4156 5.89197C13.4161 5.93123 13.4027 5.9694 13.3778 5.99979C13.3529 6.03017 13.3171 6.04961 13.278 6.05399C13.2389 6.05837 13.1997 6.04735 13.1686 6.02326L13.1345 5.9969C12.707 5.67033 12.4743 5.54883 12.4743 5.06508C12.4743 4.15479 13.6755 3.28019 14.8355 3.30815C15.9943 3.33612 16.8965 4.17279 16.8965 5.14833C16.8965 5.6819 16.5564 6.43887 16.0004 7.02065C15.6449 7.39283 15.2156 7.68667 14.7401 7.88337C14.7703 7.93308 14.8013 7.98697 14.8333 8.04504C15.1483 8.61912 15.1071 8.68887 15.1473 9.40597C15.1872 10.1234 14.975 11.4059 15.0563 12.0378C15.138 12.6694 15.5459 12.7398 15.6356 13.195C15.6923 13.4834 15.8334 14.7348 16.0589 16.9493C16.0636 16.9941 16.0588 17.0394 16.0448 17.0822C16.0309 17.1251 16.008 17.1645 15.9779 17.198C15.9477 17.2315 15.9108 17.2582 15.8696 17.2765C15.8284 17.2948 15.7838 17.3042 15.7387 17.3041H15.0776C14.9925 17.3039 14.911 17.2701 14.8509 17.21C14.7908 17.1499 14.7569 17.0684 14.7568 16.9833V16.8236C14.7568 16.7223 14.8043 16.6269 14.8853 16.5664L14.9876 16.4896C15.0357 16.4536 15.0727 16.4048 15.0944 16.3488C15.1162 16.2927 15.1218 16.2317 15.1107 16.1727C14.935 15.2367 14.7804 14.6732 14.6472 14.4823C14.5488 14.3409 14.1046 14.1104 13.5318 13.6636C13.4292 13.5835 13.2449 13.4129 12.979 13.1519C12.9576 13.1308 12.9307 13.116 12.9013 13.1094C12.872 13.1028 12.8414 13.1045 12.813 13.1144C12.7846 13.1244 12.7595 13.142 12.7407 13.1655C12.7218 13.1889 12.71 13.2172 12.7064 13.247C12.6579 13.6338 12.5978 13.9598 12.5261 14.2248C12.4393 14.5445 12.1726 15.3778 11.726 16.7246C11.7048 16.7888 11.6638 16.8447 11.609 16.8842C11.5542 16.9238 11.4883 16.9451 11.4207 16.9451H10.5792C10.503 16.945 10.4299 16.9147 10.3761 16.8608C10.3222 16.8069 10.2919 16.7339 10.2918 16.6577V16.6384C10.2917 16.5631 10.3181 16.4901 10.3663 16.4323C10.4146 16.3744 10.4816 16.3353 10.5557 16.3218L10.9167 16.2556C11.1757 15.3093 11.2888 14.6162 11.2558 14.1763C11.2326 13.8652 11.0224 13.5032 10.8106 12.8732C10.7664 12.7423 10.7045 12.4744 10.6248 12.0697C10.6206 12.0481 10.612 12.0277 10.5995 12.0097C10.5871 11.9916 10.5711 11.9763 10.5525 11.9646C10.5339 11.9529 10.5132 11.9452 10.4915 11.9419C10.4698 11.9386 10.4477 11.9397 10.4265 11.9453L8.28481 12.5C8.26124 12.5061 8.23936 12.5175 8.22082 12.5332C8.20228 12.549 8.18756 12.5688 8.17778 12.5911C8.168 12.6134 8.16341 12.6376 8.16435 12.6619C8.1653 12.6862 8.17176 12.71 8.18324 12.7315L8.2337 12.8266C8.33013 13.0073 8.38027 13.2091 8.38027 13.4139V16.4224C8.38027 16.5224 8.33366 16.6169 8.25427 16.678L7.80524 17.0219C7.74901 17.0651 7.68007 17.0885 7.60916 17.0884H7.28677C7.24453 17.0884 7.20271 17.0801 7.16369 17.0639C7.12467 17.0478 7.08923 17.0241 7.05937 16.9942C7.02952 16.9643 7.00585 16.9288 6.98972 16.8898C6.97358 16.8508 6.9653 16.8089 6.96534 16.7667V16.6028C6.96534 16.4861 7.02802 16.3784 7.12991 16.3215L7.36134 16.1923C7.41541 16.1622 7.45964 16.1171 7.48871 16.0625C7.51779 16.0079 7.53049 15.946 7.52527 15.8844C7.48884 15.45 7.44363 15.1197 7.38963 14.8934C7.33434 14.6598 7.20009 14.2435 6.98688 13.6443C6.97811 13.6197 6.96346 13.5975 6.94419 13.5798C6.92492 13.5621 6.90161 13.5494 6.8763 13.5427C6.85099 13.5361 6.82444 13.5357 6.79895 13.5416C6.77346 13.5476 6.74981 13.5597 6.73006 13.5768L6.66738 13.6308C6.5102 13.7668 6.31831 13.8558 6.11324 13.8889L4.10366 14.2104C4.07506 14.2149 4.04823 14.2272 4.026 14.2457C4.00378 14.2643 3.98698 14.2886 3.9774 14.3159C3.96782 14.3432 3.9658 14.3726 3.97156 14.401C3.97732 14.4294 3.99065 14.4557 4.01013 14.4772L4.22388 14.7124C4.27788 14.7716 4.30745 14.8487 4.30745 14.9288V15.139C4.30747 15.182 4.29885 15.2246 4.28209 15.2642C4.26534 15.3039 4.2408 15.3398 4.20992 15.3697C4.17905 15.3997 4.14246 15.4232 4.10235 15.4388C4.06223 15.4543 4.01939 15.4617 3.97638 15.4604L3.71281 15.4527C3.66487 15.4513 3.61785 15.4392 3.57519 15.4173C3.53253 15.3954 3.49531 15.3642 3.46627 15.326L3.13391 14.8908C3.09115 14.8348 3.06799 14.7662 3.06802 14.6957V14.0567C3.06802 13.9452 3.12588 13.8414 3.2207 13.7829C4.59363 12.9343 5.33806 12.465 5.45399 12.375C5.5742 12.2818 5.62434 12.126 5.60441 11.9077C5.3807 11.2433 5.02231 11.008 4.86127 10.6145C4.70024 10.2211 4.40163 8.99776 4.25377 8.52783C3.95645 7.58283 3.69545 7.08301 3.62506 6.93354C3.46691 6.59797 3.18791 6.5504 2.89316 6.43469C2.59841 6.31897 2.03816 6.33633 1.67366 6.01651C1.30949 5.69637 1.34291 5.36208 1.25806 4.99822V4.55304C1.25806 4.37529 1.40238 4.23129 1.58013 4.23129H2.45313C2.57109 4.23129 2.67941 4.16701 2.73599 4.06319C2.83563 3.88019 2.99484 3.70544 3.21363 3.53894C3.50485 3.31856 3.83685 3.15808 4.19045 3.06676C4.11009 2.06583 4.11009 1.50044 4.19045 1.37058C4.27081 1.24072 4.49441 1.44387 4.86127 1.98001C4.91356 1.34872 5.01588 1.11729 5.16824 1.28572C5.31031 1.44322 5.55545 2.01537 5.90366 3.00215C5.94931 3.13072 6.0152 3.25222 6.09877 3.36054C6.24491 3.54954 6.37691 3.77562 6.49477 4.03876C6.71881 4.5389 6.98045 5.84519 7.44363 6.48772C7.90649 7.13026 8.17681 7.18297 8.84538 7.3019C9.28959 7.38097 10.8212 7.12833 12.0757 7.07947C13.042 7.04154 13.8192 7.20419 13.9593 7.24019C14.0097 7.25304 14.0582 7.26837 14.1049 7.28551Z" fill="#4BA664"/>
</svg>
