<svg width="24" height="24" viewBox="0 0 24 24" fill="none" xmlns="http://www.w3.org/2000/svg">
<path d="M7 17C6.16667 17 5.45833 16.7083 4.875 16.125C4.29167 15.5417 4 14.8333 4 14H2V11C2 9.9 2.39167 8.95833 3.175 8.175C3.95833 7.39167 4.9 7 6 7H10V12H13.5L17 7.65V5H14V3H17C17.55 3 18.021 3.196 18.413 3.588C18.805 3.98 19.0007 4.45067 19 5V8.35L14.5 14H10C10 14.8333 9.70833 15.5417 9.125 16.125C8.54167 16.7083 7.83333 17 7 17ZM7 15C7.28333 15 7.521 14.904 7.713 14.712C7.905 14.52 8.00067 14.2827 8 14H6C6 14.2833 6.096 14.521 6.288 14.713C6.48 14.905 6.71733 15.0007 7 15ZM5 6V4H10V6H5ZM19 17C18.1667 17 17.4583 16.7083 16.875 16.125C16.2917 15.5417 16 14.8333 16 14C16 13.1667 16.2917 12.4583 16.875 11.875C17.4583 11.2917 18.1667 11 19 11C19.8333 11 20.5417 11.2917 21.125 11.875C21.7083 12.4583 22 13.1667 22 14C22 14.8333 21.7083 15.5417 21.125 16.125C20.5417 16.7083 19.8333 17 19 17ZM19 15C19.2833 15 19.521 14.904 19.713 14.712C19.905 14.52 20.0007 14.2827 20 14C19.9993 13.7173 19.9033 13.48 19.712 13.288C19.5207 13.096 19.2833 13 19 13C18.7167 13 18.4793 13.096 18.288 13.288C18.0967 13.48 18.0007 13.7173 18 14C17.9993 14.2827 18.0953 14.5203 18.288 14.713C18.4807 14.9057 18.718 15.0013 19 15ZM13 23L7 20H11V18L17 21H13V23Z" fill="#4BA664"/>
</svg>
