<svg width="19" height="19" viewBox="0 0 19 19" fill="none" xmlns="http://www.w3.org/2000/svg">
<path d="M5.14575 7.12501H4.35409M8.31242 7.12501H7.52075M5.14575 4.75001H4.35409M8.31242 4.75001H7.52075M14.6458 11.875H13.8541M14.6458 8.70834H13.8541M11.0833 6.33334V17.4167H14.2499C15.743 17.4167 16.4888 17.4167 16.9527 16.9528C17.4166 16.4888 17.4166 15.7431 17.4166 14.25V9.50001C17.4166 8.00693 17.4166 7.26118 16.9527 6.79726C16.4888 6.33334 15.743 6.33334 14.2499 6.33334H11.0833ZM11.0833 6.33334C11.0833 4.09451 11.0833 2.9743 10.3874 2.27922C9.69229 1.58334 8.57208 1.58334 6.33325 1.58334C4.09442 1.58334 2.97421 1.58334 2.27913 2.27922C1.58325 2.9743 1.58325 4.09451 1.58325 6.33334V7.91668M6.35304 11.0477C6.35765 11.2586 6.32009 11.4682 6.24256 11.6644C6.16503 11.8605 6.0491 12.0392 5.90156 12.1899C5.75403 12.3406 5.57788 12.4603 5.38344 12.542C5.189 12.6237 4.9802 12.6658 4.7693 12.6657C4.55839 12.6655 4.34963 12.6233 4.15528 12.5414C3.96092 12.4595 3.78489 12.3396 3.6375 12.1888C3.49012 12.0379 3.37437 11.8591 3.29704 11.6629C3.2197 11.4667 3.18235 11.257 3.18717 11.0461C3.19663 10.6324 3.36766 10.2389 3.66365 9.94974C3.95965 9.66057 4.35708 9.49878 4.77088 9.49899C5.18468 9.49919 5.58195 9.66139 5.87766 9.95084C6.17336 10.2403 6.344 10.634 6.35304 11.0477ZM1.63867 15.9996C2.47625 14.7108 3.80704 14.2278 4.76971 14.2286C5.73238 14.2294 7.02358 14.7108 7.86196 15.9996C7.91579 16.0827 7.93084 16.1856 7.88175 16.2719C7.68621 16.6195 7.07742 17.309 6.63883 17.3549C6.13296 17.4088 4.81246 17.4167 4.7705 17.4167C4.72854 17.4167 3.36688 17.4088 2.86259 17.3549C2.42242 17.3082 1.81442 16.6195 1.61809 16.2719C1.59606 16.2291 1.58632 16.1809 1.58996 16.1329C1.59359 16.0848 1.61045 16.0387 1.63867 15.9996Z" stroke="#4BA664" stroke-linecap="round" stroke-linejoin="round"/>
</svg>
