<svg width="19" height="19" viewBox="0 0 19 19" fill="none" xmlns="http://www.w3.org/2000/svg">
<path d="M16.625 7.12499V5.54166C16.625 4.23541 15.5563 3.16666 14.25 3.16666H11.0833C10.4738 3.16666 9.91958 3.40416 9.5 3.78416C9.08042 3.40416 8.52625 3.16666 7.91667 3.16666H4.75C3.44375 3.16666 2.375 4.23541 2.375 5.54166V7.12499C1.06875 7.12499 0 8.19374 0 9.49999V13.4583C0 14.7646 1.06875 15.8333 2.375 15.8333V17.4167H3.95833V15.8333H15.0417V17.4167H16.625V15.8333C17.9312 15.8333 19 14.7646 19 13.4583V9.49999C19 8.19374 17.9312 7.12499 16.625 7.12499ZM11.0833 4.74999H14.25C14.6854 4.74999 15.0417 5.10624 15.0417 5.54166V7.74249C14.5588 8.17791 14.25 8.80332 14.25 9.49999V11.0833H10.2917V5.54166C10.2917 5.10624 10.6479 4.74999 11.0833 4.74999ZM3.95833 5.54166C3.95833 5.10624 4.31458 4.74999 4.75 4.74999H7.91667C8.35208 4.74999 8.70833 5.10624 8.70833 5.54166V11.0833H4.75V9.49999C4.75 8.80332 4.44125 8.17791 3.95833 7.74249V5.54166ZM17.4167 13.4583C17.4167 13.8937 17.0604 14.25 16.625 14.25H2.375C1.93958 14.25 1.58333 13.8937 1.58333 13.4583V9.49999C1.58333 9.06457 1.93958 8.70832 2.375 8.70832C2.81042 8.70832 3.16667 9.06457 3.16667 9.49999V12.6667H15.8333V9.49999C15.8333 9.06457 16.1896 8.70832 16.625 8.70832C17.0604 8.70832 17.4167 9.06457 17.4167 9.49999V13.4583Z" fill="#4BA664"/>
</svg>
