<svg width="20" height="20" viewBox="0 0 20 20" fill="none" xmlns="http://www.w3.org/2000/svg">
<path d="M6.85 15H5C4.44772 15 4 14.5523 4 14V10C4 9.44772 4.44772 9 5 9H6.85C6.93284 9 7 9.06716 7 9.15V14.85C7 14.9328 6.93284 15 6.85 15Z" stroke="#1C96F5" stroke-width="1.5" stroke-linecap="round"/>
<path d="M7 9L8.18239 7.09973C8.28105 6.94118 8.33333 6.75817 8.33333 6.57143V4.88889C8.33333 4.39797 8.7313 4 9.22222 4V4C10.2041 4 11 4.79594 11 5.77778V9" stroke="#1C96F5" stroke-width="1.5" stroke-linecap="round"/>
<path d="M9.90909 9H12.7814C13.9678 9 14.8933 10.0267 14.7707 11.2067L14.459 14.2067C14.3532 15.2257 13.4943 16 12.4698 16H10.3431C10.0662 16 9.80176 15.8852 9.61267 15.683L9.47824 15.5392C9.28915 15.337 9.02468 15.2222 8.74782 15.2222H7" stroke="#1C96F5" stroke-width="1.5" stroke-linecap="round"/>
</svg>
