<svg width="50" height="50" viewBox="0 0 50 50" fill="none" xmlns="http://www.w3.org/2000/svg">
<path d="M15.8715 23.4315C15.9535 23.7481 16.1014 24.0464 16.3067 24.3091C16.512 24.5719 16.7706 24.7939 17.0677 24.9624C17.3648 25.1309 17.6945 25.2426 18.0378 25.2909C18.3811 25.3393 18.7312 25.3235 19.0679 25.2443C19.4047 25.1651 19.7214 25.0242 19.9998 24.8296C20.2783 24.635 20.5129 24.3906 20.6903 24.1106C20.8677 23.8305 20.9843 23.5202 21.0334 23.1977C21.0825 22.8751 21.0631 22.5466 20.9763 22.2311L16.3531 4.86788C16.0297 3.64822 15.2808 2.56516 14.2258 1.79115C13.1708 1.01714 11.8703 0.596659 10.5312 0.596659C9.1922 0.596659 7.89165 1.01714 6.83664 1.79115C5.78163 2.56516 5.03281 3.64822 4.7094 4.86788L0.0835068 22.2311C-0.00325133 22.5466 -0.0226463 22.8751 0.0264397 23.1977C0.0755256 23.5202 0.192122 23.8305 0.369512 24.1106C0.546902 24.3906 0.78158 24.635 1.06002 24.8296C1.33847 25.0242 1.65518 25.1651 1.99191 25.2443C2.32864 25.3235 2.67873 25.3393 3.02201 25.2909C3.3653 25.2426 3.695 25.1309 3.99211 24.9624C4.28922 24.7939 4.54787 24.5719 4.75317 24.3091C4.95847 24.0464 5.10636 23.7481 5.1883 23.4315L6.66185 17.8916H14.398L15.8715 23.4315ZM7.98015 12.9518L9.8142 6.06824C9.86951 5.93144 9.96785 5.81367 10.0962 5.73056C10.2245 5.64745 10.3767 5.60294 10.5326 5.60294C10.6884 5.60294 10.8406 5.64745 10.9689 5.73056C11.0973 5.81367 11.1956 5.93144 11.2509 6.06824L13.085 12.9518H7.98015ZM28.9519 12.9518H31.5833C32.2811 12.9518 32.9504 13.212 33.4439 13.6752C33.9374 14.1384 34.2146 14.7666 34.2146 15.4217V17.8916C34.2146 18.5466 34.4918 19.1748 34.9853 19.638C35.4788 20.1012 36.1481 20.3614 36.8459 20.3614C37.5438 20.3614 38.2131 20.1012 38.7066 19.638C39.2 19.1748 39.4773 18.5466 39.4773 17.8916V15.4217C39.4752 13.4571 38.6428 11.5736 37.1629 10.1844C35.6829 8.79529 33.6762 8.014 31.5833 8.01204H28.9519C28.254 8.01204 27.5848 8.27226 27.0913 8.73545C26.5978 9.19864 26.3206 9.82687 26.3206 10.4819C26.3206 11.137 26.5978 11.7652 27.0913 12.2284C27.5848 12.6916 28.254 12.9518 28.9519 12.9518ZM18.4266 35.1807H15.7952C15.0974 35.1807 14.4281 34.9205 13.9346 34.4573C13.4411 33.9941 13.1639 33.3659 13.1639 32.7108V30.241C13.1639 29.5859 12.8867 28.9577 12.3932 28.4945C11.8997 28.0313 11.2304 27.7711 10.5326 27.7711C9.83468 27.7711 9.16539 28.0313 8.67191 28.4945C8.17844 28.9577 7.90121 29.5859 7.90121 30.241V32.7108C7.9033 34.6754 8.73566 36.5589 10.2156 37.9481C11.6956 39.3372 13.7022 40.1185 15.7952 40.1205H18.4266C19.1244 40.1205 19.7937 39.8603 20.2872 39.3971C20.7807 38.9339 21.0579 38.3056 21.0579 37.6506C21.0579 36.9955 20.7807 36.3673 20.2872 35.9041C19.7937 35.4409 19.1244 35.1807 18.4266 35.1807Z" fill="#4BA664"/>
<path d="M33.3984 28.668C32.6064 28.668 31.7851 28.5727 30.9344 28.382C30.0837 28.206 29.2917 27.8907 28.5584 27.436C27.8251 26.996 27.2237 26.3947 26.7544 25.632C26.2997 24.884 26.0724 23.938 26.0724 22.794C26.0724 21.738 26.2851 20.748 26.7104 19.824C27.1357 18.9 27.7371 18.064 28.5144 17.316C29.3064 16.568 30.2377 15.9373 31.3084 15.424C32.3791 14.9107 33.5597 14.544 34.8504 14.324L35.3124 16.04C34.2417 16.2307 33.2517 16.5167 32.3424 16.898C31.4331 17.2793 30.6411 17.7487 29.9664 18.306C29.3064 18.8487 28.7931 19.472 28.4264 20.176C28.0597 20.8947 27.8764 21.6793 27.8764 22.53C27.8764 23.2193 27.9937 23.8133 28.2284 24.312C28.4631 24.8107 28.7711 25.2213 29.1524 25.544C29.5484 25.8813 29.9884 26.1453 30.4724 26.336C30.9564 26.5267 31.4477 26.6587 31.9464 26.732C32.4597 26.82 32.9437 26.864 33.3984 26.864C34.1757 26.864 34.9677 26.7907 35.7744 26.644C36.5811 26.512 37.3144 26.3067 37.9744 26.028L38.5464 27.568C38.1944 27.744 37.7251 27.9127 37.1384 28.074C36.5664 28.25 35.9504 28.3893 35.2904 28.492C34.6304 28.6093 33.9997 28.668 33.3984 28.668ZM29.7684 17.008C29.1817 16.8613 28.6537 16.5973 28.1844 16.216C27.7151 15.8347 27.3411 15.38 27.0624 14.852C26.7984 14.324 26.6664 13.7667 26.6664 13.18C26.6664 12.256 26.8791 11.486 27.3044 10.87C27.7444 10.254 28.3017 9.792 28.9764 9.484C29.6657 9.176 30.3917 9.022 31.1544 9.022C31.4917 9.022 31.8511 9.05133 32.2324 9.11C32.6137 9.16867 32.9804 9.25667 33.3324 9.374L32.9584 11.068C32.6651 10.9947 32.3571 10.936 32.0344 10.892C31.7117 10.848 31.4184 10.826 31.1544 10.826C30.6264 10.826 30.1571 10.9213 29.7464 11.112C29.3357 11.3027 29.0131 11.5667 28.7784 11.904C28.5437 12.2267 28.4264 12.608 28.4264 13.048C28.4264 13.444 28.5364 13.8033 28.7564 14.126C28.9911 14.434 29.2844 14.7053 29.6364 14.94C29.9884 15.16 30.3477 15.3287 30.7144 15.446C31.0811 15.5487 31.4037 15.5927 31.6824 15.578L29.7684 17.008Z" fill="#4BA664"/>
</svg>
