<svg width="41" height="41" viewBox="0 0 41 41" fill="none" xmlns="http://www.w3.org/2000/svg">
<path d="M15.52 19.2068C15.5732 19.4258 15.6692 19.6321 15.8025 19.8139C15.9358 19.9956 16.1037 20.1491 16.2966 20.2657C16.4895 20.3822 16.7036 20.4595 16.9264 20.4929C17.1493 20.5264 17.3766 20.5154 17.5952 20.4607C17.8138 20.4059 18.0194 20.3084 18.2002 20.1738C18.381 20.0392 18.5334 19.8702 18.6485 19.6765C18.7637 19.4828 18.8394 19.2682 18.8713 19.0451C18.9031 18.822 18.8905 18.5948 18.8342 18.3766L15.8327 6.36698C15.6227 5.52338 15.1365 4.77427 14.4516 4.23891C13.7667 3.70355 12.9223 3.41272 12.053 3.41272C11.1836 3.41272 10.3393 3.70355 9.65434 4.23891C8.9694 4.77427 8.48325 5.52338 8.27329 6.36698L5.27004 18.3766C5.21371 18.5948 5.20112 18.822 5.23299 19.0451C5.26485 19.2682 5.34055 19.4828 5.45572 19.6765C5.57088 19.8702 5.72324 20.0392 5.90402 20.1738C6.08479 20.3084 6.29041 20.4059 6.50902 20.4607C6.72763 20.5154 6.95492 20.5264 7.17779 20.4929C7.40066 20.4595 7.61471 20.3822 7.8076 20.2657C8.00049 20.1491 8.16842 19.9956 8.3017 19.8139C8.43499 19.6321 8.531 19.4258 8.5842 19.2068L9.54087 15.375H14.5634L15.52 19.2068ZM10.3967 11.9584L11.5875 7.19723C11.6234 7.10261 11.6872 7.02115 11.7705 6.96367C11.8538 6.90618 11.9526 6.8754 12.0538 6.8754C12.155 6.8754 12.2538 6.90618 12.3371 6.96367C12.4204 7.02115 12.4843 7.10261 12.5202 7.19723L13.7109 11.9584H10.3967ZM24.0122 11.9584H25.7205C26.1736 11.9584 26.6081 12.1383 26.9285 12.4587C27.2488 12.7791 27.4288 13.2136 27.4288 13.6667V15.375C27.4288 15.8281 27.6088 16.2626 27.9292 16.583C28.2496 16.9034 28.6841 17.0834 29.1372 17.0834C29.5902 17.0834 30.0248 16.9034 30.3451 16.583C30.6655 16.2626 30.8455 15.8281 30.8455 15.375V13.6667C30.8441 12.3079 30.3037 11.0051 29.3429 10.0443C28.3821 9.08344 27.0793 8.54305 25.7205 8.54169H24.0122C23.5591 8.54169 23.1246 8.72168 22.8042 9.04205C22.4838 9.36242 22.3038 9.79695 22.3038 10.25C22.3038 10.7031 22.4838 11.1376 22.8042 11.458C23.1246 11.7784 23.5591 11.9584 24.0122 11.9584ZM17.1788 27.3334H15.4705C15.0174 27.3334 14.5829 27.1534 14.2625 26.833C13.9421 26.5126 13.7622 26.0781 13.7622 25.625V23.9167C13.7622 23.4636 13.5822 23.0291 13.2618 22.7087C12.9414 22.3883 12.5069 22.2084 12.0538 22.2084C11.6007 22.2084 11.1662 22.3883 10.8459 22.7087C10.5255 23.0291 10.3455 23.4636 10.3455 23.9167V25.625C10.3469 26.9838 10.8872 28.2866 11.8481 29.2474C12.8089 30.2083 14.1117 30.7487 15.4705 30.75H17.1788C17.6319 30.75 18.0664 30.57 18.3868 30.2497C18.7072 29.9293 18.8872 29.4948 18.8872 29.0417C18.8872 28.5886 18.7072 28.1541 18.3868 27.8337C18.0664 27.5133 17.6319 27.3334 17.1788 27.3334Z" fill="#4BA664"/>
<path d="M29.546 31.668C28.754 31.668 27.9327 31.5727 27.082 31.382C26.2313 31.206 25.4393 30.8907 24.706 30.436C23.9727 29.996 23.3713 29.3947 22.902 28.632C22.4473 27.884 22.22 26.938 22.22 25.794C22.22 24.738 22.4327 23.748 22.858 22.824C23.2833 21.9 23.8847 21.064 24.662 20.316C25.454 19.568 26.3853 18.9373 27.456 18.424C28.5267 17.9107 29.7073 17.544 30.998 17.324L31.46 19.04C30.3893 19.2307 29.3993 19.5167 28.49 19.898C27.5807 20.2793 26.7887 20.7487 26.114 21.306C25.454 21.8487 24.9407 22.472 24.574 23.176C24.2073 23.8947 24.024 24.6793 24.024 25.53C24.024 26.2193 24.1413 26.8133 24.376 27.312C24.6107 27.8107 24.9187 28.2213 25.3 28.544C25.696 28.8813 26.136 29.1453 26.62 29.336C27.104 29.5267 27.5953 29.6587 28.094 29.732C28.6073 29.82 29.0913 29.864 29.546 29.864C30.3233 29.864 31.1153 29.7907 31.922 29.644C32.7287 29.512 33.462 29.3067 34.122 29.028L34.694 30.568C34.342 30.744 33.8727 30.9127 33.286 31.074C32.714 31.25 32.098 31.3893 31.438 31.492C30.778 31.6093 30.1473 31.668 29.546 31.668ZM25.916 20.008C25.3293 19.8613 24.8013 19.5973 24.332 19.216C23.8627 18.8347 23.4887 18.38 23.21 17.852C22.946 17.324 22.814 16.7667 22.814 16.18C22.814 15.256 23.0267 14.486 23.452 13.87C23.892 13.254 24.4493 12.792 25.124 12.484C25.8133 12.176 26.5393 12.022 27.302 12.022C27.6393 12.022 27.9987 12.0513 28.38 12.11C28.7613 12.1687 29.128 12.2567 29.48 12.374L29.106 14.068C28.8127 13.9947 28.5047 13.936 28.182 13.892C27.8593 13.848 27.566 13.826 27.302 13.826C26.774 13.826 26.3047 13.9213 25.894 14.112C25.4833 14.3027 25.1607 14.5667 24.926 14.904C24.6913 15.2267 24.574 15.608 24.574 16.048C24.574 16.444 24.684 16.8033 24.904 17.126C25.1387 17.434 25.432 17.7053 25.784 17.94C26.136 18.16 26.4953 18.3287 26.862 18.446C27.2287 18.5487 27.5513 18.5927 27.83 18.578L25.916 20.008Z" fill="#4BA664"/>
</svg>
