<svg width="20" height="16" viewBox="0 0 20 16" fill="none" xmlns="http://www.w3.org/2000/svg">
<path d="M0 0V16H20V0H0ZM1.53846 1.6H18.4615V14.4H15.8415C15.7815 14.2904 15.8085 14.1408 15.7208 14.0496C15.4308 13.7472 15.0177 13.6 14.6154 13.6C14.2131 13.6 13.8008 13.7472 13.5092 14.0504C13.4223 14.1408 13.4492 14.2904 13.3892 14.4H6.61077C6.55077 14.2904 6.57769 14.1408 6.49077 14.0496C6.19846 13.7472 5.78692 13.6 5.38462 13.6C4.98231 13.6 4.57 13.7472 4.27846 14.0504C4.19154 14.1408 4.21846 14.2904 4.15846 14.4H1.53846V1.6ZM6.92308 3.2C5.23077 3.2 3.84615 4.64 3.84615 6.4C3.84615 7.2904 4.21308 8.0936 4.78385 8.6752C4.26049 9.04291 3.83141 9.53801 3.53393 10.1175C3.23645 10.6969 3.07957 11.3431 3.07692 12H4.61538C4.61538 11.3635 4.85852 10.753 5.29129 10.3029C5.72407 9.85286 6.31104 9.6 6.92308 9.6C7.53512 9.6 8.12209 9.85286 8.55486 10.3029C8.98764 10.753 9.23077 11.3635 9.23077 12H10.7692C10.7666 11.3431 10.6097 10.6969 10.3122 10.1175C10.0147 9.53801 9.58567 9.04291 9.06231 8.6752C9.63308 8.0936 10 7.2912 10 6.4C10 4.64 8.61539 3.2 6.92308 3.2ZM6.92308 4.8C7.78231 4.8 8.46154 5.5064 8.46154 6.4C8.46154 7.2936 7.78231 8 6.92308 8C6.06385 8 5.38462 7.2936 5.38462 6.4C5.38462 5.5064 6.06385 4.8 6.92308 4.8ZM12.3077 5.6V7.2H16.9231V5.6H12.3077ZM12.3077 8.8V10.4H16.9231V8.8H12.3077Z" fill="#4BA664"/>
</svg>
