<svg width="20" height="24" viewBox="0 0 20 24" fill="none" xmlns="http://www.w3.org/2000/svg">
<path fill-rule="evenodd" clip-rule="evenodd" d="M19.1342 3.53764L11.6882 0.346522C10.6102 -0.115507 9.38984 -0.115507 8.31177 0.346521L0.86583 3.53764C0.340568 3.76275 0 4.27924 0 4.8507V12.3548C0 15.123 1.33685 17.7207 3.58939 19.3297L8.33932 22.7225C9.33274 23.4321 10.6673 23.4321 11.6607 22.7225L16.4106 19.3297C18.6632 17.7207 20 15.123 20 12.3548V4.85071C20 4.27924 19.6594 3.76275 19.1342 3.53764ZM15.0667 8.81945C15.4117 8.38819 15.3417 7.75889 14.9105 7.41389C14.4792 7.06888 13.8499 7.1388 13.5049 7.57006L8.48858 13.8405L6.42146 11.7734C6.03094 11.3828 5.39777 11.3828 5.00725 11.7734C4.61673 12.1639 4.61673 12.7971 5.00725 13.1876L7.46938 15.6497C8.10155 16.2819 9.14286 16.2242 9.70134 15.5261L15.0667 8.81945Z" fill="#4BA664"/>
</svg>
