<svg width="16" height="17" viewBox="0 0 16 17" fill="none" xmlns="http://www.w3.org/2000/svg">
<path d="M8.56678 0C9.55249 0 10.4978 0.377066 11.1948 1.04825C11.8918 1.71943 12.2834 2.62975 12.2834 3.57895C12.2834 5.32368 10.9826 6.78211 9.26365 7.09526L4.91522 2.90789C5.07806 2.09007 5.53167 1.35242 6.19807 0.821735C6.86447 0.291053 7.70203 0.000492028 8.56678 0ZM8.82695 8.94737L14.4019 14.3158L16 15.8547L14.82 17L12.0325 14.3158H1.13357V12.5263C1.13357 10.88 3.45645 9.49316 6.58769 9.07263L0 2.72895L1.18002 1.59263L8.82695 8.94737ZM16 12.5263V13.5821L11.4843 9.23368C14.1417 9.77947 16 11.05 16 12.5263Z" fill="#4BA664"/>
</svg>
