<svg width="35" height="35" viewBox="0 0 35 35" fill="none" xmlns="http://www.w3.org/2000/svg">
<path fill-rule="evenodd" clip-rule="evenodd" d="M13.0191 4.375H10.309C8.85674 4.375 8.13063 4.375 7.59596 4.7783C7.06129 5.18161 6.86182 5.87978 6.46286 7.27612L5.07736 12.1254C5.0863 12.1251 5.09526 12.125 5.10425 12.125H11.566L13.0191 4.375ZM4.55599 13.9614C4.49023 14.2178 4.46623 14.389 4.50101 14.5573C4.55074 14.798 4.71305 14.9964 5.03767 15.3932L14.3612 26.7886L11.591 14.125H5.10425C4.90181 14.125 4.71343 14.0648 4.55599 13.9614ZM17.9046 29.9297C17.7717 30.0071 17.641 30.0458 17.5001 30.0458C17.3592 30.0458 17.2285 30.0071 17.0956 29.9297L13.6383 14.125H21.3619L17.9046 29.9297ZM20.639 26.7886L29.9625 15.3932C30.2871 14.9964 30.4494 14.798 30.4992 14.5573C30.5339 14.389 30.5099 14.2178 30.4442 13.9614C30.2867 14.0648 30.0984 14.125 29.8959 14.125H23.4091L20.639 26.7886ZM29.9228 12.1254L28.5373 7.27612C28.1384 5.87978 27.9389 5.18161 27.4042 4.7783C26.8695 4.375 26.1434 4.375 24.6912 4.375H21.9811L23.4342 12.125H29.8959C29.9049 12.125 29.9139 12.1251 29.9228 12.1254ZM19.9462 4.375H15.054L13.6008 12.125H21.3993L19.9462 4.375Z" fill="#4BA664"/>
</svg>
