<svg width="17" height="18" viewBox="0 0 17 18" fill="none" xmlns="http://www.w3.org/2000/svg">
<path fill-rule="evenodd" clip-rule="evenodd" d="M3.22222 12.5556H11.6667C13.3428 12.5556 14.1808 12.5556 14.7015 12.0349C15.2222 11.5142 15.2222 10.6761 15.2222 9V4.55556C15.2222 2.87945 15.2222 2.0414 14.7015 1.5207C14.1808 1 13.3428 1 11.6667 1H4.55556C2.87945 1 2.0414 1 1.5207 1.5207C1 2.0414 1 2.87945 1 4.55556V14.7778C1 13.5505 1.99492 12.5556 3.22222 12.5556ZM12.1919 6.85865C12.973 6.0776 12.973 4.81127 12.1919 4.03022C11.4109 3.24917 10.1446 3.24917 9.36352 4.03022L7.22218 6.17156L6.85861 5.808C6.07757 5.02695 4.81124 5.02695 4.03019 5.808C3.24914 6.58905 3.24914 7.85538 4.03019 8.63643L5.10086 9.7071C6.27243 10.8787 8.17193 10.8787 9.3435 9.7071L12.1919 6.85865Z" fill="#4BA664"/>
<path d="M14.7015 12.0349L13.9944 11.3277L13.9944 11.3277L14.7015 12.0349ZM14.7015 1.5207L13.9944 2.22781L13.9944 2.22781L14.7015 1.5207ZM12.1919 4.03022L12.8991 3.32311L12.8991 3.32311L12.1919 4.03022ZM12.1919 6.85865L11.4848 6.15154L12.1919 6.85865ZM9.36352 4.03022L8.65641 3.32311V3.32311L9.36352 4.03022ZM7.22218 6.17156L6.51507 6.87867L7.22218 7.58578L7.92929 6.87867L7.22218 6.17156ZM4.03019 5.808L3.32308 5.10089L3.32308 5.10089L4.03019 5.808ZM4.03019 8.63643L3.32308 9.34353H3.32308L4.03019 8.63643ZM5.10086 9.7071L5.80797 8.99999L5.80797 8.99999L5.10086 9.7071ZM9.3435 9.7071L8.63639 8.99999L8.63639 8.99999L9.3435 9.7071ZM11.6667 11.5556H3.22222V13.5556H11.6667V11.5556ZM13.9944 11.3277C13.9508 11.3713 13.8573 11.4492 13.4841 11.4994C13.0821 11.5534 12.533 11.5556 11.6667 11.5556V13.5556C12.4764 13.5556 13.1844 13.5577 13.7506 13.4816C14.3456 13.4016 14.9315 13.2191 15.4086 12.742L13.9944 11.3277ZM14.2222 9C14.2222 9.86632 14.2201 10.4155 14.1661 10.8175C14.1159 11.1907 14.038 11.2842 13.9944 11.3277L15.4086 12.742C15.8857 12.2648 16.0682 11.679 16.1482 11.084C16.2243 10.5177 16.2222 9.80978 16.2222 9H14.2222ZM14.2222 4.55556V9H16.2222V4.55556H14.2222ZM13.9944 2.22781C14.038 2.27139 14.1159 2.36487 14.1661 2.7381C14.2201 3.14009 14.2222 3.68923 14.2222 4.55556H16.2222C16.2222 3.74577 16.2243 3.03784 16.1482 2.4716C16.0682 1.8766 15.8857 1.29071 15.4086 0.813592L13.9944 2.22781ZM11.6667 2C12.533 2 13.0821 2.00212 13.4841 2.05617C13.8573 2.10635 13.9508 2.18423 13.9944 2.22781L15.4086 0.813593C14.9315 0.336474 14.3456 0.154001 13.7506 0.0740046C13.1844 -0.00212371 12.4764 0 11.6667 0V2ZM4.55556 2H11.6667V0H4.55556V2ZM2.22781 2.22781C2.27139 2.18423 2.36487 2.10635 2.7381 2.05617C3.14009 2.00212 3.68923 2 4.55556 2V0C3.74577 0 3.03784 -0.00212371 2.4716 0.0740046C1.8766 0.154001 1.29071 0.336474 0.813592 0.813592L2.22781 2.22781ZM2 4.55556C2 3.68923 2.00212 3.14009 2.05617 2.7381C2.10635 2.36487 2.18423 2.27139 2.22781 2.22781L0.813592 0.813592C0.336474 1.29071 0.154001 1.8766 0.0740046 2.4716C-0.00212371 3.03784 0 3.74577 0 4.55556H2ZM2 14.7778V4.55556H0V14.7778H2ZM3.22222 11.5556C1.44264 11.5556 0 12.9982 0 14.7778H2C2 14.1028 2.54721 13.5556 3.22222 13.5556V11.5556ZM11.4848 4.73733C11.8754 5.12785 11.8754 5.76102 11.4848 6.15154L12.8991 7.56575C14.0706 6.39418 14.0706 4.49469 12.8991 3.32311L11.4848 4.73733ZM10.0706 4.73733C10.4612 4.3468 11.0943 4.3468 11.4848 4.73733L12.8991 3.32311C11.7275 2.15154 9.82799 2.15154 8.65641 3.32311L10.0706 4.73733ZM7.92929 6.87867L10.0706 4.73733L8.65641 3.32311L6.51507 5.46446L7.92929 6.87867ZM6.15151 6.5151L6.51507 6.87867L7.92929 5.46446L7.56572 5.10089L6.15151 6.5151ZM4.73729 6.5151C5.12782 6.12458 5.76098 6.12458 6.15151 6.5151L7.56572 5.10089C6.39415 3.92932 4.49465 3.92932 3.32308 5.10089L4.73729 6.5151ZM4.73729 7.92932C4.34677 7.53879 4.34677 6.90563 4.73729 6.5151L3.32308 5.10089C2.15151 6.27246 2.15151 8.17196 3.32308 9.34353L4.73729 7.92932ZM5.80797 8.99999L4.73729 7.92932L3.32308 9.34353L4.39375 10.4142L5.80797 8.99999ZM8.63639 8.99999C7.85534 9.78104 6.58901 9.78104 5.80797 8.99999L4.39375 10.4142C5.95585 11.9763 8.48851 11.9763 10.0506 10.4142L8.63639 8.99999ZM11.4848 6.15154L8.63639 8.99999L10.0506 10.4142L12.8991 7.56575L11.4848 6.15154ZM7.22222 16H3.22222V18H7.22222V16ZM0 14.7778C0 16.5574 1.44264 18 3.22222 18V16C2.54721 16 2 15.4528 2 14.7778H0Z" fill="#4BA664"/>
</svg>
