<svg width="16" height="21" viewBox="0 0 16 21" fill="none" xmlns="http://www.w3.org/2000/svg">
<path d="M8.00008 15.5833C7.51385 15.5833 7.04754 15.3902 6.70372 15.0464C6.3599 14.7025 6.16675 14.2362 6.16675 13.75C6.16675 12.7325 6.98258 11.9167 8.00008 11.9167C8.48631 11.9167 8.95263 12.1098 9.29644 12.4536C9.64026 12.7974 9.83341 13.2638 9.83341 13.75C9.83341 14.2362 9.64026 14.7025 9.29644 15.0464C8.95263 15.3902 8.48631 15.5833 8.00008 15.5833ZM13.5001 18.3333V9.16666H2.50008V18.3333H13.5001ZM13.5001 7.33332C13.9863 7.33332 14.4526 7.52648 14.7964 7.87029C15.1403 8.21411 15.3334 8.68043 15.3334 9.16666V18.3333C15.3334 18.8196 15.1403 19.2859 14.7964 19.6297C14.4526 19.9735 13.9863 20.1667 13.5001 20.1667H2.50008C2.01385 20.1667 1.54754 19.9735 1.20372 19.6297C0.859902 19.2859 0.666748 18.8196 0.666748 18.3333V9.16666C0.666748 8.14916 1.48258 7.33332 2.50008 7.33332H3.41675V5.49999C3.41675 4.28441 3.89963 3.11863 4.75918 2.25908C5.61872 1.39954 6.78451 0.916656 8.00008 0.916656C8.60197 0.916656 9.19797 1.03521 9.75405 1.26554C10.3101 1.49588 10.8154 1.83348 11.241 2.25908C11.6666 2.68469 12.0042 3.18995 12.2345 3.74602C12.4649 4.3021 12.5834 4.8981 12.5834 5.49999V7.33332H13.5001ZM8.00008 2.74999C7.27074 2.74999 6.57126 3.03972 6.05554 3.55545C5.53981 4.07117 5.25008 4.77064 5.25008 5.49999V7.33332H10.7501V5.49999C10.7501 4.77064 10.4604 4.07117 9.94462 3.55545C9.4289 3.03972 8.72943 2.74999 8.00008 2.74999Z" fill="#4BA664"/>
</svg>
