<svg width="32" height="32" viewBox="0 0 32 32" fill="none" xmlns="http://www.w3.org/2000/svg">
<g filter="url(#filter0_i_15_14)">
<rect width="32" height="32" rx="4" fill="white"/>
</g>
<path d="M20.4161 23.0296L10.3689 16.0979L20.4161 9.16632L21.3217 10.899L13.7854 16.0979L21.3217 21.2969L20.4161 23.0296Z" fill="#4BA664"/>
<path d="M20.8689 14.0762C22.5683 14.0762 23.946 12.4921 23.946 10.5381C23.946 8.58406 22.5683 7 20.8689 7C19.1694 7 17.7918 8.58406 17.7918 10.5381C17.7918 12.4921 19.1694 14.0762 20.8689 14.0762Z" fill="#4BA664"/>
<path d="M12.0771 19.636C13.7766 19.636 15.1542 18.052 15.1542 16.0979C15.1542 14.1439 13.7766 12.5599 12.0771 12.5599C10.3777 12.5599 9 14.1439 9 16.0979C9 18.052 10.3777 19.636 12.0771 19.636Z" fill="#4BA664"/>
<path d="M20.8689 25.1959C22.5683 25.1959 23.946 23.6118 23.946 21.6578C23.946 19.7038 22.5683 18.1197 20.8689 18.1197C19.1694 18.1197 17.7918 19.7038 17.7918 21.6578C17.7918 23.6118 19.1694 25.1959 20.8689 25.1959Z" fill="#4BA664"/>
<defs>
<filter id="filter0_i_15_14" x="0" y="0" width="32" height="36" filterUnits="userSpaceOnUse" color-interpolation-filters="sRGB">
<feFlood flood-opacity="0" result="BackgroundImageFix"/>
<feBlend mode="normal" in="SourceGraphic" in2="BackgroundImageFix" result="shape"/>
<feColorMatrix in="SourceAlpha" type="matrix" values="0 0 0 0 0 0 0 0 0 0 0 0 0 0 0 0 0 0 127 0" result="hardAlpha"/>
<feOffset dy="4"/>
<feGaussianBlur stdDeviation="2"/>
<feComposite in2="hardAlpha" operator="arithmetic" k2="-1" k3="1"/>
<feColorMatrix type="matrix" values="0 0 0 0 1 0 0 0 0 0.945567 0 0 0 0 0.945567 0 0 0 1 0"/>
<feBlend mode="normal" in2="shape" result="effect1_innerShadow_15_14"/>
</filter>
</defs>
</svg>
