<svg width="24" height="22" viewBox="0 0 24 22" fill="none" xmlns="http://www.w3.org/2000/svg">
<path d="M23.5111 1.96665L21.6483 0.199984L11.5022 9.82832C11.3386 9.9826 11.2088 10.1661 11.1203 10.3681C11.0317 10.5702 10.9861 10.7869 10.9861 11.0058C10.9861 11.2247 11.0317 11.4414 11.1203 11.6435C11.2088 11.8456 11.3386 12.029 11.5022 12.1833L21.6483 21.8167L23.5093 20.05L13.9865 11.0083L23.5111 1.96665Z" fill="white"/>
<path d="M12.525 1.76667L10.6622 2.40803e-07L0.516085 9.62833C0.352535 9.78261 0.222739 9.96607 0.134168 10.1682C0.0455975 10.3702 0 10.587 0 10.8058C0 11.0247 0.0455975 11.2414 0.134168 11.4435C0.222739 11.6456 0.352535 11.8291 0.516085 11.9833L10.6622 21.6167L12.5232 19.85L3.00038 10.8083L12.525 1.76667Z" fill="white"/>
</svg>
