<svg width="17" height="21" viewBox="0 0 17 21" fill="none" xmlns="http://www.w3.org/2000/svg">
<path d="M7.54159 15.2917H9.45825V9.54169H7.54159V15.2917ZM8.49992 7.62502C8.77145 7.62502 8.99921 7.53302 9.18321 7.34902C9.36721 7.16502 9.45889 6.93758 9.45825 6.66669C9.45825 6.39516 9.36625 6.16771 9.18225 5.98435C8.99825 5.80099 8.77081 5.70899 8.49992 5.70835C8.22839 5.70835 8.00095 5.80035 7.81759 5.98435C7.63422 6.16835 7.54222 6.3958 7.54159 6.66669C7.54159 6.93821 7.63359 7.16598 7.81759 7.34998C8.00159 7.53398 8.22903 7.62566 8.49992 7.62502ZM8.49992 20.0834C6.27978 19.5243 4.44681 18.2504 3.001 16.2615C1.5552 14.2727 0.832613 12.0647 0.833252 9.63752V3.79169L8.49992 0.916687L16.1666 3.79169V9.63752C16.1666 12.0653 15.444 14.2736 13.9988 16.2625C12.5537 18.2513 10.7207 19.525 8.49992 20.0834ZM8.49992 18.0709C10.161 17.5438 11.5346 16.4896 12.6208 14.9084C13.7069 13.3271 14.2499 11.5702 14.2499 9.63752V5.1094L8.49992 2.95315L2.74992 5.1094V9.63752C2.74992 11.5702 3.29297 13.3271 4.37909 14.9084C5.4652 16.4896 6.83881 17.5438 8.49992 18.0709Z" fill="#4BA664"/>
</svg>
