<svg width="19" height="19" viewBox="0 0 19 19" fill="none" xmlns="http://www.w3.org/2000/svg">
<path fill-rule="evenodd" clip-rule="evenodd" d="M7.875 1.37498C8.08212 1.37498 8.25 1.54286 8.25 1.74998V8.87498C8.25 9.08207 8.08212 9.24998 7.875 9.24998H0.75C0.542883 9.24998 0.375 9.08207 0.375 8.87498V1.74998C0.375 1.54286 0.542883 1.37498 0.75 1.37498H7.875ZM6.65625 2.96873H1.96875V7.65623H6.65625V2.96873ZM18.2187 5.02387C18.3652 5.17031 18.3652 5.40775 18.2187 5.55419L13.9761 9.79685C13.8296 9.94328 13.5922 9.94328 13.4458 9.79685L9.20313 5.55419C9.05669 5.40775 9.05669 5.17031 9.20313 5.02387L13.4458 0.781215C13.5922 0.634777 13.8296 0.634777 13.9761 0.781215L18.2187 5.02387ZM16.23 5.28902L13.7109 2.76998L11.1919 5.28904L13.7109 7.80811L16.23 5.28902ZM7.875 10.75C8.08212 10.75 8.25 10.9179 8.25 11.125V18.25C8.25 18.4571 8.08212 18.625 7.875 18.625H0.75C0.542883 18.625 0.375 18.4571 0.375 18.25V11.125C0.375 10.9179 0.542883 10.75 0.75 10.75H7.875ZM6.65625 12.3437H1.96875V17.0312H6.65625V12.3437ZM17.25 10.75C17.4571 10.75 17.625 10.9179 17.625 11.125V18.25C17.625 18.4571 17.4571 18.625 17.25 18.625H10.125C9.91788 18.625 9.75 18.4571 9.75 18.25V11.125C9.75 10.9179 9.91788 10.75 10.125 10.75H17.25ZM16.0312 12.3437H11.3438V17.0312H16.0312V12.3437Z" fill="#4BA664"/>
</svg>
