<svg width="15" height="17" viewBox="0 0 15 17" fill="none" xmlns="http://www.w3.org/2000/svg">
<path fill-rule="evenodd" clip-rule="evenodd" d="M13.6791 2.95195L8.64209 0.793249C7.91281 0.480701 7.0873 0.480701 6.35802 0.793249L1.32106 2.95195C0.965735 3.10423 0.735352 3.45361 0.735352 3.8402V8.91653C0.735352 10.7891 1.63969 12.5464 3.16347 13.6348L6.37666 15.9299C7.04868 16.41 7.95144 16.41 8.62346 15.9299L11.8366 13.6348C13.3604 12.5464 14.2648 10.7891 14.2648 8.91653V3.8402C14.2648 3.45362 14.0344 3.10423 13.6791 2.95195ZM11.1802 6.72701C11.5252 6.29575 11.4553 5.66645 11.024 5.32144C10.5928 4.97643 9.96348 5.04636 9.61847 5.47762L6.45087 9.43711L5.30812 8.29437C4.9176 7.90384 4.28443 7.90384 3.89391 8.29437C3.50339 8.68489 3.50339 9.31806 3.89391 9.70858L5.43167 11.2463C6.06384 11.8785 7.10515 11.8208 7.66363 11.1227L11.1802 6.72701Z" fill="#437EF0"/>
</svg>
