<svg width="13" height="14" viewBox="0 0 13 14" fill="none" xmlns="http://www.w3.org/2000/svg">
<path d="M11.2667 6.78809C11.5375 6.97494 11.779 7.18685 11.9911 7.42383C12.2033 7.66081 12.3861 7.92057 12.5396 8.20312C12.6931 8.48568 12.8059 8.78418 12.8781 9.09863C12.9503 9.41309 12.991 9.73438 13 10.0625C13 10.6048 12.8984 11.1152 12.6953 11.5938C12.4922 12.0723 12.2123 12.4893 11.8557 12.8447C11.4991 13.2002 11.0861 13.4805 10.6167 13.6855C10.1472 13.8906 9.64167 13.9954 9.1 14C8.68924 14 8.29201 13.9385 7.90833 13.8154C7.52465 13.6924 7.17257 13.5146 6.85208 13.2822C6.5316 13.0498 6.24722 12.7718 5.99896 12.4482C5.75069 12.1247 5.55885 11.7669 5.42344 11.375H0V0.875H1.73333V0H2.6V0.875H8.66667V0H9.53333V0.875H11.2667V6.78809ZM0.866667 1.75V3.5H10.4V1.75H9.53333V2.625H8.66667V1.75H2.6V2.625H1.73333V1.75H0.866667ZM5.22031 10.5C5.20677 10.3587 5.2 10.2129 5.2 10.0625C5.2 9.67057 5.25417 9.29004 5.3625 8.9209C5.47083 8.55176 5.63559 8.20312 5.85677 7.875H5.2V7H6.06667V7.58789C6.25174 7.35547 6.45712 7.15039 6.68281 6.97266C6.90851 6.79492 7.15226 6.64225 7.41406 6.51465C7.67587 6.38704 7.94896 6.29134 8.23333 6.22754C8.51771 6.16374 8.8066 6.12956 9.1 6.125C9.55139 6.125 9.98472 6.2002 10.4 6.35059V4.375H0.866667V10.5H5.22031ZM9.1 13.125C9.51979 13.125 9.9125 13.0452 10.2781 12.8857C10.6438 12.7262 10.9642 12.5075 11.2396 12.2295C11.5149 11.9515 11.7316 11.6279 11.8896 11.2588C12.0476 10.8896 12.1288 10.4909 12.1333 10.0625C12.1333 9.63867 12.0543 9.24219 11.8964 8.87305C11.7384 8.50391 11.5217 8.18034 11.2464 7.90234C10.971 7.62435 10.6505 7.4056 10.2849 7.24609C9.91927 7.08659 9.52431 7.00456 9.1 7C8.68021 7 8.2875 7.07975 7.92188 7.23926C7.55625 7.39876 7.23576 7.61751 6.96042 7.89551C6.68507 8.1735 6.4684 8.49707 6.31042 8.86621C6.15243 9.23535 6.07118 9.63411 6.06667 10.0625C6.06667 10.4863 6.14566 10.8828 6.30365 11.252C6.46163 11.6211 6.6783 11.9447 6.95365 12.2227C7.22899 12.5007 7.54948 12.7194 7.9151 12.8789C8.28073 13.0384 8.67569 13.1204 9.1 13.125ZM9.53333 9.625H10.8333V10.5H8.66667V7.875H9.53333V9.625ZM1.73333 7H2.6V7.875H1.73333V7ZM3.46667 7H4.33333V7.875H3.46667V7ZM3.46667 5.25H4.33333V6.125H3.46667V5.25ZM1.73333 8.75H2.6V9.625H1.73333V8.75ZM3.46667 8.75H4.33333V9.625H3.46667V8.75ZM6.06667 6.125H5.2V5.25H6.06667V6.125ZM7.8 6.125H6.93333V5.25H7.8V6.125ZM9.53333 6.125H8.66667V5.25H9.53333V6.125Z" fill="#4BA664"/>
</svg>
