<svg width="24" height="24" viewBox="0 0 24 24" fill="none" xmlns="http://www.w3.org/2000/svg">
<g clip-path="url(#clip0_1_5483)">
<path d="M23.3281 8.70443L15.9868 7.63769L12.7035 0.985241C12.4164 0.403335 11.5838 0.403054 11.2965 0.985241L8.01333 7.63769L0.672001 8.70443C0.0299537 8.79776 -0.227906 9.58938 0.237188 10.0427L5.54939 15.2209L4.2953 22.5325C4.27055 22.6768 4.28666 22.8251 4.34181 22.9607C4.39697 23.0963 4.48897 23.2138 4.60741 23.2999C4.72584 23.3859 4.86599 23.4371 5.01201 23.4477C5.15802 23.4582 5.30408 23.4277 5.43366 23.3596L12 19.9076C19.1487 23.6658 18.6577 23.4498 18.9314 23.4498C19.4149 23.4498 19.7873 23.0138 19.7047 22.5325L18.4507 15.2209L23.7629 10.0427C24.2275 9.58971 23.9707 8.79785 23.3281 8.70443Z" fill="#F7AC16"/>
<path d="M12 0.547913C11.8536 0.54792 11.7102 0.588882 11.5858 0.666168C11.4615 0.743453 11.3612 0.85398 11.2964 0.985256L8.01328 7.63771L0.672001 8.70444C0.0299537 8.79777 -0.227906 9.5894 0.237188 10.0427L5.54939 15.2209L4.2953 22.5325C4.27055 22.6768 4.28666 22.8251 4.34181 22.9608C4.39697 23.0964 4.48897 23.2138 4.60741 23.2999C4.72584 23.3859 4.86599 23.4371 5.01201 23.4477C5.15802 23.4582 5.30408 23.4277 5.43366 23.3596L12 19.9076H12V0.547913Z" fill="#F2D422"/>
<path d="M0.672001 8.70445C0.0299537 8.79777 -0.227906 9.5894 0.237188 10.0427L5.54939 15.2209L4.2953 22.5325C4.27055 22.6768 4.28666 22.8251 4.34181 22.9608C4.39697 23.0964 4.48897 23.2138 4.60741 23.2999C4.72584 23.3859 4.86599 23.4371 5.01201 23.4477C5.15802 23.4582 5.30408 23.4277 5.43366 23.3596L12 19.9076C19.1487 23.6658 18.6577 23.4498 18.9314 23.4498C19.0971 23.4498 19.2585 23.3973 19.3926 23.2999L8.01328 7.63766L0.672001 8.70445Z" fill="#F7AC16"/>
<path d="M8.36991 14.3177C2.67956 8.77097 2.92416 9.06825 2.8478 8.78058C2.81672 8.66503 2.81034 8.53059 2.84414 8.38879L0.672001 8.7044C0.0299537 8.79773 -0.227906 9.58936 0.237188 10.0426L5.54939 15.2208L4.2953 22.5325C4.27055 22.6768 4.28666 22.8252 4.34181 22.9608C4.39697 23.0964 4.48897 23.2138 4.60741 23.2999C4.72584 23.3859 4.86599 23.4371 5.01201 23.4477C5.15803 23.4582 5.30408 23.4277 5.43366 23.3596L7.3643 22.3446C7.26586 22.2561 7.19145 22.144 7.148 22.019C7.10455 21.8939 7.09348 21.7599 7.11581 21.6294L8.36991 14.3177Z" fill="#F48B19"/>
<path d="M0.237227 10.0427L5.54943 15.2209L4.29534 22.5325C4.27058 22.6768 4.2867 22.8252 4.34185 22.9608C4.39701 23.0964 4.48901 23.2138 4.60744 23.2999C4.72588 23.3859 4.86603 23.4371 5.01205 23.4477C5.15806 23.4582 5.30412 23.4277 5.4337 23.3596L12 19.9076C19.1488 23.6658 18.6577 23.4498 18.9314 23.4498C19.415 23.4498 19.7873 23.0138 19.7047 22.5325L18.4507 15.2209L0.0386172 9.2384C-0.0531172 9.56723 0.038711 9.84928 0.237227 10.0427Z" fill="#F2D422"/>
<path d="M0.237227 10.0427L5.54943 15.2209L4.29534 22.5325C4.27058 22.6768 4.2867 22.8252 4.34185 22.9608C4.39701 23.0964 4.48901 23.2138 4.60744 23.2999C4.72588 23.3859 4.86603 23.4371 5.01205 23.4477C5.15806 23.4582 5.30412 23.4277 5.4337 23.3596L7.36434 22.3446C7.2659 22.2561 7.19149 22.144 7.14804 22.019C7.10459 21.8939 7.09352 21.7599 7.11585 21.6294L8.36995 14.3177L4.71941 10.7593L0.0386172 9.2384C-0.0531172 9.56723 0.038711 9.84928 0.237227 10.0427Z" fill="#EFB616"/>
<path d="M4.29523 22.5325C4.27048 22.6768 4.28659 22.8251 4.34175 22.9607C4.3969 23.0964 4.4889 23.2138 4.60734 23.2999C4.72578 23.3859 4.86593 23.4371 5.01194 23.4477C5.15796 23.4582 5.30401 23.4277 5.43359 23.3596L11.9999 19.9076C19.1487 23.6658 18.6576 23.4498 18.9313 23.4498C19.4149 23.4498 19.7872 23.0138 19.7046 22.5325L18.4506 15.2209L23.7628 10.0427C23.8676 9.94047 23.9418 9.81099 23.9768 9.66887C24.0119 9.52676 24.0066 9.37766 23.9614 9.23843L5.54932 15.2209L4.29523 22.5325Z" fill="#F7AC16"/>
<path d="M4.29523 22.5325C4.27048 22.6768 4.28659 22.8251 4.34175 22.9608C4.3969 23.0964 4.4889 23.2138 4.60734 23.2999C4.72578 23.3859 4.86593 23.4371 5.01194 23.4477C5.15796 23.4582 5.30401 23.4277 5.43359 23.3596L7.36423 22.3446C7.2658 22.2561 7.19139 22.144 7.14794 22.019C7.10449 21.8939 7.09341 21.7599 7.11575 21.6294L8.36984 14.3177L8.35958 14.3077L5.54932 15.2209L4.29523 22.5325Z" fill="#F48B19"/>
<path d="M5.43369 23.3596L12 19.9076C19.1487 23.6658 18.6577 23.4498 18.9313 23.4498C19.4149 23.4498 19.7872 23.0138 19.7047 22.5325L18.4506 15.2209L23.7629 10.0427C24.2274 9.58971 23.9706 8.79785 23.328 8.70443L15.9867 7.6377L4.60742 23.2999C4.72587 23.3859 4.86602 23.4371 5.01204 23.4477C5.15805 23.4582 5.30411 23.4277 5.43369 23.3596Z" fill="#F2D422"/>
<path d="M23.9615 9.2384L12 13.1249L4.60742 23.2999C4.72586 23.386 4.866 23.4371 5.01201 23.4477C5.15802 23.4582 5.30407 23.4277 5.43364 23.3596L12 19.9076C19.1487 23.6658 18.6577 23.4498 18.9313 23.4498C19.4149 23.4498 19.7872 23.0138 19.7047 22.5325L18.4506 15.2209L23.7629 10.0427C23.8677 9.94048 23.9418 9.811 23.9769 9.66888C24.012 9.52675 24.0067 9.37764 23.9615 9.2384Z" fill="#F7AC16"/>
<path d="M18.4507 15.2209L12 13.1249L4.60742 23.2999C4.72586 23.386 4.866 23.4371 5.01201 23.4477C5.15802 23.4582 5.30407 23.4277 5.43364 23.3596L12 19.9076C19.1487 23.6658 18.6577 23.4498 18.9313 23.4498C19.4149 23.4498 19.7872 23.0138 19.7047 22.5325L18.4507 15.2209Z" fill="#F2D422"/>
<path d="M4.60742 23.2999C4.72586 23.386 4.866 23.4371 5.01201 23.4477C5.15802 23.4582 5.30407 23.4277 5.43364 23.3596L12 19.9076C19.1487 23.6658 18.6577 23.4498 18.9313 23.4498C19.097 23.4498 19.2585 23.3973 19.3925 23.2999L12 13.1249L4.60742 23.2999Z" fill="#F7AC16"/>
<path d="M12 13.125L12 13.1249L4.60742 23.2999C4.72586 23.386 4.866 23.4371 5.01201 23.4477C5.15802 23.4582 5.30407 23.4277 5.43364 23.3596L12 19.9076H12V13.125Z" fill="#F2D422"/>
<path d="M7.51588 19.2968L4.60742 23.2999C4.72586 23.3859 4.866 23.4371 5.01201 23.4477C5.15802 23.4582 5.30407 23.4277 5.43364 23.3596L7.36428 22.3446C7.26585 22.2561 7.19144 22.144 7.14799 22.019C7.10454 21.8939 7.09346 21.7599 7.1158 21.6294L7.51588 19.2968Z" fill="#EFB616"/>
</g>
<defs>
<clipPath id="clip0_1_5483">
<rect width="24" height="24" fill="white"/>
</clipPath>
</defs>
</svg>
