<svg width="21" height="21" viewBox="0 0 21 21" fill="none" xmlns="http://www.w3.org/2000/svg">
<path d="M10.5 19.25C15.3325 19.25 19.25 15.3325 19.25 10.5C19.25 5.66751 15.3325 1.75 10.5 1.75C5.66751 1.75 1.75 5.66751 1.75 10.5C1.75 15.3325 5.66751 19.25 10.5 19.25Z" stroke="#4BA664" stroke-width="1.0625"/>
<path d="M5.25 4.12125C5.9325 4.74338 7.3395 6.44262 7.50312 8.26612C7.65625 9.9715 8.78062 11.3575 10.5 11.375C11.1606 11.382 11.8282 10.9051 11.8265 10.2445C11.8265 10.0406 11.7924 9.8315 11.7399 9.639C11.6527 9.34394 11.6786 9.027 11.8125 8.75C12.3463 7.65013 13.3963 7.35438 14.2275 6.75675C14.5959 6.49163 14.9328 6.21163 15.0806 5.98675C15.491 5.3655 15.9005 4.12213 15.6957 3.5M19.25 11.375C18.9612 12.1896 18.7583 14.3281 15.5033 14.3622C15.5033 14.3622 12.6219 14.3622 11.7574 15.9915C11.0653 17.2952 11.4686 18.7066 11.7574 19.25" stroke="#4BA664" stroke-width="1.0625"/>
</svg>
