<svg width="22" height="22" viewBox="0 0 22 22" fill="none" xmlns="http://www.w3.org/2000/svg">
<path d="M11.9166 8.24998H10.0833V6.41665H11.9166M11.9166 15.5833H10.0833V10.0833H11.9166M10.9999 1.83331C9.79613 1.83331 8.60414 2.07042 7.49199 2.53108C6.37984 2.99175 5.36931 3.66696 4.51811 4.51817C2.79902 6.23725 1.83325 8.56883 1.83325 11C1.83325 13.4311 2.79902 15.7627 4.51811 17.4818C5.36931 18.333 6.37984 19.0082 7.49199 19.4689C8.60414 19.9295 9.79613 20.1666 10.9999 20.1666C13.4311 20.1666 15.7626 19.2009 17.4817 17.4818C19.2008 15.7627 20.1666 13.4311 20.1666 11C20.1666 9.7962 19.9295 8.6042 19.4688 7.49205C19.0081 6.3799 18.3329 5.36937 17.4817 4.51817C16.6305 3.66696 15.62 2.99175 14.5078 2.53108C13.3957 2.07042 12.2037 1.83331 10.9999 1.83331Z" fill="#4BA664"/>
</svg>
