<svg width="33" height="38" viewBox="0 0 33 38" fill="none" xmlns="http://www.w3.org/2000/svg">
<path d="M10.4752 17.8079C10.5293 18.0486 10.6269 18.2753 10.7624 18.4749C10.8979 18.6746 11.0686 18.8434 11.2647 18.9714C11.4608 19.0995 11.6784 19.1843 11.905 19.2211C12.1315 19.2579 12.3626 19.2458 12.5848 19.1856C12.8071 19.1255 13.0161 19.0184 13.1999 18.8705C13.3837 18.7226 13.5385 18.5369 13.6556 18.324C13.7727 18.1112 13.8496 17.8754 13.882 17.6302C13.9144 17.3851 13.9016 17.1354 13.8444 16.8957L10.793 3.69959C10.5796 2.77264 10.0854 1.94952 9.38905 1.36127C8.69274 0.773024 7.83438 0.453461 6.95062 0.453461C6.06685 0.453461 5.20849 0.773024 4.51218 1.36127C3.81587 1.94952 3.32165 2.77264 3.1082 3.69959L0.0551145 16.8957C-0.00214588 17.1354 -0.0149466 17.3851 0.0174502 17.6302C0.0498469 17.8754 0.126801 18.1112 0.243878 18.324C0.360955 18.5369 0.515843 18.7226 0.699616 18.8705C0.88339 19.0184 1.09242 19.1255 1.31466 19.1856C1.5369 19.2458 1.76796 19.2579 1.99453 19.2211C2.2211 19.1843 2.4387 19.0995 2.63479 18.9714C2.83089 18.8434 3.0016 18.6746 3.13709 18.4749C3.27259 18.2753 3.37019 18.0486 3.42428 17.8079L4.39682 13.5976H9.50267L10.4752 17.8079ZM5.2669 9.84337L6.47737 4.61186C6.51388 4.50789 6.57878 4.41839 6.66346 4.35522C6.74814 4.29206 6.8486 4.25824 6.95148 4.25824C7.05437 4.25824 7.15482 4.29206 7.23951 4.35522C7.32419 4.41839 7.38909 4.50789 7.4256 4.61186L8.63607 9.84337H5.2669ZM19.1083 9.84337H20.845C21.3055 9.84337 21.7473 10.0411 22.073 10.3932C22.3987 10.7452 22.5816 11.2226 22.5816 11.7205V13.5976C22.5816 14.0954 22.7646 14.5729 23.0903 14.9249C23.416 15.2769 23.8577 15.4747 24.3183 15.4747C24.7789 15.4747 25.2206 15.2769 25.5463 14.9249C25.872 14.5729 26.055 14.0954 26.055 13.5976V11.7205C26.0536 10.2274 25.5043 8.79593 24.5275 7.74017C23.5507 6.68442 22.2263 6.09064 20.845 6.08915H19.1083C18.6477 6.08915 18.2059 6.28692 17.8802 6.63894C17.5546 6.99097 17.3716 7.46842 17.3716 7.96626C17.3716 8.4641 17.5546 8.94155 17.8802 9.29357C18.2059 9.6456 18.6477 9.84337 19.1083 9.84337ZM12.1615 26.7373H10.4249C9.96425 26.7373 9.52252 26.5396 9.19683 26.1876C8.87114 25.8355 8.68817 25.3581 8.68817 24.8602V22.9831C8.68817 22.4853 8.5052 22.0078 8.1795 21.6558C7.85381 21.3038 7.41208 21.106 6.95148 21.106C6.49089 21.106 6.04915 21.3038 5.72346 21.6558C5.39777 22.0078 5.2148 22.4853 5.2148 22.9831V24.8602C5.21618 26.3533 5.76554 27.7848 6.74231 28.8405C7.71909 29.8963 9.04348 30.4901 10.4249 30.4916H12.1615C12.6221 30.4916 13.0639 30.2938 13.3896 29.9418C13.7152 29.5897 13.8982 29.1123 13.8982 28.6145C13.8982 28.1166 13.7152 27.6392 13.3896 27.2871C13.0639 26.9351 12.6221 26.7373 12.1615 26.7373Z" fill="#4BA664"/>
<path d="M24.6086 28.668C23.8166 28.668 22.9953 28.5727 22.1446 28.382C21.2939 28.206 20.5019 27.8907 19.7686 27.436C19.0353 26.996 18.4339 26.3947 17.9646 25.632C17.5099 24.884 17.2826 23.938 17.2826 22.794C17.2826 21.738 17.4953 20.748 17.9206 19.824C18.3459 18.9 18.9473 18.064 19.7246 17.316C20.5166 16.568 21.4479 15.9373 22.5186 15.424C23.5893 14.9107 24.7699 14.544 26.0606 14.324L26.5226 16.04C25.4519 16.2307 24.4619 16.5167 23.5526 16.898C22.6433 17.2793 21.8513 17.7487 21.1766 18.306C20.5166 18.8487 20.0033 19.472 19.6366 20.176C19.2699 20.8947 19.0866 21.6793 19.0866 22.53C19.0866 23.2193 19.2039 23.8133 19.4386 24.312C19.6733 24.8107 19.9813 25.2213 20.3626 25.544C20.7586 25.8813 21.1986 26.1453 21.6826 26.336C22.1666 26.5267 22.6579 26.6587 23.1566 26.732C23.6699 26.82 24.1539 26.864 24.6086 26.864C25.3859 26.864 26.1779 26.7907 26.9846 26.644C27.7913 26.512 28.5246 26.3067 29.1846 26.028L29.7566 27.568C29.4046 27.744 28.9353 27.9127 28.3486 28.074C27.7766 28.25 27.1606 28.3893 26.5006 28.492C25.8406 28.6093 25.2099 28.668 24.6086 28.668ZM20.9786 17.008C20.3919 16.8613 19.8639 16.5973 19.3946 16.216C18.9253 15.8347 18.5513 15.38 18.2726 14.852C18.0086 14.324 17.8766 13.7667 17.8766 13.18C17.8766 12.256 18.0893 11.486 18.5146 10.87C18.9546 10.254 19.5119 9.792 20.1866 9.484C20.8759 9.176 21.6019 9.022 22.3646 9.022C22.7019 9.022 23.0613 9.05133 23.4426 9.11C23.8239 9.16867 24.1906 9.25667 24.5426 9.374L24.1686 11.068C23.8753 10.9947 23.5673 10.936 23.2446 10.892C22.9219 10.848 22.6286 10.826 22.3646 10.826C21.8366 10.826 21.3673 10.9213 20.9566 11.112C20.5459 11.3027 20.2233 11.5667 19.9886 11.904C19.7539 12.2267 19.6366 12.608 19.6366 13.048C19.6366 13.444 19.7466 13.8033 19.9666 14.126C20.2013 14.434 20.4946 14.7053 20.8466 14.94C21.1986 15.16 21.5579 15.3287 21.9246 15.446C22.2913 15.5487 22.6139 15.5927 22.8926 15.578L20.9786 17.008Z" fill="#4BA664"/>
</svg>
