<svg width="17" height="15" viewBox="0 0 17 15" fill="none" xmlns="http://www.w3.org/2000/svg">
<path d="M3.6126 3.95832V1.65986C3.6126 1.46519 3.45741 1.30737 3.26599 1.30737H2.11104C1.91962 1.30737 1.76443 1.46519 1.76443 1.65986V3.95832" fill="#0C0D0D"/>
<path d="M2.60376 3.95832V1.30737H2.11104C1.91962 1.30737 1.76443 1.46519 1.76443 1.65986V3.95832" fill="#1B1A1A"/>
<path d="M16.3077 4.37721V12.9768C16.3077 13.5664 15.8377 14.0444 15.2579 14.0444H1.53933C0.959552 14.0444 0.489517 13.5664 0.489517 12.9768V4.37721C0.489517 3.7876 0.959552 3.3096 1.53933 3.3096H3.61515C4.06226 3.3096 4.46062 3.02168 4.60719 2.59197L4.99038 1.46725C5.06186 1.25757 5.19581 1.07575 5.3736 0.947079C5.55139 0.818403 5.76419 0.749261 5.98241 0.749268H12.1062C12.5533 0.749268 12.9513 1.0375 13.0979 1.46725L13.4814 2.59197C13.5529 2.80156 13.6868 2.9833 13.8645 3.11191C14.0422 3.24053 14.255 3.30963 14.4731 3.3096H15.2579C15.8377 3.3096 16.3077 3.7876 16.3077 4.37721Z" fill="#95B6C2"/>
<path d="M2.36252 14.0444H1.53933C0.959552 14.0444 0.489517 13.5664 0.489517 12.9768V4.37721C0.489517 3.7876 0.959552 3.3096 1.53933 3.3096H2.2973V3.31158C1.74787 3.34605 1.31271 3.80994 1.31271 4.37721V12.9768C1.31271 13.5665 1.78275 14.0444 2.36252 14.0444ZM6.80557 0.749268C6.58736 0.749266 6.37456 0.818409 6.19677 0.947084C6.01897 1.07576 5.88503 1.25757 5.81354 1.46725L5.43035 2.59197C5.28378 3.02171 4.88543 3.3096 4.43832 3.3096H3.73391V3.30272C4.13162 3.25676 4.47381 2.98329 4.60713 2.59197L4.99031 1.46725C5.0618 1.25757 5.19574 1.07575 5.37354 0.947079C5.55133 0.818403 5.76413 0.749261 5.98235 0.749268H6.80557Z" fill="#95B6C2"/>
<path d="M16.3077 6.21497V12.9768C16.3077 13.5664 15.8377 14.0444 15.2579 14.0444H1.53933C0.959552 14.0444 0.489517 13.5664 0.489517 12.9768V6.21497H16.3077Z" fill="#95B6C2"/>
<path d="M2.36252 14.0444H1.53933C0.959552 14.0444 0.489517 13.5664 0.489517 12.9768V6.21497H1.31271V12.9768C1.31271 13.5664 1.78275 14.0444 2.36252 14.0444Z" fill="#628D9B"/>
<path d="M8.39854 13.0431C10.8142 13.0431 12.7724 11.0517 12.7724 8.59512C12.7724 6.13854 10.8142 4.14709 8.39854 4.14709C5.98291 4.14709 4.02466 6.13854 4.02466 8.59512C4.02466 11.0517 5.98291 13.0431 8.39854 13.0431Z" fill="#0C0D0D"/>
<path d="M11.4913 8.59514C11.4913 9.52127 11.0978 10.3538 10.4712 10.9296C9.92273 11.4336 9.19636 11.7405 8.39869 11.7405C7.60132 11.7405 6.87464 11.4335 6.3262 10.9296C5.69962 10.3541 5.30577 9.52123 5.30577 8.59511C5.30577 7.66898 5.69962 6.83611 6.3262 6.26096C6.87467 5.75669 7.60132 5.45007 8.39869 5.45007C9.19636 5.45007 9.92273 5.75703 10.4712 6.26096C11.0978 6.83648 11.4913 7.66901 11.4913 8.59514Z" fill="#566368"/>
<path d="M10.5854 6.3712C11.2293 7.02606 11.53 7.89774 11.4873 8.7555C10.6438 8.79889 9.78666 8.49319 9.14272 7.83833C8.49878 7.18347 8.19814 6.31179 8.24106 5.45428C9.08427 5.41064 9.94145 5.71638 10.5854 6.3712ZM7.65442 9.35189C8.29837 10.0067 8.599 10.8784 8.55631 11.7362C7.71306 11.7798 6.85545 11.4741 6.21154 10.8192C5.5676 10.1644 5.26696 9.29223 5.31009 8.43494C6.15333 8.39126 7.01048 8.697 7.65442 9.35189Z" fill="#6F7B7F"/>
<path d="M8.39861 11.9865C6.55977 11.9865 5.06375 10.4651 5.06375 8.59512C5.06375 6.72512 6.55977 5.20374 8.39861 5.20374C10.2374 5.20374 11.7335 6.72509 11.7335 8.59512C11.7335 10.4652 10.2374 11.9865 8.39861 11.9865ZM8.39861 5.69616C6.82677 5.69616 5.54797 6.99664 5.54797 8.59512C5.54797 10.1936 6.82677 11.4941 8.39861 11.4941C9.97045 11.4941 11.2492 10.1936 11.2492 8.59512C11.2492 6.99664 9.97045 5.69616 8.39861 5.69616Z" fill="#435054"/>
<path d="M8.39865 7.33264C7.71408 7.33264 7.15714 7.89902 7.15714 8.59523C7.15714 9.29143 7.71408 9.85779 8.39865 9.85779C9.08321 9.85779 9.64016 9.2914 9.64016 8.59523C9.64016 7.89906 9.08321 7.33264 8.39865 7.33264Z" fill="#435054"/>
<path d="M9.96966 3.06354H11.8723C12.1224 3.06354 12.3252 2.85734 12.3252 2.60294V2.0961C12.3252 1.84173 12.1224 1.6355 11.8723 1.6355H9.96966C9.71953 1.6355 9.51674 1.8417 9.51674 2.0961V2.60294C9.51674 2.85731 9.71953 3.06354 9.96966 3.06354Z" fill="#0C0D0D"/>
<path d="M11.8724 3.30971H9.96978C9.58653 3.30971 9.27473 2.99264 9.27473 2.60289V2.09611C9.27473 1.70636 9.58653 1.38928 9.96978 1.38928H11.8724C12.2556 1.38928 12.5674 1.70636 12.5674 2.09611V2.60292C12.5674 2.99267 12.2556 3.30971 11.8724 3.30971ZM9.96978 1.88171C9.91389 1.88176 9.8603 1.90437 9.82079 1.94456C9.78127 1.98475 9.75904 2.03924 9.75898 2.09608V2.60289C9.75904 2.65973 9.78127 2.71422 9.82079 2.75441C9.8603 2.7946 9.91389 2.8172 9.96978 2.81726H11.8724C11.9283 2.8172 11.9818 2.7946 12.0214 2.75441C12.0609 2.71422 12.0831 2.65973 12.0832 2.60289V2.09611C12.0831 2.03927 12.0609 1.98478 12.0214 1.94459C11.9818 1.9044 11.9283 1.8818 11.8724 1.88174L9.96978 1.88171Z" fill="#95B6C2"/>
<path d="M3.4965 13.1331C3.98003 13.1331 4.372 12.7345 4.372 12.2428C4.372 11.751 3.98003 11.3524 3.4965 11.3524C3.01298 11.3524 2.621 11.751 2.621 12.2428C2.621 12.7345 3.01298 13.1331 3.4965 13.1331Z" fill="#566368"/>
</svg>
