<svg width="30" height="28" viewBox="0 0 30 28" fill="none" xmlns="http://www.w3.org/2000/svg">
<g clip-path="url(#clip0_12_946)">
<path d="M0.00372314 5.25C0.00372314 4.32174 0.398811 3.4315 1.10207 2.77513C1.80533 2.11875 2.75916 1.75 3.75372 1.75H26.2537C27.2483 1.75 28.2021 2.11875 28.9054 2.77513C29.6086 3.4315 30.0037 4.32174 30.0037 5.25V22.75C30.0037 23.6783 29.6086 24.5685 28.9054 25.2249C28.2021 25.8813 27.2483 26.25 26.2537 26.25H3.75372C2.75916 26.25 1.80533 25.8813 1.10207 25.2249C0.398811 24.5685 0.00372314 23.6783 0.00372314 22.75V5.25ZM1.87872 21V22.75C1.87872 23.2141 2.07627 23.6592 2.4279 23.9874C2.77953 24.3156 3.25644 24.5 3.75372 24.5H26.2537C26.751 24.5 27.2279 24.3156 27.5795 23.9874C27.9312 23.6592 28.1287 23.2141 28.1287 22.75V16.625L21.0468 13.2177C20.871 13.1355 20.6719 13.107 20.4778 13.1362C20.2836 13.1654 20.1042 13.2509 19.965 13.3805L13.0087 19.873L8.02122 16.772C7.84115 16.6601 7.62515 16.6098 7.40986 16.6296C7.19456 16.6493 6.99322 16.738 6.83997 16.8805L1.87872 21ZM11.2537 9.625C11.2537 8.92881 10.9574 8.26113 10.43 7.76884C9.90252 7.27656 9.18714 7 8.44122 7C7.6953 7 6.97993 7.27656 6.45249 7.76884C5.92504 8.26113 5.62872 8.92881 5.62872 9.625C5.62872 10.3212 5.92504 10.9889 6.45249 11.4812C6.97993 11.9734 7.6953 12.25 8.44122 12.25C9.18714 12.25 9.90252 11.9734 10.43 11.4812C10.9574 10.9889 11.2537 10.3212 11.2537 9.625Z" fill="white"/>
</g>
<defs>
<clipPath id="clip0_12_946">
<rect width="30" height="28" fill="white"/>
</clipPath>
</defs>
</svg>
