<svg width="20" height="20" viewBox="0 0 20 20" fill="none" xmlns="http://www.w3.org/2000/svg">
<g clip-path="url(#clip0_1_481)">
<path d="M12.5 20H7.50001C5.20251 20 3.33334 18.1308 3.33334 15.8333V4.16667C3.33334 1.86917 5.20251 0 7.50001 0H12.5C14.7975 0 16.6667 1.86917 16.6667 4.16667V15.8333C16.6667 18.1308 14.7975 20 12.5 20ZM7.50001 1.66667C6.12168 1.66667 5.00001 2.78833 5.00001 4.16667V15.8333C5.00001 17.2117 6.12168 18.3333 7.50001 18.3333H12.5C13.8783 18.3333 15 17.2117 15 15.8333V4.16667C15 2.78833 13.8783 1.66667 12.5 1.66667H7.50001ZM11.6667 15.8333C11.6667 15.3733 11.2933 15 10.8333 15H9.16668C8.70668 15 8.33334 15.3733 8.33334 15.8333C8.33334 16.2933 8.70668 16.6667 9.16668 16.6667H10.8333C11.2933 16.6667 11.6667 16.2933 11.6667 15.8333Z" fill="#6B6464"/>
</g>
<defs>
<clipPath id="clip0_1_481">
<rect width="20" height="20" fill="white"/>
</clipPath>
</defs>
</svg>
