<svg width="57" height="57" viewBox="0 0 57 57" fill="none" xmlns="http://www.w3.org/2000/svg">
<circle cx="28.5" cy="28.5" r="28" fill="white" stroke="#4BA664"/>
<path d="M24.946 34.5H19.5C19.2679 34.5 19.0454 34.4078 18.8813 34.2437C18.7172 34.0796 18.625 33.8571 18.625 33.625V18.75H16.875C16.6429 18.75 16.4204 18.6578 16.2563 18.4937C16.0922 18.3296 16 18.1071 16 17.875C16 17.6429 16.0922 17.4204 16.2563 17.2563C16.4204 17.0922 16.6429 17 16.875 17H41.375C41.6071 17 41.8296 17.0922 41.9937 17.2563C42.1578 17.4204 42.25 17.6429 42.25 17.875C42.25 18.1071 42.1578 18.3296 41.9937 18.4937C41.8296 18.6578 41.6071 18.75 41.375 18.75H39.625V33.625C39.625 33.8571 39.5328 34.0796 39.3687 34.2437C39.2046 34.4078 38.9821 34.5 38.75 34.5H33.3145L36.3455 39.75H34.326L31.295 34.5H26.9655L23.9345 39.75H21.915L24.946 34.5ZM37.875 18.75H20.375V32.75H37.875V18.75ZM24.4945 28.1195C24.4131 28.2009 24.3166 28.2654 24.2103 28.3094C24.104 28.3534 23.9901 28.3761 23.875 28.3761C23.7599 28.3761 23.646 28.3534 23.5397 28.3094C23.4334 28.2654 23.3369 28.2009 23.2555 28.1195C23.1741 28.0381 23.1096 27.9416 23.0656 27.8353C23.0216 27.729 22.9989 27.6151 22.9989 27.5C22.9989 27.3849 23.0216 27.271 23.0656 27.1647C23.1096 27.0584 23.1741 26.9619 23.2555 26.8805L27.2928 22.845L30.7228 25.4175L33.6925 21.704C33.762 21.6082 33.8502 21.5275 33.9519 21.4667C34.0535 21.406 34.1663 21.3665 34.2837 21.3507C34.401 21.3348 34.5203 21.3429 34.6344 21.3745C34.7485 21.4061 34.8549 21.4606 34.9474 21.5345C35.0398 21.6085 35.1163 21.7004 35.1722 21.8048C35.2281 21.9091 35.2622 22.0238 35.2725 22.1417C35.2828 22.2596 35.269 22.3784 35.2321 22.4909C35.1951 22.6034 35.1357 22.7071 35.0575 22.796L31.029 27.8342L27.4572 25.155L24.4945 28.1177V28.1195Z" fill="#4BA664"/>
</svg>
