<svg width="57" height="57" viewBox="0 0 57 57" fill="none" xmlns="http://www.w3.org/2000/svg">
<circle cx="28.5" cy="28.5" r="28" fill="white" stroke="#AFB2B9"/>
<path d="M32.875 23.125H37.25M32.875 27.5H37.25M32.875 31.875H37.25M28.5 33.3333C28.0538 32.4394 27.1394 31.875 26.1404 31.875H22.1096C21.1106 31.875 20.1963 32.4394 19.75 33.3333M16.8333 17.2917H40.1667C40.5534 17.2917 40.9244 17.4453 41.1979 17.7188C41.4714 17.9923 41.625 18.3632 41.625 18.75V36.25C41.625 36.6368 41.4714 37.0077 41.1979 37.2812C40.9244 37.5547 40.5534 37.7083 40.1667 37.7083H16.8333C16.4466 37.7083 16.0756 37.5547 15.8021 37.2812C15.5286 37.0077 15.375 36.6368 15.375 36.25V18.75C15.375 18.3632 15.5286 17.9923 15.8021 17.7188C16.0756 17.4453 16.4466 17.2917 16.8333 17.2917ZM27.0417 24.5833C27.0417 25.3569 26.7344 26.0987 26.1874 26.6457C25.6404 27.1927 24.8985 27.5 24.125 27.5C23.3515 27.5 22.6096 27.1927 22.0626 26.6457C21.5156 26.0987 21.2083 25.3569 21.2083 24.5833C21.2083 23.8098 21.5156 23.0679 22.0626 22.5209C22.6096 21.974 23.3515 21.6667 24.125 21.6667C24.8985 21.6667 25.6404 21.974 26.1874 22.5209C26.7344 23.0679 27.0417 23.8098 27.0417 24.5833Z" stroke="#BEC3BC" stroke-width="1.41667" stroke-linecap="round" stroke-linejoin="round"/>
</svg>
