<svg width="57" height="57" viewBox="0 0 57 57" fill="none" xmlns="http://www.w3.org/2000/svg">
<circle cx="28.5" cy="28.5" r="28" fill="white" stroke="#BEC3BC"/>
<path d="M32.6328 22.6836V21.3242C32.6328 21.1996 32.5309 21.0977 32.4062 21.0977H21.5312C21.4066 21.0977 21.3047 21.1996 21.3047 21.3242V22.6836C21.3047 22.8082 21.4066 22.9102 21.5312 22.9102H32.4062C32.5309 22.9102 32.6328 22.8082 32.6328 22.6836ZM21.5312 25.1758C21.4066 25.1758 21.3047 25.2777 21.3047 25.4023V26.7617C21.3047 26.8863 21.4066 26.9883 21.5312 26.9883H26.7422C26.8668 26.9883 26.9688 26.8863 26.9688 26.7617V25.4023C26.9688 25.2777 26.8668 25.1758 26.7422 25.1758H21.5312ZM32.1797 28.4609C28.8011 28.4609 26.0625 31.1995 26.0625 34.5781C26.0625 37.9567 28.8011 40.6953 32.1797 40.6953C35.5583 40.6953 38.2969 37.9567 38.2969 34.5781C38.2969 31.1995 35.5583 28.4609 32.1797 28.4609ZM35.2241 37.6226C34.4113 38.4354 33.3295 38.8828 32.1797 38.8828C31.0299 38.8828 29.948 38.4354 29.1353 37.6226C28.3225 36.8098 27.875 35.7279 27.875 34.5781C27.875 33.4283 28.3225 32.3465 29.1353 31.5337C29.948 30.7209 31.0299 30.2734 32.1797 30.2734C33.3295 30.2734 34.4113 30.7209 35.2241 31.5337C36.0369 32.3465 36.4844 33.4283 36.4844 34.5781C36.4844 35.7279 36.0369 36.8098 35.2241 37.6226ZM34.7002 32.4258H33.4456C33.372 32.4258 33.304 32.4598 33.2615 32.5192L31.4632 35.0058L30.809 34.1023C30.788 34.0732 30.7604 34.0494 30.7283 34.0332C30.6963 34.0169 30.6608 34.0086 30.6249 34.0089H29.376C29.1919 34.0089 29.0843 34.2185 29.1919 34.3686L31.2819 37.2601C31.3726 37.3847 31.5566 37.3847 31.6473 37.2601L34.8814 32.7854C34.9919 32.6354 34.8843 32.4258 34.7002 32.4258ZM25.6094 37.9766H19.0391V18.0391H34.8984V27.7812C34.8984 27.9059 35.0004 28.0078 35.125 28.0078H36.7109C36.8355 28.0078 36.9375 27.9059 36.9375 27.7812V16.9062C36.9375 16.405 36.5325 16 36.0312 16H17.9062C17.405 16 17 16.405 17 16.9062V39.1094C17 39.6106 17.405 40.0156 17.9062 40.0156H25.6094C25.734 40.0156 25.8359 39.9137 25.8359 39.7891V38.2031C25.8359 38.0785 25.734 37.9766 25.6094 37.9766Z" fill="#BEC3BC"/>
</svg>
