<svg width="35" height="35" viewBox="0 0 35 35" fill="none" xmlns="http://www.w3.org/2000/svg">
<path d="M21.875 13.125H26.25M21.875 17.5H26.25M21.875 21.875H26.25M17.5 23.3333C17.0538 22.4393 16.1394 21.875 15.1404 21.875H11.1096C10.1106 21.875 9.19625 22.4393 8.75 23.3333M5.83333 7.29163H29.1667C29.5534 7.29163 29.9244 7.44527 30.1979 7.71876C30.4714 7.99225 30.625 8.36319 30.625 8.74996V26.25C30.625 26.6367 30.4714 27.0077 30.1979 27.2812C29.9244 27.5546 29.5534 27.7083 29.1667 27.7083H5.83333C5.44656 27.7083 5.07563 27.5546 4.80214 27.2812C4.52865 27.0077 4.375 26.6367 4.375 26.25V8.74996C4.375 8.36319 4.52865 7.99225 4.80214 7.71876C5.07563 7.44527 5.44656 7.29163 5.83333 7.29163ZM16.0417 14.5833C16.0417 15.3568 15.7344 16.0987 15.1874 16.6457C14.6404 17.1927 13.8985 17.5 13.125 17.5C12.3515 17.5 11.6096 17.1927 11.0626 16.6457C10.5156 16.0987 10.2083 15.3568 10.2083 14.5833C10.2083 13.8097 10.5156 13.0679 11.0626 12.5209C11.6096 11.9739 12.3515 11.6666 13.125 11.6666C13.8985 11.6666 14.6404 11.9739 15.1874 12.5209C15.7344 13.0679 16.0417 13.8097 16.0417 14.5833Z" stroke="#4BA664" stroke-width="1.41667" stroke-linecap="round" stroke-linejoin="round"/>
</svg>
