<svg width="29" height="29" viewBox="0 0 29 29" fill="none" xmlns="http://www.w3.org/2000/svg">
<path d="M19.4844 8.83594V7.47656C19.4844 7.35195 19.3824 7.25 19.2578 7.25H8.38281C8.2582 7.25 8.15625 7.35195 8.15625 7.47656V8.83594C8.15625 8.96055 8.2582 9.0625 8.38281 9.0625H19.2578C19.3824 9.0625 19.4844 8.96055 19.4844 8.83594ZM8.38281 11.3281C8.2582 11.3281 8.15625 11.4301 8.15625 11.5547V12.9141C8.15625 13.0387 8.2582 13.1406 8.38281 13.1406H13.5938C13.7184 13.1406 13.8203 13.0387 13.8203 12.9141V11.5547C13.8203 11.4301 13.7184 11.3281 13.5938 11.3281H8.38281ZM19.0312 14.6133C15.6526 14.6133 12.9141 17.3519 12.9141 20.7305C12.9141 24.1091 15.6526 26.8477 19.0312 26.8477C22.4099 26.8477 25.1484 24.1091 25.1484 20.7305C25.1484 17.3519 22.4099 14.6133 19.0312 14.6133ZM22.0757 23.7749C21.2629 24.5877 20.1811 25.0352 19.0312 25.0352C17.8814 25.0352 16.7996 24.5877 15.9868 23.7749C15.174 22.9621 14.7266 21.8803 14.7266 20.7305C14.7266 19.5807 15.174 18.4988 15.9868 17.686C16.7996 16.8732 17.8814 16.4258 19.0312 16.4258C20.1811 16.4258 21.2629 16.8732 22.0757 17.686C22.8885 18.4988 23.3359 19.5807 23.3359 20.7305C23.3359 21.8803 22.8885 22.9621 22.0757 23.7749ZM21.5518 18.5781H20.2972C20.2235 18.5781 20.1556 18.6121 20.1131 18.6716L18.3147 21.1581L17.6605 20.2547C17.6396 20.2255 17.6119 20.2018 17.5799 20.1855C17.5479 20.1693 17.5124 20.1609 17.4765 20.1612H16.2275C16.0435 20.1612 15.9358 20.3708 16.0435 20.5209L18.1335 23.4124C18.2241 23.537 18.4082 23.537 18.4988 23.4124L21.733 18.9378C21.8435 18.7877 21.7358 18.5781 21.5518 18.5781ZM12.4609 24.1289H5.89062V4.19141H21.75V13.9336C21.75 14.0582 21.852 14.1602 21.9766 14.1602H23.5625C23.6871 14.1602 23.7891 14.0582 23.7891 13.9336V3.05859C23.7891 2.55732 23.3841 2.15234 22.8828 2.15234H4.75781C4.25654 2.15234 3.85156 2.55732 3.85156 3.05859V25.2617C3.85156 25.763 4.25654 26.168 4.75781 26.168H12.4609C12.5855 26.168 12.6875 26.066 12.6875 25.9414V24.3555C12.6875 24.2309 12.5855 24.1289 12.4609 24.1289Z" fill="#BEC3BC"/>
</svg>
