<svg width="17" height="17" viewBox="0 0 17 17" fill="none" xmlns="http://www.w3.org/2000/svg">
<path d="M17 7.4375H14.875V5.3125H13.8125V7.4375H11.6875V8.5H13.8125V10.625H14.875V8.5H17V7.4375ZM6.375 2.125C6.90036 2.125 7.41392 2.28079 7.85073 2.57266C8.28755 2.86453 8.62801 3.27938 8.82906 3.76475C9.0301 4.25011 9.0827 4.7842 8.98021 5.29946C8.87772 5.81472 8.62474 6.28802 8.25325 6.6595C7.88177 7.03099 7.40847 7.28397 6.89321 7.38646C6.37795 7.48895 5.84386 7.43635 5.3585 7.23531C4.87313 7.03426 4.45828 6.6938 4.16641 6.25698C3.87454 5.82017 3.71875 5.30661 3.71875 4.78125C3.71875 4.07677 3.9986 3.40114 4.49675 2.903C4.99489 2.40485 5.67052 2.125 6.375 2.125ZM6.375 1.0625C5.6395 1.0625 4.92052 1.2806 4.30897 1.68922C3.69743 2.09784 3.22079 2.67863 2.93932 3.35815C2.65786 4.03766 2.58422 4.78538 2.7277 5.50674C2.87119 6.22811 3.22537 6.89073 3.74545 7.4108C4.26552 7.93088 4.92814 8.28506 5.64951 8.42854C6.37087 8.57203 7.11859 8.49839 7.7981 8.21693C8.47762 7.93546 9.05841 7.45882 9.46703 6.84728C9.87565 6.23573 10.0938 5.51675 10.0938 4.78125C10.0938 3.79498 9.70195 2.8491 9.00455 2.1517C8.30715 1.4543 7.36127 1.0625 6.375 1.0625ZM11.6875 15.9375H10.625V13.2812C10.625 12.5768 10.3451 11.9011 9.847 11.403C9.34886 10.9049 8.67323 10.625 7.96875 10.625H4.78125C4.07677 10.625 3.40114 10.9049 2.903 11.403C2.40485 11.9011 2.125 12.5768 2.125 13.2812V15.9375H1.0625V13.2812C1.0625 12.295 1.4543 11.3491 2.1517 10.6517C2.8491 9.9543 3.79498 9.5625 4.78125 9.5625H7.96875C8.95502 9.5625 9.9009 9.9543 10.5983 10.6517C11.2957 11.3491 11.6875 12.295 11.6875 13.2812V15.9375Z" fill="white"/>
</svg>
