<svg width="24" height="24" viewBox="0 0 24 24" fill="none" xmlns="http://www.w3.org/2000/svg">
<path d="M3 6.2C3 5.08 3 4.52 3.218 4.092C3.40974 3.71569 3.71569 3.40974 4.092 3.218C4.52 3 5.08 3 6.2 3H17.8C18.92 3 19.48 3 19.908 3.218C20.2843 3.40974 20.5903 3.71569 20.782 4.092C21 4.52 21 5.08 21 6.2V17.8C21 18.92 21 19.48 20.782 19.908C20.5903 20.2843 20.2843 20.5903 19.908 20.782C19.48 21 18.92 21 17.8 21H6.2C5.08 21 4.52 21 4.092 20.782C3.71569 20.5903 3.40974 20.2843 3.218 19.908C3 19.48 3 18.92 3 17.8V6.2Z" stroke="#4BA664" stroke-width="2" stroke-linecap="round"/>
<path d="M19 21L15 6.5M21 6L3 8M13 14.088C13 15.928 11.261 17.233 10.431 17.752C10.3019 17.8331 10.1525 17.8762 10 17.8762C9.84751 17.8762 9.69811 17.8331 9.569 17.752C8.739 17.233 7 15.927 7 14.088C7 12.235 8.454 11 10 11C11.6 11 13 12.235 13 14.088Z" stroke="#4BA664" stroke-width="2"/>
</svg>
