<svg width="36" height="36" viewBox="0 0 36 36" fill="none" xmlns="http://www.w3.org/2000/svg">
<rect width="36" height="36" rx="18" fill="#1F1F1F" fill-opacity="0.6"/>
<path d="M27.6364 18.6473L21.3364 24.9473C21.1667 25.1113 20.9393 25.202 20.7033 25.1999C20.4674 25.1979 20.2416 25.1032 20.0748 24.9364C19.9079 24.7695 19.8132 24.5438 19.8112 24.3078C19.8091 24.0718 19.8999 23.8445 20.0638 23.6747L24.8275 18.911H9.0001C8.7614 18.911 8.53248 18.8162 8.3637 18.6474C8.19492 18.4786 8.1001 18.2497 8.1001 18.011C8.1001 17.7723 8.19492 17.5434 8.3637 17.3746C8.53248 17.2059 8.7614 17.111 9.0001 17.111H24.8275L20.0638 12.3473C19.9778 12.2643 19.9093 12.165 19.8621 12.0552C19.8149 11.9454 19.7901 11.8273 19.7891 11.7078C19.788 11.5883 19.8108 11.4698 19.8561 11.3592C19.9013 11.2486 19.9681 11.1481 20.0526 11.0636C20.1371 10.9791 20.2376 10.9123 20.3482 10.867C20.4588 10.8218 20.5774 10.799 20.6969 10.8C20.8164 10.8011 20.9345 10.8259 21.0443 10.8731C21.1541 10.9202 21.2534 10.9888 21.3364 11.0747L27.6364 17.3747C27.8051 17.5435 27.8999 17.7724 27.8999 18.011C27.8999 18.2497 27.8051 18.4786 27.6364 18.6473Z" fill="white"/>
</svg>
