<svg width="20" height="20" viewBox="0 0 20 20" fill="none" xmlns="http://www.w3.org/2000/svg">
<path d="M17.5 11.6667V12.5C17.5 14.0917 16.6084 15.475 15.2917 16.175L15.8334 18.3333H14.1667L13.75 16.6667H6.25002L5.83335 18.3333H4.16669L4.70835 16.175C4.04119 15.8208 3.48311 15.2915 3.09404 14.644C2.70497 13.9966 2.49962 13.2554 2.50002 12.5V11.6667H1.66669V9.99999H16.6667V4.16666C16.6667 3.94564 16.5789 3.73368 16.4226 3.5774C16.2663 3.42112 16.0544 3.33332 15.8334 3.33332C15.4167 3.33332 15.1 3.61666 15 3.99166C15.525 4.44166 15.8334 5.10832 15.8334 5.83332H10.8334C10.8334 5.17028 11.0967 4.5344 11.5656 4.06556C12.0344 3.59672 12.6703 3.33332 13.3334 3.33332H13.475C13.8167 2.36666 14.7417 1.66666 15.8334 1.66666C16.4964 1.66666 17.1323 1.93005 17.6011 2.39889C18.07 2.86773 18.3334 3.50362 18.3334 4.16666V11.6667H17.5ZM15.8334 11.6667H4.16669V12.5C4.16669 13.163 4.43008 13.7989 4.89892 14.2678C5.36776 14.7366 6.00365 15 6.66669 15H13.3334C13.9964 15 14.6323 14.7366 15.1011 14.2678C15.57 13.7989 15.8334 13.163 15.8334 12.5V11.6667Z" fill="#4BA664"/>
</svg>
