<svg width="13" height="12" viewBox="0 0 13 12" fill="none" xmlns="http://www.w3.org/2000/svg">
<path d="M11.1875 2.28125H9.56328L8.76465 1.08359C8.72186 1.01946 8.66392 0.966877 8.59595 0.930492C8.52798 0.894106 8.45209 0.875046 8.375 0.875H4.625C4.54791 0.875046 4.47202 0.894106 4.40405 0.930492C4.33608 0.966877 4.27814 1.01946 4.23535 1.08359L3.43613 2.28125H1.8125C1.43954 2.28125 1.08185 2.42941 0.818131 2.69313C0.554408 2.95685 0.40625 3.31454 0.40625 3.6875V10.25C0.40625 10.623 0.554408 10.9806 0.818131 11.2444C1.08185 11.5081 1.43954 11.6562 1.8125 11.6562H11.1875C11.5605 11.6562 11.9181 11.5081 12.1819 11.2444C12.4456 10.9806 12.5938 10.623 12.5938 10.25V3.6875C12.5938 3.31454 12.4456 2.95685 12.1819 2.69313C11.9181 2.42941 11.5605 2.28125 11.1875 2.28125ZM11.6562 10.25C11.6562 10.3743 11.6069 10.4935 11.519 10.5815C11.431 10.6694 11.3118 10.7188 11.1875 10.7188H1.8125C1.68818 10.7188 1.56895 10.6694 1.48104 10.5815C1.39314 10.4935 1.34375 10.3743 1.34375 10.25V3.6875C1.34375 3.56318 1.39314 3.44395 1.48104 3.35604C1.56895 3.26814 1.68818 3.21875 1.8125 3.21875H3.6875C3.76469 3.2188 3.8407 3.19979 3.90878 3.1634C3.97686 3.12701 4.03489 3.07437 4.07773 3.01016L4.87578 1.8125H8.12363L8.92227 3.01016C8.96511 3.07437 9.02314 3.12701 9.09122 3.1634C9.1593 3.19979 9.23531 3.2188 9.3125 3.21875H11.1875C11.3118 3.21875 11.431 3.26814 11.519 3.35604C11.6069 3.44395 11.6562 3.56318 11.6562 3.6875V10.25ZM6.5 4.15625C5.9901 4.15625 5.49164 4.30745 5.06767 4.59074C4.6437 4.87403 4.31326 5.27668 4.11812 5.74777C3.92299 6.21886 3.87194 6.73723 3.97141 7.23734C4.07089 7.73745 4.31643 8.19683 4.67699 8.55738C5.03755 8.91794 5.49693 9.16348 5.99703 9.26296C6.49714 9.36244 7.01552 9.31138 7.48661 9.11625C7.9577 8.92112 8.36034 8.59067 8.64363 8.1667C8.92692 7.74273 9.07812 7.24428 9.07812 6.73438C9.07735 6.05085 8.80548 5.39555 8.32215 4.91222C7.83883 4.4289 7.18352 4.15703 6.5 4.15625ZM6.5 8.375C6.17552 8.375 5.85832 8.27878 5.58852 8.0985C5.31872 7.91823 5.10844 7.662 4.98426 7.36222C4.86009 7.06243 4.8276 6.73255 4.8909 6.4143C4.9542 6.09605 5.11046 5.80372 5.3399 5.57428C5.56935 5.34483 5.86168 5.18858 6.17993 5.12527C6.49818 5.06197 6.82805 5.09446 7.12784 5.21864C7.42762 5.34281 7.68386 5.55309 7.86413 5.82289C8.0444 6.09269 8.14062 6.40989 8.14062 6.73438C8.14062 7.1695 7.96777 7.5868 7.6601 7.89447C7.35242 8.20215 6.93512 8.375 6.5 8.375Z" fill="white"/>
</svg>
