<svg width="19" height="19" viewBox="0 0 19 19" fill="none" xmlns="http://www.w3.org/2000/svg">
<path d="M16.0313 13.1468V5.8532C16.4364 5.74937 16.8069 5.54018 17.1051 5.24686C17.4033 4.95354 17.6185 4.58654 17.729 4.18312C17.8394 3.77971 17.8412 3.35425 17.734 2.94994C17.6269 2.54563 17.4147 2.17688 17.1189 1.88112C16.8231 1.58536 16.4544 1.37313 16.0501 1.26598C15.6458 1.15884 15.2203 1.16058 14.8169 1.27104C14.4135 1.38151 14.0465 1.59676 13.7532 1.89493C13.4598 2.19311 13.2507 2.56359 13.1468 2.96876H5.8532C5.74937 2.56359 5.54018 2.19311 5.24686 1.89493C4.95354 1.59676 4.58654 1.38151 4.18312 1.27104C3.77971 1.16058 3.35425 1.15884 2.94994 1.26598C2.54563 1.37313 2.17688 1.58536 1.88112 1.88112C1.58536 2.17688 1.37313 2.54563 1.26598 2.94994C1.15884 3.35425 1.16058 3.77971 1.27104 4.18312C1.38151 4.58654 1.59676 4.95354 1.89493 5.24686C2.19311 5.54018 2.56359 5.74937 2.96876 5.8532V13.1468C2.56359 13.2507 2.19311 13.4598 1.89493 13.7532C1.59676 14.0465 1.38151 14.4135 1.27104 14.8169C1.16058 15.2203 1.15884 15.6458 1.26598 16.0501C1.37313 16.4544 1.58536 16.8231 1.88112 17.1189C2.17688 17.4147 2.54563 17.6269 2.94994 17.734C3.35425 17.8412 3.77971 17.8394 4.18312 17.729C4.58654 17.6185 4.95354 17.4033 5.24686 17.1051C5.54018 16.8069 5.74937 16.4364 5.8532 16.0313H13.1468C13.2507 16.4364 13.4598 16.8069 13.7532 17.1051C14.0465 17.4033 14.4135 17.6185 14.8169 17.729C15.2203 17.8394 15.6458 17.8412 16.0501 17.734C16.4544 17.6269 16.8231 17.4147 17.1189 17.1189C17.4147 16.8231 17.6269 16.4544 17.734 16.0501C17.8412 15.6458 17.8394 15.2203 17.729 14.8169C17.6185 14.4135 17.4033 14.0465 17.1051 13.7532C16.8069 13.4598 16.4364 13.2507 16.0313 13.1468ZM15.4375 2.37501C15.6724 2.37501 15.902 2.44466 16.0973 2.57514C16.2925 2.70563 16.4447 2.89109 16.5346 3.10808C16.6245 3.32506 16.648 3.56383 16.6022 3.79418C16.5564 4.02454 16.4433 4.23613 16.2772 4.4022C16.1111 4.56828 15.8995 4.68138 15.6692 4.7272C15.4388 4.77302 15.2001 4.7495 14.9831 4.65962C14.7661 4.56974 14.5806 4.41754 14.4501 4.22225C14.3197 4.02697 14.25 3.79738 14.25 3.56251C14.25 3.24757 14.3751 2.94552 14.5978 2.72282C14.8205 2.50012 15.1226 2.37501 15.4375 2.37501ZM2.37501 3.56251C2.37501 3.32765 2.44466 3.09806 2.57514 2.90277C2.70563 2.70749 2.89109 2.55529 3.10808 2.46541C3.32506 2.37553 3.56383 2.35201 3.79418 2.39783C4.02454 2.44365 4.23613 2.55675 4.4022 2.72282C4.56828 2.8889 4.68138 3.10049 4.7272 3.33084C4.77302 3.5612 4.7495 3.79996 4.65962 4.01695C4.56974 4.23394 4.41754 4.4194 4.22225 4.54988C4.02697 4.68037 3.79738 4.75001 3.56251 4.75001C3.24757 4.75001 2.94552 4.6249 2.72282 4.4022C2.50012 4.1795 2.37501 3.87746 2.37501 3.56251ZM3.56251 16.625C3.32765 16.625 3.09806 16.5554 2.90277 16.4249C2.70749 16.2944 2.55529 16.1089 2.46541 15.892C2.37553 15.675 2.35201 15.4362 2.39783 15.2058C2.44365 14.9755 2.55675 14.7639 2.72282 14.5978C2.8889 14.4317 3.10049 14.3187 3.33084 14.2728C3.5612 14.227 3.79996 14.2505 4.01695 14.3404C4.23394 14.4303 4.4194 14.5825 4.54988 14.7778C4.68037 14.9731 4.75001 15.2026 4.75001 15.4375C4.75001 15.7525 4.6249 16.0545 4.4022 16.2772C4.1795 16.4999 3.87746 16.625 3.56251 16.625ZM13.1468 14.8438H5.8532C5.7465 14.4357 5.53307 14.0634 5.23483 13.7652C4.93659 13.467 4.56432 13.2535 4.15626 13.1468V5.8532C4.56432 5.7465 4.93659 5.53307 5.23483 5.23483C5.53307 4.93659 5.7465 4.56432 5.8532 4.15626H13.1468C13.2535 4.56432 13.467 4.93659 13.7652 5.23483C14.0634 5.53307 14.4357 5.7465 14.8438 5.8532V13.1468C14.4354 13.253 14.0629 13.4662 13.7645 13.7645C13.4662 14.0629 13.253 14.4354 13.1468 14.8438ZM15.4375 16.625C15.2026 16.625 14.9731 16.5554 14.7778 16.4249C14.5825 16.2944 14.4303 16.1089 14.3404 15.892C14.2505 15.675 14.227 15.4362 14.2728 15.2058C14.3187 14.9755 14.4317 14.7639 14.5978 14.5978C14.7639 14.4317 14.9755 14.3187 15.2058 14.2728C15.4362 14.227 15.675 14.2505 15.892 14.3404C16.1089 14.4303 16.2944 14.5825 16.4249 14.7778C16.5554 14.9731 16.625 15.2026 16.625 15.4375C16.6245 15.7523 16.4993 16.0541 16.2767 16.2767C16.0541 16.4993 15.7523 16.6245 15.4375 16.625Z" fill="#4BA664"/>
</svg>
