<svg width="21" height="21" viewBox="0 0 21 21" fill="none" xmlns="http://www.w3.org/2000/svg">
<path d="M19.6875 17.0625H19.0312V7.21875C19.0312 7.0447 18.9621 6.87778 18.839 6.75471C18.716 6.63164 18.549 6.5625 18.375 6.5625H13.125C12.951 6.5625 12.784 6.63164 12.661 6.75471C12.5379 6.87778 12.4688 7.0447 12.4688 7.21875V10.5H8.53125V3.28125C8.53125 3.1072 8.46211 2.94028 8.33904 2.81721C8.21597 2.69414 8.04905 2.625 7.875 2.625H2.625C2.45095 2.625 2.28403 2.69414 2.16096 2.81721C2.03789 2.94028 1.96875 3.1072 1.96875 3.28125V17.0625H1.3125C1.13845 17.0625 0.971532 17.1316 0.848461 17.2547C0.72539 17.3778 0.65625 17.5447 0.65625 17.7188C0.65625 17.8928 0.72539 18.0597 0.848461 18.1828C0.971532 18.3059 1.13845 18.375 1.3125 18.375H19.6875C19.8615 18.375 20.0285 18.3059 20.1515 18.1828C20.2746 18.0597 20.3438 17.8928 20.3438 17.7188C20.3438 17.5447 20.2746 17.3778 20.1515 17.2547C20.0285 17.1316 19.8615 17.0625 19.6875 17.0625ZM13.7812 7.875H17.7188V17.0625H13.7812V7.875ZM12.4688 11.8125V17.0625H8.53125V11.8125H12.4688ZM3.28125 3.9375H7.21875V17.0625H3.28125V3.9375ZM5.90625 5.90625V7.21875C5.90625 7.3928 5.83711 7.55972 5.71404 7.68279C5.59097 7.80586 5.42405 7.875 5.25 7.875C5.07595 7.875 4.90903 7.80586 4.78596 7.68279C4.66289 7.55972 4.59375 7.3928 4.59375 7.21875V5.90625C4.59375 5.7322 4.66289 5.56528 4.78596 5.44221C4.90903 5.31914 5.07595 5.25 5.25 5.25C5.42405 5.25 5.59097 5.31914 5.71404 5.44221C5.83711 5.56528 5.90625 5.7322 5.90625 5.90625ZM5.90625 9.84375V11.1562C5.90625 11.3303 5.83711 11.4972 5.71404 11.6203C5.59097 11.7434 5.42405 11.8125 5.25 11.8125C5.07595 11.8125 4.90903 11.7434 4.78596 11.6203C4.66289 11.4972 4.59375 11.3303 4.59375 11.1562V9.84375C4.59375 9.6697 4.66289 9.50278 4.78596 9.37971C4.90903 9.25664 5.07595 9.1875 5.25 9.1875C5.42405 9.1875 5.59097 9.25664 5.71404 9.37971C5.83711 9.50278 5.90625 9.6697 5.90625 9.84375ZM5.90625 13.7812V15.0938C5.90625 15.2678 5.83711 15.4347 5.71404 15.5578C5.59097 15.6809 5.42405 15.75 5.25 15.75C5.07595 15.75 4.90903 15.6809 4.78596 15.5578C4.66289 15.4347 4.59375 15.2678 4.59375 15.0938V13.7812C4.59375 13.6072 4.66289 13.4403 4.78596 13.3172C4.90903 13.1941 5.07595 13.125 5.25 13.125C5.42405 13.125 5.59097 13.1941 5.71404 13.3172C5.83711 13.4403 5.90625 13.6072 5.90625 13.7812ZM9.84375 15.0938V13.7812C9.84375 13.6072 9.91289 13.4403 10.036 13.3172C10.159 13.1941 10.326 13.125 10.5 13.125C10.674 13.125 10.841 13.1941 10.964 13.3172C11.0871 13.4403 11.1562 13.6072 11.1562 13.7812V15.0938C11.1562 15.2678 11.0871 15.4347 10.964 15.5578C10.841 15.6809 10.674 15.75 10.5 15.75C10.326 15.75 10.159 15.6809 10.036 15.5578C9.91289 15.4347 9.84375 15.2678 9.84375 15.0938ZM15.0938 15.0938V13.7812C15.0938 13.6072 15.1629 13.4403 15.286 13.3172C15.409 13.1941 15.576 13.125 15.75 13.125C15.924 13.125 16.091 13.1941 16.214 13.3172C16.3371 13.4403 16.4062 13.6072 16.4062 13.7812V15.0938C16.4062 15.2678 16.3371 15.4347 16.214 15.5578C16.091 15.6809 15.924 15.75 15.75 15.75C15.576 15.75 15.409 15.6809 15.286 15.5578C15.1629 15.4347 15.0938 15.2678 15.0938 15.0938ZM15.0938 11.1562V9.84375C15.0938 9.6697 15.1629 9.50278 15.286 9.37971C15.409 9.25664 15.576 9.1875 15.75 9.1875C15.924 9.1875 16.091 9.25664 16.214 9.37971C16.3371 9.50278 16.4062 9.6697 16.4062 9.84375V11.1562C16.4062 11.3303 16.3371 11.4972 16.214 11.6203C16.091 11.7434 15.924 11.8125 15.75 11.8125C15.576 11.8125 15.409 11.7434 15.286 11.6203C15.1629 11.4972 15.0938 11.3303 15.0938 11.1562Z" fill="#4BA664"/>
</svg>
