<svg width="13" height="14" viewBox="0 0 13 14" fill="none" xmlns="http://www.w3.org/2000/svg">
<g clip-path="url(#clip0_1_4452)">
<path d="M11.6458 2.33334H10.4722V3.11112H11.5555V11.6667H1.44442V3.11112H2.52776V2.33334H1.35414C1.26973 2.33486 1.18642 2.35428 1.10897 2.39047C1.03153 2.42667 0.961461 2.47895 0.902778 2.54431C0.844094 2.60968 0.797942 2.68685 0.766958 2.77143C0.735974 2.856 0.720765 2.94633 0.7222 3.03723V11.7406C0.720765 11.8315 0.735974 11.9218 0.766958 12.0064C0.797942 12.0909 0.844094 12.1681 0.902778 12.2335C0.961461 12.2989 1.03153 12.3511 1.10897 12.3873C1.18642 12.4235 1.26973 12.4429 1.35414 12.4445H11.6458C11.7302 12.4429 11.8135 12.4235 11.891 12.3873C11.9684 12.3511 12.0385 12.2989 12.0972 12.2335C12.1559 12.1681 12.202 12.0909 12.233 12.0064C12.264 11.9218 12.2792 11.8315 12.2778 11.7406V3.03723C12.2792 2.94633 12.264 2.856 12.233 2.77143C12.202 2.68685 12.1559 2.60968 12.0972 2.54431C12.0385 2.47895 11.9684 2.42667 11.891 2.39047C11.8135 2.35428 11.7302 2.33486 11.6458 2.33334Z" fill="#6B6464"/>
<path d="M2.88892 5.44446H3.61114V6.22224H2.88892V5.44446Z" fill="#6B6464"/>
<path d="M5.05554 5.44446H5.77776V6.22224H5.05554V5.44446Z" fill="#6B6464"/>
<path d="M7.22223 5.44446H7.94445V6.22224H7.22223V5.44446Z" fill="#6B6464"/>
<path d="M9.38892 5.44446H10.1111V6.22224H9.38892V5.44446Z" fill="#6B6464"/>
<path d="M2.88892 7.38889H3.61114V8.16666H2.88892V7.38889Z" fill="#6B6464"/>
<path d="M5.05554 7.38889H5.77776V8.16666H5.05554V7.38889Z" fill="#6B6464"/>
<path d="M7.22223 7.38889H7.94445V8.16666H7.22223V7.38889Z" fill="#6B6464"/>
<path d="M9.38892 7.38889H10.1111V8.16666H9.38892V7.38889Z" fill="#6B6464"/>
<path d="M2.88892 9.33334H3.61114V10.1111H2.88892V9.33334Z" fill="#6B6464"/>
<path d="M5.05554 9.33334H5.77776V10.1111H5.05554V9.33334Z" fill="#6B6464"/>
<path d="M7.22223 9.33334H7.94445V10.1111H7.22223V9.33334Z" fill="#6B6464"/>
<path d="M9.38892 9.33334H10.1111V10.1111H9.38892V9.33334Z" fill="#6B6464"/>
<path d="M3.61111 3.88888C3.70688 3.88888 3.79873 3.84791 3.86646 3.77498C3.93418 3.70205 3.97222 3.60313 3.97222 3.49999V1.16666C3.97222 1.06352 3.93418 0.964605 3.86646 0.891674C3.79873 0.818743 3.70688 0.777771 3.61111 0.777771C3.51534 0.777771 3.42349 0.818743 3.35577 0.891674C3.28805 0.964605 3.25 1.06352 3.25 1.16666V3.49999C3.25 3.60313 3.28805 3.70205 3.35577 3.77498C3.42349 3.84791 3.51534 3.88888 3.61111 3.88888Z" fill="#6B6464"/>
<path d="M9.38888 3.88888C9.48465 3.88888 9.57651 3.84791 9.64423 3.77498C9.71195 3.70205 9.74999 3.60313 9.74999 3.49999V1.16666C9.74999 1.06352 9.71195 0.964605 9.64423 0.891674C9.57651 0.818743 9.48465 0.777771 9.38888 0.777771C9.29311 0.777771 9.20126 0.818743 9.13354 0.891674C9.06582 0.964605 9.02777 1.06352 9.02777 1.16666V3.49999C9.02777 3.60313 9.06582 3.70205 9.13354 3.77498C9.20126 3.84791 9.29311 3.88888 9.38888 3.88888Z" fill="#6B6464"/>
<path d="M4.69446 2.33334H8.30557V3.11112H4.69446V2.33334Z" fill="#6B6464"/>
</g>
<defs>
<clipPath id="clip0_1_4452">
<rect width="13" height="14" fill="white"/>
</clipPath>
</defs>
</svg>
