<svg width="24" height="24" viewBox="0 0 24 24" fill="none" xmlns="http://www.w3.org/2000/svg">
<path d="M9 18H15C15.2833 18 15.521 17.904 15.713 17.712C15.905 17.52 16.0007 17.2827 16 17C15.9993 16.7173 15.9033 16.48 15.712 16.288C15.5207 16.096 15.2833 16 15 16H9C8.71667 16 8.47933 16.096 8.288 16.288C8.09667 16.48 8.00067 16.7173 8 17C7.99933 17.2827 8.09533 17.5203 8.288 17.713C8.48067 17.9057 8.718 18.0013 9 18ZM9 14H15C15.2833 14 15.521 13.904 15.713 13.712C15.905 13.52 16.0007 13.2827 16 13C15.9993 12.7173 15.9033 12.48 15.712 12.288C15.5207 12.096 15.2833 12 15 12H9C8.71667 12 8.47933 12.096 8.288 12.288C8.09667 12.48 8.00067 12.7173 8 13C7.99933 13.2827 8.09533 13.5203 8.288 13.713C8.48067 13.9057 8.718 14.0013 9 14ZM6 22C5.45 22 4.97933 21.8043 4.588 21.413C4.19667 21.0217 4.00067 20.5507 4 20V4C4 3.45 4.196 2.97933 4.588 2.588C4.98 2.19667 5.45067 2.00067 6 2H13.175C13.4417 2 13.696 2.05 13.938 2.15C14.18 2.25 14.3923 2.39167 14.575 2.575L19.425 7.425C19.6083 7.60833 19.75 7.821 19.85 8.063C19.95 8.305 20 8.559 20 8.825V20C20 20.55 19.8043 21.021 19.413 21.413C19.0217 21.805 18.5507 22.0007 18 22H6ZM13 8V4H6V20H18V9H14C13.7167 9 13.4793 8.904 13.288 8.712C13.0967 8.52 13.0007 8.28267 13 8Z" fill="#4BA664"/>
</svg>
