<svg width="9" height="7" viewBox="0 0 9 7" fill="none" xmlns="http://www.w3.org/2000/svg">
<path d="M8.329 3.26688C8.443 3.42663 8.5 3.50688 8.5 3.625C8.5 3.7435 8.443 3.82337 8.329 3.98312C7.81675 4.70162 6.50838 6.25 4.75 6.25C2.99125 6.25 1.68325 4.70125 1.171 3.98312C1.057 3.82337 1 3.74312 1 3.625C1 3.5065 1.057 3.42663 1.171 3.26688C1.68325 2.54838 2.99162 1 4.75 1C6.50875 1 7.81675 2.54875 8.329 3.26688Z" stroke="#4BA664" stroke-linecap="round" stroke-linejoin="round"/>
<path d="M5.875 3.625C5.875 3.32663 5.75647 3.04048 5.5455 2.8295C5.33452 2.61853 5.04837 2.5 4.75 2.5C4.45163 2.5 4.16548 2.61853 3.9545 2.8295C3.74353 3.04048 3.625 3.32663 3.625 3.625C3.625 3.92337 3.74353 4.20952 3.9545 4.4205C4.16548 4.63147 4.45163 4.75 4.75 4.75C5.04837 4.75 5.33452 4.63147 5.5455 4.4205C5.75647 4.20952 5.875 3.92337 5.875 3.625Z" stroke="#4BA664" stroke-linecap="round" stroke-linejoin="round"/>
</svg>
