<svg width="31" height="29" viewBox="0 0 31 29" fill="none" xmlns="http://www.w3.org/2000/svg">
<rect width="30.8125" height="29" rx="8" fill="black" fill-opacity="0.51"/>
<path d="M19.2969 6.4375C17.5223 6.4375 15.9685 7.20062 15 8.49055C14.0315 7.20062 12.4777 6.4375 10.7031 6.4375C9.29051 6.43909 7.9362 7.00096 6.93733 7.99983C5.93846 8.9987 5.37659 10.353 5.375 11.7656C5.375 17.7812 14.2945 22.6505 14.6743 22.8516C14.7744 22.9054 14.8863 22.9336 15 22.9336C15.1137 22.9336 15.2256 22.9054 15.3257 22.8516C15.7055 22.6505 24.625 17.7812 24.625 11.7656C24.6234 10.353 24.0615 8.9987 23.0627 7.99983C22.0638 7.00096 20.7095 6.43909 19.2969 6.4375ZM15 21.4594C13.4308 20.545 6.75 16.3796 6.75 11.7656C6.75136 10.7176 7.16829 9.71291 7.90935 8.97185C8.65041 8.23079 9.65511 7.81386 10.7031 7.8125C12.3746 7.8125 13.778 8.70281 14.3641 10.1328C14.4159 10.2589 14.504 10.3668 14.6172 10.4427C14.7304 10.5186 14.8637 10.5591 15 10.5591C15.1363 10.5591 15.2696 10.5186 15.3828 10.4427C15.496 10.3668 15.5841 10.2589 15.6359 10.1328C16.222 8.70023 17.6254 7.8125 19.2969 7.8125C20.3449 7.81386 21.3496 8.23079 22.0907 8.97185C22.8317 9.71291 23.2486 10.7176 23.25 11.7656C23.25 16.3727 16.5675 20.5441 15 21.4594Z" fill="white"/>
</svg>
