<svg width="32" height="32" viewBox="0 0 32 32" fill="none" xmlns="http://www.w3.org/2000/svg">
<path d="M6.13129 13.5783V15.493M25.8793 14.433V16.3477M20.2373 15.7237V20.575M17.416 17.433V23.4403M14.5946 15.0643V20.7097M11.7733 13.5783V18.263M8.95263 11.419V15.915M23.058 14.433V18.3903M23.376 28.3337H8.62396C7.30919 28.3337 6.04828 27.8114 5.1186 26.8817C4.18892 25.952 3.66663 24.6911 3.66663 23.3763V8.62433C3.66663 7.30956 4.18892 6.04864 5.1186 5.11896C6.04828 4.18928 7.30919 3.66699 8.62396 3.66699H23.376C24.6907 3.66699 25.9516 4.18928 26.8813 5.11896C27.811 6.04864 28.3333 7.30956 28.3333 8.62433V23.3763C28.3333 24.6911 27.811 25.952 26.8813 26.8817C25.9516 27.8114 24.6907 28.3337 23.376 28.3337Z" stroke="#4BA664" stroke-linecap="round" stroke-linejoin="round"/>
<path d="M17.416 23.9971C17.6922 23.9971 17.916 23.7732 17.916 23.4971C17.916 23.2209 17.6922 22.9971 17.416 22.9971C17.1399 22.9971 16.916 23.2209 16.916 23.4971C16.916 23.7732 17.1399 23.9971 17.416 23.9971Z" fill="#4BA664"/>
</svg>
