<svg width="32" height="32" viewBox="0 0 32 32" fill="none" xmlns="http://www.w3.org/2000/svg">
<path d="M4 25.3337V6.66699H28V25.3337H4ZM5.33333 24.0003H26.6667V8.00033H5.33333V24.0003ZM11.3333 22.0003H12.6667V20.667H14.3067C14.5982 20.667 14.8422 20.5688 15.0387 20.3723C15.2351 20.1759 15.3333 19.9323 15.3333 19.6417V16.359C15.3333 16.0683 15.2351 15.8248 15.0387 15.6283C14.8422 15.4319 14.5987 15.3337 14.308 15.3337H10V12.667H15.3333V11.3337H12.6667V10.0003H11.3333V11.3337H9.69333C9.40178 11.3337 9.15778 11.4319 8.96133 11.6283C8.76489 11.8248 8.66667 12.0688 8.66667 12.3603V15.643C8.66667 15.9337 8.76489 16.1772 8.96133 16.3737C9.15778 16.5701 9.40133 16.6683 9.692 16.6683H14V19.335H8.66667V20.6683H11.3333V22.0003ZM21.3333 21.307L23.384 19.2563H19.2827L21.3333 21.307ZM19.2827 13.0777H23.384L21.3333 11.0257L19.2827 13.0777Z" fill="#4BA664"/>
</svg>
