<svg width="32" height="32" viewBox="0 0 32 32" fill="none" xmlns="http://www.w3.org/2000/svg">
<path d="M14.6667 17.3333V12C14.6667 11.2667 14.0667 10.6667 13.3334 10.6667H8.00004V8H13.3334C14.0667 8 14.6667 7.4 14.6667 6.66667C14.6667 5.93333 14.0667 5.33333 13.3334 5.33333H11.3334C11.3334 4.6 10.7334 4 10 4C9.26671 4 8.66671 4.6 8.66671 5.33333H6.66671C5.93337 5.33333 5.33337 5.93333 5.33337 6.66667V12C5.33337 12.7333 5.93337 13.3333 6.66671 13.3333H12V16H6.66671C5.93337 16 5.33337 16.6 5.33337 17.3333C5.33337 18.0667 5.93337 18.6667 6.66671 18.6667H8.66671C8.66671 19.4 9.26671 20 10 20C10.7334 20 11.3334 19.4 11.3334 18.6667H13.3334C14.0667 18.6667 14.6667 18.0667 14.6667 17.3333ZM25.1734 17.6267L18.5734 24.2267L15.7467 21.4C15.4974 21.1507 15.1593 21.0106 14.8067 21.0106C14.4541 21.0106 14.116 21.1507 13.8667 21.4C13.6174 21.6493 13.4773 21.9874 13.4773 22.34C13.4773 22.6926 13.6174 23.0307 13.8667 23.28L17.64 27.0533C18.16 27.5733 19 27.5733 19.52 27.0533L27.0667 19.5067C27.1903 19.3833 27.2884 19.2368 27.3553 19.0755C27.4222 18.9142 27.4566 18.7413 27.4566 18.5667C27.4566 18.392 27.4222 18.2191 27.3553 18.0578C27.2884 17.8965 27.1903 17.75 27.0667 17.6267C26.5334 17.1067 25.6934 17.1067 25.1734 17.6267Z" fill="#4BA664"/>
</svg>
