<svg width="20" height="20" viewBox="0 0 20 20" fill="none" xmlns="http://www.w3.org/2000/svg">
<g clip-path="url(#clip0_1_5380)">
<path d="M1.66663 5.83334L5.34163 2.15834C5.49667 2.00237 5.68106 1.87862 5.88415 1.79424C6.08725 1.70985 6.30503 1.6665 6.52496 1.66667H13.475C13.6949 1.6665 13.9127 1.70985 14.1158 1.79424C14.3189 1.87862 14.5032 2.00237 14.6583 2.15834L18.3333 5.83334M3.33329 10V16.6667C3.33329 17.1087 3.50889 17.5326 3.82145 17.8452C4.13401 18.1577 4.55793 18.3333 4.99996 18.3333H15C15.442 18.3333 15.8659 18.1577 16.1785 17.8452C16.491 17.5326 16.6666 17.1087 16.6666 16.6667V10" stroke="#4BA664" stroke-width="2" stroke-linecap="round" stroke-linejoin="round"/>
<path d="M12.5 18.3333V15C12.5 14.558 12.3244 14.1341 12.0118 13.8215C11.6992 13.5089 11.2753 13.3333 10.8333 13.3333H9.16663C8.7246 13.3333 8.30068 13.5089 7.98812 13.8215C7.67555 14.1341 7.49996 14.558 7.49996 15V18.3333M1.66663 5.83334H18.3333V8.33334C18.3333 8.77537 18.1577 9.19929 17.8451 9.51185C17.5326 9.82442 17.1087 10 16.6666 10C16.1797 9.97321 15.7147 9.78896 15.3416 9.47501C15.2422 9.40316 15.1226 9.36448 15 9.36448C14.8773 9.36448 14.7577 9.40316 14.6583 9.47501C14.2852 9.78896 13.8202 9.97321 13.3333 10C12.8464 9.97321 12.3814 9.78896 12.0083 9.47501C11.9089 9.40316 11.7893 9.36448 11.6666 9.36448C11.5439 9.36448 11.4244 9.40316 11.325 9.47501C10.9519 9.78896 10.4868 9.97321 9.99996 10C9.51307 9.97321 9.04807 9.78896 8.67496 9.47501C8.57553 9.40316 8.45597 9.36448 8.33329 9.36448C8.21061 9.36448 8.09106 9.40316 7.99163 9.47501C7.61852 9.78896 7.15351 9.97321 6.66663 10C6.17974 9.97321 5.71473 9.78896 5.34163 9.47501C5.24219 9.40316 5.12264 9.36448 4.99996 9.36448C4.87728 9.36448 4.75773 9.40316 4.65829 9.47501C4.28518 9.78896 3.82018 9.97321 3.33329 10C2.89127 10 2.46734 9.82442 2.15478 9.51185C1.84222 9.19929 1.66663 8.77537 1.66663 8.33334V5.83334Z" stroke="#4BA664" stroke-width="2" stroke-linecap="round" stroke-linejoin="round"/>
</g>
<defs>
<clipPath id="clip0_1_5380">
<rect width="20" height="20" fill="white"/>
</clipPath>
</defs>
</svg>
