<svg width="24" height="23" viewBox="0 0 24 23" fill="none" xmlns="http://www.w3.org/2000/svg">
<path d="M11.9315 17.25L7.64972 11.0687C6.94888 10.2228 6.49755 9.19077 6.3483 8.09276C6.19904 6.99475 6.358 5.87599 6.80667 4.86677C7.25534 3.85755 7.97524 2.9994 8.88254 2.39228C9.78984 1.78516 10.8472 1.45404 11.9315 1.4375C13.4345 1.45268 14.8703 2.07618 15.9245 3.17142C16.9788 4.26667 17.5654 5.74439 17.5561 7.28094C17.5566 8.62136 17.1103 9.92194 16.2905 10.9681L11.9315 17.25ZM11.9315 2.875C10.8008 2.88827 9.72152 3.35971 8.9306 4.18579C8.13967 5.01187 7.70175 6.12506 7.713 7.28094C7.71832 8.33582 8.08953 9.35457 8.76058 10.1559L11.9315 14.7488L15.1867 10.0625C15.8055 9.27291 16.1449 8.29265 16.1499 7.28094C16.1612 6.12506 15.7232 5.01187 14.9323 4.18579C14.1414 3.35971 13.0621 2.88827 11.9315 2.875Z" fill="#4BA664"/>
<path d="M11.9314 7.90625C12.708 7.90625 13.3376 7.26266 13.3376 6.46875C13.3376 5.67484 12.708 5.03125 11.9314 5.03125C11.1548 5.03125 10.5253 5.67484 10.5253 6.46875C10.5253 7.26266 11.1548 7.90625 11.9314 7.90625Z" fill="#4BA664"/>
<path d="M20.3684 8.625H18.9622V10.0625H20.3684V20.125H3.49453V10.0625H4.90068V8.625H3.49453C3.1216 8.625 2.76394 8.77645 2.50023 9.04603C2.23653 9.31562 2.08838 9.68125 2.08838 10.0625V20.125C2.08838 20.5062 2.23653 20.8719 2.50023 21.1415C2.76394 21.411 3.1216 21.5625 3.49453 21.5625H20.3684C20.7413 21.5625 21.099 21.411 21.3627 21.1415C21.6264 20.8719 21.7745 20.5062 21.7745 20.125V10.0625C21.7745 9.68125 21.6264 9.31562 21.3627 9.04603C21.099 8.77645 20.7413 8.625 20.3684 8.625Z" fill="#4BA664"/>
</svg>
