<svg width="31" height="29" viewBox="0 0 31 29" fill="none" xmlns="http://www.w3.org/2000/svg">
<rect width="30.8125" height="29" rx="8" fill="black" fill-opacity="0.51"/>
<path d="M18.8417 21.5C18.2894 21.5 17.8208 21.3069 17.4358 20.9208C17.0514 20.5342 16.8592 20.0647 16.8592 19.5125C16.8592 19.4292 16.8958 19.2189 16.9692 18.8817L10.9717 15.3208C10.7917 15.5286 10.5714 15.6917 10.3108 15.81C10.0503 15.9283 9.77056 15.9875 9.47167 15.9875C8.92389 15.9875 8.45833 15.7925 8.075 15.4025C7.69167 15.0125 7.5 14.545 7.5 14C7.5 13.455 7.69167 12.9875 8.075 12.5975C8.45833 12.2075 8.92389 12.0125 9.47167 12.0125C9.77 12.0125 10.0497 12.0717 10.3108 12.19C10.5719 12.3083 10.7922 12.4717 10.9717 12.68L16.97 9.13417C16.9311 9.02639 16.9031 8.91944 16.8858 8.81333C16.8681 8.70667 16.8592 8.59778 16.8592 8.48667C16.8592 7.935 17.0528 7.46583 17.44 7.07917C17.8272 6.69306 18.2972 6.5 18.85 6.5C19.4028 6.5 19.8717 6.69361 20.2567 7.08083C20.6417 7.46806 20.8339 7.93806 20.8333 8.49083C20.8328 9.04361 20.6397 9.5125 20.2542 9.8975C19.8686 10.2825 19.3992 10.4747 18.8458 10.4742C18.5447 10.4742 18.2669 10.4125 18.0125 10.2892C17.7581 10.1658 17.5414 10 17.3625 9.79167L11.3633 13.3525C11.4022 13.4603 11.4303 13.5675 11.4475 13.6742C11.4653 13.7803 11.4742 13.8889 11.4742 14C11.4742 14.1111 11.4653 14.2197 11.4475 14.3258C11.4297 14.4319 11.4019 14.5392 11.3642 14.6475L17.3625 18.2083C17.5419 18 17.7586 17.8342 18.0125 17.7108C18.2669 17.5875 18.5447 17.5258 18.8458 17.5258C19.3981 17.5258 19.8675 17.7192 20.2542 18.1058C20.6403 18.4936 20.8333 18.9639 20.8333 19.5167C20.8333 20.0694 20.6397 20.5383 20.2525 20.9233C19.8653 21.3083 19.3944 21.5006 18.8417 21.5ZM18.8458 20.6667C19.1731 20.6667 19.4472 20.5561 19.6683 20.335C19.8894 20.1139 20 19.84 20 19.5133C20 19.1867 19.8894 18.9125 19.6683 18.6908C19.4472 18.4692 19.1733 18.3586 18.8467 18.3592C18.52 18.3597 18.2458 18.4703 18.0242 18.6908C17.8025 18.9114 17.6919 19.1853 17.6925 19.5125C17.6931 19.8397 17.8036 20.1139 18.0242 20.335C18.2447 20.5561 18.5181 20.6667 18.8458 20.6667ZM9.47167 15.1533C9.80278 15.1533 10.0806 15.0428 10.305 14.8217C10.5289 14.6006 10.6408 14.3267 10.6408 14C10.6408 13.6733 10.5289 13.3994 10.305 13.1783C10.0811 12.9572 9.80333 12.8467 9.47167 12.8467C9.14889 12.8467 8.87861 12.9572 8.66083 13.1783C8.44306 13.3994 8.33389 13.6733 8.33333 14C8.33278 14.3267 8.44194 14.6008 8.66083 14.8225C8.87972 15.0442 9.15 15.1544 9.47167 15.1533ZM18.8467 9.64083C19.1733 9.64083 19.4472 9.53028 19.6683 9.30917C19.8894 9.08806 20 8.81389 20 8.48667C20 8.15944 19.8894 7.88556 19.6683 7.665C19.4472 7.44444 19.1733 7.33389 18.8467 7.33333C18.52 7.33278 18.2458 7.44333 18.0242 7.665C17.8025 7.88667 17.6919 8.16083 17.6925 8.4875C17.6931 8.81417 17.8036 9.08806 18.0242 9.30917C18.2447 9.53028 18.5189 9.64083 18.8467 9.64083Z" fill="white"/>
</svg>
