<svg width="16" height="17" viewBox="0 0 16 17" fill="none" xmlns="http://www.w3.org/2000/svg">
<path d="M5.921 12.3999L1.353 9.11994C1.24565 9.05616 1.15673 8.96557 1.09498 8.85704C1.03322 8.74852 1.00075 8.6258 1.00075 8.50094C1.00075 8.37608 1.03322 8.25336 1.09498 8.14483C1.15673 8.03631 1.24565 7.94572 1.353 7.88194L5.921 4.59994C6.02989 4.53589 6.15379 4.50179 6.28012 4.50111C6.40645 4.50042 6.53071 4.53318 6.64029 4.59604C6.74987 4.6589 6.84087 4.74964 6.90404 4.85904C6.96722 4.96844 7.00032 5.09261 7 5.21894V6.49994C8.5 6.49994 13 6.49994 14 14.4999C11.5 9.99994 7 10.4999 7 10.4999V11.7809C7 12.3409 6.394 12.6789 5.921 12.4009V12.3999Z" fill="black" fill-opacity="0.5"/>
</svg>
