<svg width="13" height="13" viewBox="0 0 13 13" fill="none" xmlns="http://www.w3.org/2000/svg">
<path d="M6.50001 7.44796C7.02353 7.44796 7.44793 7.02356 7.44793 6.50004C7.44793 5.97652 7.02353 5.55212 6.50001 5.55212C5.97649 5.55212 5.55209 5.97652 5.55209 6.50004C5.55209 7.02356 5.97649 7.44796 6.50001 7.44796Z" fill="black"/>
<path d="M6.50001 3.65621C7.02353 3.65621 7.44793 3.23181 7.44793 2.70829C7.44793 2.18477 7.02353 1.76038 6.50001 1.76038C5.97649 1.76038 5.55209 2.18477 5.55209 2.70829C5.55209 3.23181 5.97649 3.65621 6.50001 3.65621Z" fill="black"/>
<path d="M6.50001 11.2396C7.02353 11.2396 7.44793 10.8152 7.44793 10.2917C7.44793 9.76815 7.02353 9.34375 6.50001 9.34375C5.97649 9.34375 5.55209 9.76815 5.55209 10.2917C5.55209 10.8152 5.97649 11.2396 6.50001 11.2396Z" fill="black"/>
</svg>
