<svg width="31" height="29" viewBox="0 0 31 29" fill="none" xmlns="http://www.w3.org/2000/svg">
<rect width="30.8125" height="29" rx="8" fill="black" fill-opacity="0.51"/>
<g clip-path="url(#clip0_1_4333)">
<path d="M15.5 4.91667C20.7929 4.91667 25.0834 9.20713 25.0834 14.5C25.0834 19.7929 20.7929 24.0833 15.5 24.0833C10.2071 24.0833 5.91669 19.7929 5.91669 14.5C5.91669 9.20713 10.2071 4.91667 15.5 4.91667ZM15.5 6.83333C13.4667 6.83333 11.5166 7.64107 10.0789 9.07885C8.64109 10.5166 7.83335 12.4667 7.83335 14.5C7.83335 16.5333 8.64109 18.4834 10.0789 19.9212C11.5166 21.3589 13.4667 22.1667 15.5 22.1667C17.5333 22.1667 19.4834 21.3589 20.9212 19.9212C22.359 18.4834 23.1667 16.5333 23.1667 14.5C23.1667 12.4667 22.359 10.5166 20.9212 9.07885C19.4834 7.64107 17.5333 6.83333 15.5 6.83333ZM15.5 17.375C15.8813 17.375 16.2469 17.5264 16.5165 17.796C16.7861 18.0656 16.9375 18.4313 16.9375 18.8125C16.9375 19.1937 16.7861 19.5594 16.5165 19.829C16.2469 20.0985 15.8813 20.25 15.5 20.25C15.1188 20.25 14.7531 20.0985 14.4836 19.829C14.214 19.5594 14.0625 19.1937 14.0625 18.8125C14.0625 18.4313 14.214 18.0656 14.4836 17.796C14.7531 17.5264 15.1188 17.375 15.5 17.375ZM15.5 13.0625C15.8813 13.0625 16.2469 13.2139 16.5165 13.4835C16.7861 13.7531 16.9375 14.1188 16.9375 14.5C16.9375 14.8812 16.7861 15.2469 16.5165 15.5165C16.2469 15.786 15.8813 15.9375 15.5 15.9375C15.1188 15.9375 14.7531 15.786 14.4836 15.5165C14.214 15.2469 14.0625 14.8812 14.0625 14.5C14.0625 14.1188 14.214 13.7531 14.4836 13.4835C14.7531 13.2139 15.1188 13.0625 15.5 13.0625ZM15.5 8.75C15.8813 8.75 16.2469 8.90145 16.5165 9.17103C16.7861 9.44062 16.9375 9.80625 16.9375 10.1875C16.9375 10.5687 16.7861 10.9344 16.5165 11.204C16.2469 11.4735 15.8813 11.625 15.5 11.625C15.1188 11.625 14.7531 11.4735 14.4836 11.204C14.214 10.9344 14.0625 10.5687 14.0625 10.1875C14.0625 9.80625 14.214 9.44062 14.4836 9.17103C14.7531 8.90145 15.1188 8.75 15.5 8.75Z" fill="white"/>
</g>
<defs>
<clipPath id="clip0_1_4333">
<rect width="23" height="23" fill="white" transform="translate(4 3)"/>
</clipPath>
</defs>
</svg>
