<svg width="22" height="22" viewBox="0 0 22 22" fill="none" xmlns="http://www.w3.org/2000/svg">
<path d="M7.4351 14.565C7.34917 14.4791 7.3009 14.3625 7.3009 14.241C7.3009 14.1194 7.34917 14.0029 7.4351 13.9169L10.3519 11.0001L7.4351 8.08326C7.35161 7.99682 7.30541 7.88104 7.30645 7.76087C7.3075 7.6407 7.3557 7.52574 7.44068 7.44076C7.52566 7.35578 7.64061 7.30758 7.76079 7.30654C7.88096 7.30549 7.99674 7.35169 8.08318 7.43518L11 10.352L13.9168 7.43518C14.0033 7.35169 14.1191 7.30549 14.2392 7.30654C14.3594 7.30758 14.4744 7.35578 14.5593 7.44076C14.6443 7.52574 14.6925 7.6407 14.6936 7.76087C14.6946 7.88104 14.6484 7.99682 14.5649 8.08326L11.6481 11.0001L14.5649 13.9169C14.6484 14.0034 14.6946 14.1191 14.6936 14.2393C14.6925 14.3595 14.6443 14.4744 14.5593 14.5594C14.4744 14.6444 14.3594 14.6926 14.2392 14.6937C14.1191 14.6947 14.0033 14.6485 13.9168 14.565L11 11.6482L8.08318 14.565C7.99723 14.6509 7.88067 14.6992 7.75914 14.6992C7.63761 14.6992 7.52105 14.6509 7.4351 14.565Z" fill="#DE0101"/>
<path fill-rule="evenodd" clip-rule="evenodd" d="M11 20.1667C16.0628 20.1667 20.1667 16.0628 20.1667 11C20.1667 5.93729 16.0628 1.83337 11 1.83337C5.93726 1.83337 1.83334 5.93729 1.83334 11C1.83334 16.0628 5.93726 20.1667 11 20.1667ZM11 19.25C15.5563 19.25 19.25 15.5563 19.25 11C19.25 6.44375 15.5563 2.75004 11 2.75004C6.44372 2.75004 2.75001 6.44375 2.75001 11C2.75001 15.5563 6.44372 19.25 11 19.25Z" fill="#DE0101"/>
</svg>
