<svg width="34" height="34" viewBox="0 0 34 34" fill="none" xmlns="http://www.w3.org/2000/svg">
<path d="M17 33.5C13.9677 33.5 11.5 31.0323 11.5 28L11.5972 22.4028L6.033 22.5C2.96767 22.5 0.5 20.0323 0.5 17C0.5 13.9677 2.96767 11.5 6 11.5L11.5972 11.401L11.5 6.033C11.5 2.96767 13.9677 0.5 17 0.5C20.0323 0.5 22.5 2.96767 22.5 6L22.6008 11.401L28.033 11.5C31.0323 11.5 33.5 13.9677 33.5 17C33.5 20.0323 31.0323 22.5 28 22.5L22.6008 22.4028L22.5 28.033C22.5 31.0323 20.0323 33.5 17 33.5ZM15.1667 18.8333V28.033C15.1667 29.0102 15.9898 29.8333 17 29.8333C18.0102 29.8333 18.8333 29.0102 18.8333 28V18.8333H28.033C29.0102 18.8333 29.8333 18.0102 29.8333 17C29.8333 15.9898 29.0102 15.1667 28 15.1667H18.8333V6C18.8333 4.95683 18.0102 4.16667 17 4.16667C15.9898 4.16667 15.1667 4.98983 15.1667 6V15.1667H6C4.95683 15.1667 4.16667 15.9898 4.16667 17C4.16667 18.0102 4.98983 18.8333 6 18.8333H15.1667Z" fill="white"/>
</svg>
