<svg width="16" height="14" viewBox="0 0 16 14" fill="none" xmlns="http://www.w3.org/2000/svg">
<path d="M11.4192 0.14389C10.0012 0.14389 8.75966 0.753664 7.98577 1.78437C7.21187 0.753664 5.97035 0.14389 4.55235 0.14389C3.4236 0.145163 2.34145 0.594121 1.5433 1.39227C0.745152 2.19042 0.296194 3.27257 0.294922 4.40132C0.294922 9.2081 7.422 13.0988 7.72551 13.2595C7.80551 13.3026 7.89493 13.3251 7.98577 13.3251C8.0766 13.3251 8.16602 13.3026 8.24602 13.2595C8.54953 13.0988 15.6766 9.2081 15.6766 4.40132C15.6753 3.27257 15.2264 2.19042 14.4282 1.39227C13.6301 0.594121 12.5479 0.145163 11.4192 0.14389ZM7.98577 12.1471C6.73188 11.4165 1.39361 8.08812 1.39361 4.40132C1.3947 3.56391 1.72785 2.7611 2.31999 2.16896C2.91213 1.57682 3.71494 1.24367 4.55235 1.24258C5.88795 1.24258 7.0093 1.95399 7.47762 3.09662C7.51901 3.19738 7.58942 3.28356 7.67989 3.34421C7.77037 3.40486 7.87684 3.43724 7.98577 3.43724C8.09469 3.43724 8.20116 3.40486 8.29164 3.34421C8.38212 3.28356 8.45252 3.19738 8.49391 3.09662C8.96223 1.95193 10.0836 1.24258 11.4192 1.24258C12.2566 1.24367 13.0594 1.57682 13.6515 2.16896C14.2437 2.7611 14.5768 3.56391 14.5779 4.40132C14.5779 8.08263 9.23827 11.4158 7.98577 12.1471Z" fill="white"/>
</svg>
