<svg width="29" height="29" viewBox="0 0 29 29" fill="none" xmlns="http://www.w3.org/2000/svg">
<path d="M15.3543 2.77071L26.2293 13.6457C26.9905 14.407 26.4516 15.7083 25.375 15.7083H24.1667V22.9583C24.1667 23.9198 23.7847 24.8418 23.1049 25.5216C22.4251 26.2014 21.5031 26.5833 20.5417 26.5833H19.3333V18.125C19.3334 17.2004 18.9801 16.3107 18.3458 15.6379C17.7115 14.9652 16.844 14.5603 15.921 14.506L15.7083 14.5H13.2917C12.3303 14.5 11.4082 14.8819 10.7284 15.5617C10.0486 16.2416 9.66666 17.1636 9.66666 18.125V26.5833H8.45833C7.49692 26.5833 6.57489 26.2014 5.89507 25.5216C5.21525 24.8418 4.83333 23.9198 4.83333 22.9583V15.7083H3.625C2.54958 15.7083 2.00945 14.407 2.7707 13.6457L13.6457 2.77071C13.8723 2.54419 14.1796 2.41693 14.5 2.41693C14.8204 2.41693 15.1277 2.54419 15.3543 2.77071ZM15.7083 16.9167C16.0288 16.9167 16.3361 17.044 16.5627 17.2706C16.7894 17.4972 16.9167 17.8045 16.9167 18.125V26.5833H12.0833V18.125C12.0834 17.829 12.192 17.5434 12.3887 17.3222C12.5854 17.1011 12.8564 16.9598 13.1503 16.9251L13.2917 16.9167H15.7083Z" fill="#4BA664"/>
</svg>
