<svg width="21" height="19" viewBox="0 0 21 19" fill="none" xmlns="http://www.w3.org/2000/svg">
<path d="M6.125 4.74998C6.125 4.95994 6.03281 5.16131 5.86872 5.30977C5.70462 5.45824 5.48206 5.54165 5.25 5.54165C5.01794 5.54165 4.79538 5.45824 4.63128 5.30977C4.46719 5.16131 4.375 4.95994 4.375 4.74998C4.375 4.54002 4.46719 4.33865 4.63128 4.19019C4.79538 4.04172 5.01794 3.95831 5.25 3.95831C5.48206 3.95831 5.70462 4.04172 5.86872 4.19019C6.03281 4.33865 6.125 4.54002 6.125 4.74998ZM8.75 4.74998C8.75 4.95994 8.65781 5.16131 8.49372 5.30977C8.32962 5.45824 8.10706 5.54165 7.875 5.54165C7.64294 5.54165 7.42038 5.45824 7.25628 5.30977C7.09219 5.16131 7 4.95994 7 4.74998C7 4.54002 7.09219 4.33865 7.25628 4.19019C7.42038 4.04172 7.64294 3.95831 7.875 3.95831C8.10706 3.95831 8.32962 4.04172 8.49372 4.19019C8.65781 4.33865 8.75 4.54002 8.75 4.74998ZM10.5 5.54165C10.7321 5.54165 10.9546 5.45824 11.1187 5.30977C11.2828 5.16131 11.375 4.95994 11.375 4.74998C11.375 4.54002 11.2828 4.33865 11.1187 4.19019C10.9546 4.04172 10.7321 3.95831 10.5 3.95831C10.2679 3.95831 10.0454 4.04172 9.88128 4.19019C9.71719 4.33865 9.625 4.54002 9.625 4.74998C9.625 4.95994 9.71719 5.16131 9.88128 5.30977C10.0454 5.45824 10.2679 5.54165 10.5 5.54165Z" fill="white"/>
<path fill-rule="evenodd" clip-rule="evenodd" d="M10.4501 0.989563C8.42975 0.989563 6.84688 0.989563 5.61137 1.13998C4.34788 1.29356 3.35037 1.61498 2.56725 2.32273C1.78413 3.03127 1.42975 3.93377 1.26 5.07773C1.16113 5.73956 1.12175 6.51144 1.10513 7.41077C1.09194 7.47772 1.09076 7.54615 1.10162 7.61344C1.09375 8.1779 1.09375 8.78985 1.09375 9.45485V9.5451C1.09375 11.3731 1.09375 12.8052 1.26 13.923C1.42975 15.0662 1.785 15.9687 2.56725 16.6772C3.35037 17.3858 4.34787 17.7064 5.61225 17.86C6.84688 18.0104 8.42975 18.0104 10.4501 18.0104H10.5499C12.5703 18.0104 14.1531 18.0104 15.3886 17.86C16.6521 17.7064 17.6496 17.385 18.4328 16.6772C19.2159 15.9687 19.5702 15.0662 19.74 13.9222C19.9062 12.8052 19.9062 11.3731 19.9062 9.5451V9.45485C19.9062 8.78985 19.9062 8.1779 19.8975 7.61344C19.9087 7.54619 19.9078 7.47776 19.8949 7.41077C19.8791 6.51144 19.8389 5.73956 19.74 5.07773C19.5702 3.93377 19.215 3.03127 18.4328 2.32273C17.6496 1.61419 16.6521 1.29356 15.3878 1.13998C14.1531 0.989563 12.5703 0.989563 10.5499 0.989563H10.4501ZM2.40625 9.49998C2.40625 9.00281 2.40712 8.54101 2.40887 8.11456H7.21875V16.625C7.21875 16.682 7.22721 16.7366 7.24413 16.7889C6.75696 16.7742 6.27081 16.739 5.78725 16.6836C4.66812 16.5474 3.9935 16.2877 3.49475 15.8373C2.99687 15.386 2.71075 14.7764 2.56025 13.7639C2.408 12.7347 2.40625 11.3826 2.40625 9.49998ZM8.49625 16.8166C9.09737 16.8229 9.7615 16.8229 10.5 16.8229C12.5808 16.8229 14.0752 16.8213 15.2127 16.6836C16.3319 16.5474 17.0065 16.2877 17.5053 15.8373C18.0031 15.386 18.2892 14.7764 18.4397 13.7639C18.592 12.7347 18.5938 11.3826 18.5938 9.49998C18.5938 9.00281 18.5929 8.54101 18.5911 8.11456H8.53125V16.625C8.53054 16.6901 8.51873 16.7547 8.49625 16.8166ZM2.56025 5.23606C2.48475 5.79734 2.44094 6.36174 2.429 6.92706H18.5701C18.5582 6.36174 18.5144 5.79734 18.4389 5.23606C18.2892 4.22352 18.0031 3.61315 17.5044 3.1619C17.0056 2.71144 16.3319 2.45256 15.2127 2.3164C14.0752 2.17865 12.5808 2.17706 10.5 2.17706C8.41925 2.17706 6.92475 2.17865 5.78725 2.3164C4.66812 2.45256 3.9935 2.71223 3.49475 3.16269C2.99687 3.61394 2.71075 4.22352 2.56025 5.23606Z" fill="white"/>
</svg>
