<svg width="233" height="35" viewBox="0 0 233 35" fill="none" xmlns="http://www.w3.org/2000/svg">
<rect x="0.5" y="0.5" width="232" height="34" rx="7.5" stroke="white"/>
<path d="M218.375 26.0303L213.125 20.7803M202.625 16.4053C202.625 17.2096 202.783 18.0061 203.091 18.7492C203.399 19.4923 203.85 20.1675 204.419 20.7363C204.988 21.3051 205.663 21.7562 206.406 22.064C207.149 22.3718 207.946 22.5303 208.75 22.5303C209.554 22.5303 210.351 22.3718 211.094 22.064C211.837 21.7562 212.512 21.3051 213.081 20.7363C213.65 20.1675 214.101 19.4923 214.409 18.7492C214.717 18.0061 214.875 17.2096 214.875 16.4053C214.875 15.6009 214.717 14.8045 214.409 14.0613C214.101 13.3182 213.65 12.643 213.081 12.0742C212.512 11.5055 211.837 11.0543 211.094 10.7465C210.351 10.4387 209.554 10.2803 208.75 10.2803C207.946 10.2803 207.149 10.4387 206.406 10.7465C205.663 11.0543 204.988 11.5055 204.419 12.0742C203.85 12.643 203.399 13.3182 203.091 14.0613C202.783 14.8045 202.625 15.6009 202.625 16.4053Z" stroke="white" stroke-width="2" stroke-linecap="round" stroke-linejoin="round"/>
</svg>
