<svg width="26" height="26" viewBox="0 0 26 26" fill="none" xmlns="http://www.w3.org/2000/svg">
<path fill-rule="evenodd" clip-rule="evenodd" d="M5.46157 16.2357C6.44601 15.2512 7.78121 14.6982 9.17342 14.6982H17.5724C18.9646 14.6982 20.2998 15.2512 21.2842 16.2357C22.2687 17.2201 22.8217 18.5553 22.8217 19.9475V22.0473C22.8217 22.6271 22.3517 23.0971 21.7719 23.0971C21.192 23.0971 20.722 22.6271 20.722 22.0473V19.9475C20.722 19.1122 20.3902 18.3111 19.7995 17.7204C19.2088 17.1298 18.4077 16.7979 17.5724 16.7979H9.17342C8.33809 16.7979 7.53698 17.1298 6.94631 17.7204C6.35564 18.3111 6.02381 19.1122 6.02381 19.9475V22.0473C6.02381 22.6271 5.55377 23.0971 4.97394 23.0971C4.39411 23.0971 3.92407 22.6271 3.92407 22.0473V19.9475C3.92407 18.5553 4.47713 17.2201 5.46157 16.2357Z" fill="white"/>
<path fill-rule="evenodd" clip-rule="evenodd" d="M13.3729 4.19947C11.6334 4.19947 10.2233 5.6096 10.2233 7.34908C10.2233 9.08856 11.6334 10.4987 13.3729 10.4987C15.1124 10.4987 16.5225 9.08856 16.5225 7.34908C16.5225 5.6096 15.1124 4.19947 13.3729 4.19947ZM8.12354 7.34908C8.12354 4.44994 10.4737 2.09973 13.3729 2.09973C16.272 2.09973 18.6222 4.44994 18.6222 7.34908C18.6222 10.2482 16.272 12.5984 13.3729 12.5984C10.4737 12.5984 8.12354 10.2482 8.12354 7.34908Z" fill="white"/>
</svg>
