<svg width="20" height="22" viewBox="0 0 20 22" fill="none" xmlns="http://www.w3.org/2000/svg">
<path d="M7.6733e-06 1.76664L1.86279 -2.83694e-05L12.0089 9.6283C12.1725 9.78258 12.3023 9.96604 12.3908 10.1681C12.4794 10.3702 12.525 10.5869 12.525 10.8058C12.525 11.0247 12.4794 11.2414 12.3908 11.4435C12.3023 11.6456 12.1725 11.829 12.0089 11.9833L1.86279 21.6166L0.00176323 19.85L9.52461 10.8083L7.6733e-06 1.76664Z" fill="white"/>
<path d="M7.6733e-06 1.76664L1.86279 -2.83694e-05L12.0089 9.6283C12.1725 9.78258 12.3023 9.96604 12.3908 10.1681C12.4794 10.3702 12.525 10.5869 12.525 10.8058C12.525 11.0247 12.4794 11.2414 12.3908 11.4435C12.3023 11.6456 12.1725 11.829 12.0089 11.9833L1.86279 21.6166L0.00176323 19.85L9.52461 10.8083L7.6733e-06 1.76664Z" fill="white"/>
<path d="M7.6733e-06 1.76664L1.86279 -2.83694e-05L12.0089 9.6283C12.1725 9.78258 12.3023 9.96604 12.3908 10.1681C12.4794 10.3702 12.525 10.5869 12.525 10.8058C12.525 11.0247 12.4794 11.2414 12.3908 11.4435C12.3023 11.6456 12.1725 11.829 12.0089 11.9833L1.86279 21.6166L0.00176323 19.85L9.52461 10.8083L7.6733e-06 1.76664Z" fill="white"/>
<path d="M7.6733e-06 1.76664L1.86279 -2.83694e-05L12.0089 9.6283C12.1725 9.78258 12.3023 9.96604 12.3908 10.1681C12.4794 10.3702 12.525 10.5869 12.525 10.8058C12.525 11.0247 12.4794 11.2414 12.3908 11.4435C12.3023 11.6456 12.1725 11.829 12.0089 11.9833L1.86279 21.6166L0.00176323 19.85L9.52461 10.8083L7.6733e-06 1.76664Z" fill="white"/>
<path d="M7.6733e-06 1.76664L1.86279 -2.83694e-05L12.0089 9.6283C12.1725 9.78258 12.3023 9.96604 12.3908 10.1681C12.4794 10.3702 12.525 10.5869 12.525 10.8058C12.525 11.0247 12.4794 11.2414 12.3908 11.4435C12.3023 11.6456 12.1725 11.829 12.0089 11.9833L1.86279 21.6166L0.00176323 19.85L9.52461 10.8083L7.6733e-06 1.76664Z" fill="white"/>
<path d="M7.6733e-06 1.76664L1.86279 -2.83694e-05L12.0089 9.6283C12.1725 9.78258 12.3023 9.96604 12.3908 10.1681C12.4794 10.3702 12.525 10.5869 12.525 10.8058C12.525 11.0247 12.4794 11.2414 12.3908 11.4435C12.3023 11.6456 12.1725 11.829 12.0089 11.9833L1.86279 21.6166L0.00176323 19.85L9.52461 10.8083L7.6733e-06 1.76664Z" fill="white"/>
<path d="M7.6733e-06 1.76664L1.86279 -2.83694e-05L12.0089 9.6283C12.1725 9.78258 12.3023 9.96604 12.3908 10.1681C12.4794 10.3702 12.525 10.5869 12.525 10.8058C12.525 11.0247 12.4794 11.2414 12.3908 11.4435C12.3023 11.6456 12.1725 11.829 12.0089 11.9833L1.86279 21.6166L0.00176323 19.85L9.52461 10.8083L7.6733e-06 1.76664Z" fill="white"/>
<path d="M7.6733e-06 1.76664L1.86279 -2.83694e-05L12.0089 9.6283C12.1725 9.78258 12.3023 9.96604 12.3908 10.1681C12.4794 10.3702 12.525 10.5869 12.525 10.8058C12.525 11.0247 12.4794 11.2414 12.3908 11.4435C12.3023 11.6456 12.1725 11.829 12.0089 11.9833L1.86279 21.6166L0.00176323 19.85L9.52461 10.8083L7.6733e-06 1.76664Z" fill="white"/>
<path d="M7.6733e-06 1.76664L1.86279 -2.83694e-05L12.0089 9.6283C12.1725 9.78258 12.3023 9.96604 12.3908 10.1681C12.4794 10.3702 12.525 10.5869 12.525 10.8058C12.525 11.0247 12.4794 11.2414 12.3908 11.4435C12.3023 11.6456 12.1725 11.829 12.0089 11.9833L1.86279 21.6166L0.00176323 19.85L9.52461 10.8083L7.6733e-06 1.76664Z" fill="white"/>
<path d="M7.6733e-06 1.76664L1.86279 -2.83694e-05L12.0089 9.6283C12.1725 9.78258 12.3023 9.96604 12.3908 10.1681C12.4794 10.3702 12.525 10.5869 12.525 10.8058C12.525 11.0247 12.4794 11.2414 12.3908 11.4435C12.3023 11.6456 12.1725 11.829 12.0089 11.9833L1.86279 21.6166L0.00176323 19.85L9.52461 10.8083L7.6733e-06 1.76664Z" fill="white"/>
<path d="M7.6733e-06 1.76664L1.86279 -2.83694e-05L12.0089 9.6283C12.1725 9.78258 12.3023 9.96604 12.3908 10.1681C12.4794 10.3702 12.525 10.5869 12.525 10.8058C12.525 11.0247 12.4794 11.2414 12.3908 11.4435C12.3023 11.6456 12.1725 11.829 12.0089 11.9833L1.86279 21.6166L0.00176323 19.85L9.52461 10.8083L7.6733e-06 1.76664Z" fill="white"/>
<path d="M7.6733e-06 1.76664L1.86279 -2.83694e-05L12.0089 9.6283C12.1725 9.78258 12.3023 9.96604 12.3908 10.1681C12.4794 10.3702 12.525 10.5869 12.525 10.8058C12.525 11.0247 12.4794 11.2414 12.3908 11.4435C12.3023 11.6456 12.1725 11.829 12.0089 11.9833L1.86279 21.6166L0.00176323 19.85L9.52461 10.8083L7.6733e-06 1.76664Z" fill="white"/>
<path d="M7.6733e-06 1.76664L1.86279 -2.83694e-05L12.0089 9.6283C12.1725 9.78258 12.3023 9.96604 12.3908 10.1681C12.4794 10.3702 12.525 10.5869 12.525 10.8058C12.525 11.0247 12.4794 11.2414 12.3908 11.4435C12.3023 11.6456 12.1725 11.829 12.0089 11.9833L1.86279 21.6166L0.00176323 19.85L9.52461 10.8083L7.6733e-06 1.76664Z" fill="white"/>
<path d="M7.6733e-06 1.76664L1.86279 -2.83694e-05L12.0089 9.6283C12.1725 9.78258 12.3023 9.96604 12.3908 10.1681C12.4794 10.3702 12.525 10.5869 12.525 10.8058C12.525 11.0247 12.4794 11.2414 12.3908 11.4435C12.3023 11.6456 12.1725 11.829 12.0089 11.9833L1.86279 21.6166L0.00176323 19.85L9.52461 10.8083L7.6733e-06 1.76664Z" fill="white"/>
<path d="M7.6733e-06 1.76664L1.86279 -2.83694e-05L12.0089 9.6283C12.1725 9.78258 12.3023 9.96604 12.3908 10.1681C12.4794 10.3702 12.525 10.5869 12.525 10.8058C12.525 11.0247 12.4794 11.2414 12.3908 11.4435C12.3023 11.6456 12.1725 11.829 12.0089 11.9833L1.86279 21.6166L0.00176323 19.85L9.52461 10.8083L7.6733e-06 1.76664Z" fill="white"/>
<path d="M7.6733e-06 1.76664L1.86279 -2.83694e-05L12.0089 9.6283C12.1725 9.78258 12.3023 9.96604 12.3908 10.1681C12.4794 10.3702 12.525 10.5869 12.525 10.8058C12.525 11.0247 12.4794 11.2414 12.3908 11.4435C12.3023 11.6456 12.1725 11.829 12.0089 11.9833L1.86279 21.6166L0.00176323 19.85L9.52461 10.8083L7.6733e-06 1.76664Z" fill="white"/>
<path d="M7.6733e-06 1.76664L1.86279 -2.83694e-05L12.0089 9.6283C12.1725 9.78258 12.3023 9.96604 12.3908 10.1681C12.4794 10.3702 12.525 10.5869 12.525 10.8058C12.525 11.0247 12.4794 11.2414 12.3908 11.4435C12.3023 11.6456 12.1725 11.829 12.0089 11.9833L1.86279 21.6166L0.00176323 19.85L9.52461 10.8083L7.6733e-06 1.76664Z" fill="white"/>
<path d="M7.6733e-06 1.76664L1.86279 -2.83694e-05L12.0089 9.6283C12.1725 9.78258 12.3023 9.96604 12.3908 10.1681C12.4794 10.3702 12.525 10.5869 12.525 10.8058C12.525 11.0247 12.4794 11.2414 12.3908 11.4435C12.3023 11.6456 12.1725 11.829 12.0089 11.9833L1.86279 21.6166L0.00176323 19.85L9.52461 10.8083L7.6733e-06 1.76664Z" fill="white"/>
<path d="M7.6733e-06 1.76664L1.86279 -2.83694e-05L12.0089 9.6283C12.1725 9.78258 12.3023 9.96604 12.3908 10.1681C12.4794 10.3702 12.525 10.5869 12.525 10.8058C12.525 11.0247 12.4794 11.2414 12.3908 11.4435C12.3023 11.6456 12.1725 11.829 12.0089 11.9833L1.86279 21.6166L0.00176323 19.85L9.52461 10.8083L7.6733e-06 1.76664Z" fill="white"/>
<path d="M7.6733e-06 1.76664L1.86279 -2.83694e-05L12.0089 9.6283C12.1725 9.78258 12.3023 9.96604 12.3908 10.1681C12.4794 10.3702 12.525 10.5869 12.525 10.8058C12.525 11.0247 12.4794 11.2414 12.3908 11.4435C12.3023 11.6456 12.1725 11.829 12.0089 11.9833L1.86279 21.6166L0.00176323 19.85L9.52461 10.8083L7.6733e-06 1.76664Z" fill="white"/>
<path d="M7.6733e-06 1.76664L1.86279 -2.83694e-05L12.0089 9.6283C12.1725 9.78258 12.3023 9.96604 12.3908 10.1681C12.4794 10.3702 12.525 10.5869 12.525 10.8058C12.525 11.0247 12.4794 11.2414 12.3908 11.4435C12.3023 11.6456 12.1725 11.829 12.0089 11.9833L1.86279 21.6166L0.00176323 19.85L9.52461 10.8083L7.6733e-06 1.76664Z" fill="white"/>
<path d="M7.6733e-06 1.76664L1.86279 -2.83694e-05L12.0089 9.6283C12.1725 9.78258 12.3023 9.96604 12.3908 10.1681C12.4794 10.3702 12.525 10.5869 12.525 10.8058C12.525 11.0247 12.4794 11.2414 12.3908 11.4435C12.3023 11.6456 12.1725 11.829 12.0089 11.9833L1.86279 21.6166L0.00176323 19.85L9.52461 10.8083L7.6733e-06 1.76664Z" fill="white"/>
<path d="M7.6733e-06 1.76664L1.86279 -2.83694e-05L12.0089 9.6283C12.1725 9.78258 12.3023 9.96604 12.3908 10.1681C12.4794 10.3702 12.525 10.5869 12.525 10.8058C12.525 11.0247 12.4794 11.2414 12.3908 11.4435C12.3023 11.6456 12.1725 11.829 12.0089 11.9833L1.86279 21.6166L0.00176323 19.85L9.52461 10.8083L7.6733e-06 1.76664Z" fill="white"/>
<path d="M7.6733e-06 1.76664L1.86279 -2.83694e-05L12.0089 9.6283C12.1725 9.78258 12.3023 9.96604 12.3908 10.1681C12.4794 10.3702 12.525 10.5869 12.525 10.8058C12.525 11.0247 12.4794 11.2414 12.3908 11.4435C12.3023 11.6456 12.1725 11.829 12.0089 11.9833L1.86279 21.6166L0.00176323 19.85L9.52461 10.8083L7.6733e-06 1.76664Z" fill="white"/>
<path d="M7.6733e-06 1.76664L1.86279 -2.83694e-05L12.0089 9.6283C12.1725 9.78258 12.3023 9.96604 12.3908 10.1681C12.4794 10.3702 12.525 10.5869 12.525 10.8058C12.525 11.0247 12.4794 11.2414 12.3908 11.4435C12.3023 11.6456 12.1725 11.829 12.0089 11.9833L1.86279 21.6166L0.00176323 19.85L9.52461 10.8083L7.6733e-06 1.76664Z" fill="white"/>
<path d="M7.6733e-06 1.76664L1.86279 -2.83694e-05L12.0089 9.6283C12.1725 9.78258 12.3023 9.96604 12.3908 10.1681C12.4794 10.3702 12.525 10.5869 12.525 10.8058C12.525 11.0247 12.4794 11.2414 12.3908 11.4435C12.3023 11.6456 12.1725 11.829 12.0089 11.9833L1.86279 21.6166L0.00176323 19.85L9.52461 10.8083L7.6733e-06 1.76664Z" fill="white"/>
<path d="M7.6733e-06 1.76664L1.86279 -2.83694e-05L12.0089 9.6283C12.1725 9.78258 12.3023 9.96604 12.3908 10.1681C12.4794 10.3702 12.525 10.5869 12.525 10.8058C12.525 11.0247 12.4794 11.2414 12.3908 11.4435C12.3023 11.6456 12.1725 11.829 12.0089 11.9833L1.86279 21.6166L0.00176323 19.85L9.52461 10.8083L7.6733e-06 1.76664Z" fill="white"/>
<path d="M7.6733e-06 1.76664L1.86279 -2.83694e-05L12.0089 9.6283C12.1725 9.78258 12.3023 9.96604 12.3908 10.1681C12.4794 10.3702 12.525 10.5869 12.525 10.8058C12.525 11.0247 12.4794 11.2414 12.3908 11.4435C12.3023 11.6456 12.1725 11.829 12.0089 11.9833L1.86279 21.6166L0.00176323 19.85L9.52461 10.8083L7.6733e-06 1.76664Z" fill="white"/>
<path d="M7.6733e-06 1.76664L1.86279 -2.83694e-05L12.0089 9.6283C12.1725 9.78258 12.3023 9.96604 12.3908 10.1681C12.4794 10.3702 12.525 10.5869 12.525 10.8058C12.525 11.0247 12.4794 11.2414 12.3908 11.4435C12.3023 11.6456 12.1725 11.829 12.0089 11.9833L1.86279 21.6166L0.00176323 19.85L9.52461 10.8083L7.6733e-06 1.76664Z" fill="white"/>
<path d="M7.6733e-06 1.76664L1.86279 -2.83694e-05L12.0089 9.6283C12.1725 9.78258 12.3023 9.96604 12.3908 10.1681C12.4794 10.3702 12.525 10.5869 12.525 10.8058C12.525 11.0247 12.4794 11.2414 12.3908 11.4435C12.3023 11.6456 12.1725 11.829 12.0089 11.9833L1.86279 21.6166L0.00176323 19.85L9.52461 10.8083L7.6733e-06 1.76664Z" fill="white"/>
<path d="M7.6733e-06 1.76664L1.86279 -2.83694e-05L12.0089 9.6283C12.1725 9.78258 12.3023 9.96604 12.3908 10.1681C12.4794 10.3702 12.525 10.5869 12.525 10.8058C12.525 11.0247 12.4794 11.2414 12.3908 11.4435C12.3023 11.6456 12.1725 11.829 12.0089 11.9833L1.86279 21.6166L0.00176323 19.85L9.52461 10.8083L7.6733e-06 1.76664Z" fill="white"/>
<path d="M7.6733e-06 1.76664L1.86279 -2.83694e-05L12.0089 9.6283C12.1725 9.78258 12.3023 9.96604 12.3908 10.1681C12.4794 10.3702 12.525 10.5869 12.525 10.8058C12.525 11.0247 12.4794 11.2414 12.3908 11.4435C12.3023 11.6456 12.1725 11.829 12.0089 11.9833L1.86279 21.6166L0.00176323 19.85L9.52461 10.8083L7.6733e-06 1.76664Z" fill="white"/>
<path d="M7.6733e-06 1.76664L1.86279 -2.83694e-05L12.0089 9.6283C12.1725 9.78258 12.3023 9.96604 12.3908 10.1681C12.4794 10.3702 12.525 10.5869 12.525 10.8058C12.525 11.0247 12.4794 11.2414 12.3908 11.4435C12.3023 11.6456 12.1725 11.829 12.0089 11.9833L1.86279 21.6166L0.00176323 19.85L9.52461 10.8083L7.6733e-06 1.76664Z" fill="white"/>
<path d="M7.6733e-06 1.76664L1.86279 -2.83694e-05L12.0089 9.6283C12.1725 9.78258 12.3023 9.96604 12.3908 10.1681C12.4794 10.3702 12.525 10.5869 12.525 10.8058C12.525 11.0247 12.4794 11.2414 12.3908 11.4435C12.3023 11.6456 12.1725 11.829 12.0089 11.9833L1.86279 21.6166L0.00176323 19.85L9.52461 10.8083L7.6733e-06 1.76664Z" fill="white"/>
<path d="M7.6733e-06 1.76664L1.86279 -2.83694e-05L12.0089 9.6283C12.1725 9.78258 12.3023 9.96604 12.3908 10.1681C12.4794 10.3702 12.525 10.5869 12.525 10.8058C12.525 11.0247 12.4794 11.2414 12.3908 11.4435C12.3023 11.6456 12.1725 11.829 12.0089 11.9833L1.86279 21.6166L0.00176323 19.85L9.52461 10.8083L7.6733e-06 1.76664Z" fill="white"/>
<path d="M7.6733e-06 1.76664L1.86279 -2.83694e-05L12.0089 9.6283C12.1725 9.78258 12.3023 9.96604 12.3908 10.1681C12.4794 10.3702 12.525 10.5869 12.525 10.8058C12.525 11.0247 12.4794 11.2414 12.3908 11.4435C12.3023 11.6456 12.1725 11.829 12.0089 11.9833L1.86279 21.6166L0.00176323 19.85L9.52461 10.8083L7.6733e-06 1.76664Z" fill="white"/>
<path d="M7.6733e-06 1.76664L1.86279 -2.83694e-05L12.0089 9.6283C12.1725 9.78258 12.3023 9.96604 12.3908 10.1681C12.4794 10.3702 12.525 10.5869 12.525 10.8058C12.525 11.0247 12.4794 11.2414 12.3908 11.4435C12.3023 11.6456 12.1725 11.829 12.0089 11.9833L1.86279 21.6166L0.00176323 19.85L9.52461 10.8083L7.6733e-06 1.76664Z" fill="white"/>
<path d="M7.6733e-06 1.76664L1.86279 -2.83694e-05L12.0089 9.6283C12.1725 9.78258 12.3023 9.96604 12.3908 10.1681C12.4794 10.3702 12.525 10.5869 12.525 10.8058C12.525 11.0247 12.4794 11.2414 12.3908 11.4435C12.3023 11.6456 12.1725 11.829 12.0089 11.9833L1.86279 21.6166L0.00176323 19.85L9.52461 10.8083L7.6733e-06 1.76664Z" fill="white"/>
<path d="M7.6733e-06 1.76664L1.86279 -2.83694e-05L12.0089 9.6283C12.1725 9.78258 12.3023 9.96604 12.3908 10.1681C12.4794 10.3702 12.525 10.5869 12.525 10.8058C12.525 11.0247 12.4794 11.2414 12.3908 11.4435C12.3023 11.6456 12.1725 11.829 12.0089 11.9833L1.86279 21.6166L0.00176323 19.85L9.52461 10.8083L7.6733e-06 1.76664Z" fill="white"/>
<path d="M7.6733e-06 1.76664L1.86279 -2.83694e-05L12.0089 9.6283C12.1725 9.78258 12.3023 9.96604 12.3908 10.1681C12.4794 10.3702 12.525 10.5869 12.525 10.8058C12.525 11.0247 12.4794 11.2414 12.3908 11.4435C12.3023 11.6456 12.1725 11.829 12.0089 11.9833L1.86279 21.6166L0.00176323 19.85L9.52461 10.8083L7.6733e-06 1.76664Z" fill="white"/>
<path d="M7.6733e-06 1.76664L1.86279 -2.83694e-05L12.0089 9.6283C12.1725 9.78258 12.3023 9.96604 12.3908 10.1681C12.4794 10.3702 12.525 10.5869 12.525 10.8058C12.525 11.0247 12.4794 11.2414 12.3908 11.4435C12.3023 11.6456 12.1725 11.829 12.0089 11.9833L1.86279 21.6166L0.00176323 19.85L9.52461 10.8083L7.6733e-06 1.76664Z" fill="white"/>
<path d="M7.6733e-06 1.76664L1.86279 -2.83694e-05L12.0089 9.6283C12.1725 9.78258 12.3023 9.96604 12.3908 10.1681C12.4794 10.3702 12.525 10.5869 12.525 10.8058C12.525 11.0247 12.4794 11.2414 12.3908 11.4435C12.3023 11.6456 12.1725 11.829 12.0089 11.9833L1.86279 21.6166L0.00176323 19.85L9.52461 10.8083L7.6733e-06 1.76664Z" fill="white"/>
<path d="M7.6733e-06 1.76664L1.86279 -2.83694e-05L12.0089 9.6283C12.1725 9.78258 12.3023 9.96604 12.3908 10.1681C12.4794 10.3702 12.525 10.5869 12.525 10.8058C12.525 11.0247 12.4794 11.2414 12.3908 11.4435C12.3023 11.6456 12.1725 11.829 12.0089 11.9833L1.86279 21.6166L0.00176323 19.85L9.52461 10.8083L7.6733e-06 1.76664Z" fill="white"/>
<path d="M7.6733e-06 1.76664L1.86279 -2.83694e-05L12.0089 9.6283C12.1725 9.78258 12.3023 9.96604 12.3908 10.1681C12.4794 10.3702 12.525 10.5869 12.525 10.8058C12.525 11.0247 12.4794 11.2414 12.3908 11.4435C12.3023 11.6456 12.1725 11.829 12.0089 11.9833L1.86279 21.6166L0.00176323 19.85L9.52461 10.8083L7.6733e-06 1.76664Z" fill="white"/>
<path d="M7.6733e-06 1.76664L1.86279 -2.83694e-05L12.0089 9.6283C12.1725 9.78258 12.3023 9.96604 12.3908 10.1681C12.4794 10.3702 12.525 10.5869 12.525 10.8058C12.525 11.0247 12.4794 11.2414 12.3908 11.4435C12.3023 11.6456 12.1725 11.829 12.0089 11.9833L1.86279 21.6166L0.00176323 19.85L9.52461 10.8083L7.6733e-06 1.76664Z" fill="white"/>
<path d="M7.6733e-06 1.76664L1.86279 -2.83694e-05L12.0089 9.6283C12.1725 9.78258 12.3023 9.96604 12.3908 10.1681C12.4794 10.3702 12.525 10.5869 12.525 10.8058C12.525 11.0247 12.4794 11.2414 12.3908 11.4435C12.3023 11.6456 12.1725 11.829 12.0089 11.9833L1.86279 21.6166L0.00176323 19.85L9.52461 10.8083L7.6733e-06 1.76664Z" fill="white"/>
<path d="M7.6733e-06 1.76664L1.86279 -2.83694e-05L12.0089 9.6283C12.1725 9.78258 12.3023 9.96604 12.3908 10.1681C12.4794 10.3702 12.525 10.5869 12.525 10.8058C12.525 11.0247 12.4794 11.2414 12.3908 11.4435C12.3023 11.6456 12.1725 11.829 12.0089 11.9833L1.86279 21.6166L0.00176323 19.85L9.52461 10.8083L7.6733e-06 1.76664Z" fill="white"/>
<path d="M7.6733e-06 1.76664L1.86279 -2.83694e-05L12.0089 9.6283C12.1725 9.78258 12.3023 9.96604 12.3908 10.1681C12.4794 10.3702 12.525 10.5869 12.525 10.8058C12.525 11.0247 12.4794 11.2414 12.3908 11.4435C12.3023 11.6456 12.1725 11.829 12.0089 11.9833L1.86279 21.6166L0.00176323 19.85L9.52461 10.8083L7.6733e-06 1.76664Z" fill="white"/>
<path d="M7.6733e-06 1.76664L1.86279 -2.83694e-05L12.0089 9.6283C12.1725 9.78258 12.3023 9.96604 12.3908 10.1681C12.4794 10.3702 12.525 10.5869 12.525 10.8058C12.525 11.0247 12.4794 11.2414 12.3908 11.4435C12.3023 11.6456 12.1725 11.829 12.0089 11.9833L1.86279 21.6166L0.00176323 19.85L9.52461 10.8083L7.6733e-06 1.76664Z" fill="white"/>
<path d="M7.6733e-06 1.76664L1.86279 -2.83694e-05L12.0089 9.6283C12.1725 9.78258 12.3023 9.96604 12.3908 10.1681C12.4794 10.3702 12.525 10.5869 12.525 10.8058C12.525 11.0247 12.4794 11.2414 12.3908 11.4435C12.3023 11.6456 12.1725 11.829 12.0089 11.9833L1.86279 21.6166L0.00176323 19.85L9.52461 10.8083L7.6733e-06 1.76664Z" fill="white"/>
<path d="M7.6733e-06 1.76664L1.86279 -2.83694e-05L12.0089 9.6283C12.1725 9.78258 12.3023 9.96604 12.3908 10.1681C12.4794 10.3702 12.525 10.5869 12.525 10.8058C12.525 11.0247 12.4794 11.2414 12.3908 11.4435C12.3023 11.6456 12.1725 11.829 12.0089 11.9833L1.86279 21.6166L0.00176323 19.85L9.52461 10.8083L7.6733e-06 1.76664Z" fill="white"/>
<path d="M7.6733e-06 1.76664L1.86279 -2.83694e-05L12.0089 9.6283C12.1725 9.78258 12.3023 9.96604 12.3908 10.1681C12.4794 10.3702 12.525 10.5869 12.525 10.8058C12.525 11.0247 12.4794 11.2414 12.3908 11.4435C12.3023 11.6456 12.1725 11.829 12.0089 11.9833L1.86279 21.6166L0.00176323 19.85L9.52461 10.8083L7.6733e-06 1.76664Z" fill="white"/>
<path d="M7.6733e-06 1.76664L1.86279 -2.83694e-05L12.0089 9.6283C12.1725 9.78258 12.3023 9.96604 12.3908 10.1681C12.4794 10.3702 12.525 10.5869 12.525 10.8058C12.525 11.0247 12.4794 11.2414 12.3908 11.4435C12.3023 11.6456 12.1725 11.829 12.0089 11.9833L1.86279 21.6166L0.00176323 19.85L9.52461 10.8083L7.6733e-06 1.76664Z" fill="white"/>
<path d="M7.6733e-06 1.76664L1.86279 -2.83694e-05L12.0089 9.6283C12.1725 9.78258 12.3023 9.96604 12.3908 10.1681C12.4794 10.3702 12.525 10.5869 12.525 10.8058C12.525 11.0247 12.4794 11.2414 12.3908 11.4435C12.3023 11.6456 12.1725 11.829 12.0089 11.9833L1.86279 21.6166L0.00176323 19.85L9.52461 10.8083L7.6733e-06 1.76664Z" fill="white"/>
<path d="M7.6733e-06 1.76664L1.86279 -2.83694e-05L12.0089 9.6283C12.1725 9.78258 12.3023 9.96604 12.3908 10.1681C12.4794 10.3702 12.525 10.5869 12.525 10.8058C12.525 11.0247 12.4794 11.2414 12.3908 11.4435C12.3023 11.6456 12.1725 11.829 12.0089 11.9833L1.86279 21.6166L0.00176323 19.85L9.52461 10.8083L7.6733e-06 1.76664Z" fill="white"/>
<path d="M7.6733e-06 1.76664L1.86279 -2.83694e-05L12.0089 9.6283C12.1725 9.78258 12.3023 9.96604 12.3908 10.1681C12.4794 10.3702 12.525 10.5869 12.525 10.8058C12.525 11.0247 12.4794 11.2414 12.3908 11.4435C12.3023 11.6456 12.1725 11.829 12.0089 11.9833L1.86279 21.6166L0.00176323 19.85L9.52461 10.8083L7.6733e-06 1.76664Z" fill="white"/>
<path d="M7.6733e-06 1.76664L1.86279 -2.83694e-05L12.0089 9.6283C12.1725 9.78258 12.3023 9.96604 12.3908 10.1681C12.4794 10.3702 12.525 10.5869 12.525 10.8058C12.525 11.0247 12.4794 11.2414 12.3908 11.4435C12.3023 11.6456 12.1725 11.829 12.0089 11.9833L1.86279 21.6166L0.00176323 19.85L9.52461 10.8083L7.6733e-06 1.76664Z" fill="white"/>
<path d="M7.6733e-06 1.76664L1.86279 -2.83694e-05L12.0089 9.6283C12.1725 9.78258 12.3023 9.96604 12.3908 10.1681C12.4794 10.3702 12.525 10.5869 12.525 10.8058C12.525 11.0247 12.4794 11.2414 12.3908 11.4435C12.3023 11.6456 12.1725 11.829 12.0089 11.9833L1.86279 21.6166L0.00176323 19.85L9.52461 10.8083L7.6733e-06 1.76664Z" fill="white"/>
<path d="M7.6733e-06 1.76664L1.86279 -2.83694e-05L12.0089 9.6283C12.1725 9.78258 12.3023 9.96604 12.3908 10.1681C12.4794 10.3702 12.525 10.5869 12.525 10.8058C12.525 11.0247 12.4794 11.2414 12.3908 11.4435C12.3023 11.6456 12.1725 11.829 12.0089 11.9833L1.86279 21.6166L0.00176323 19.85L9.52461 10.8083L7.6733e-06 1.76664Z" fill="white"/>
<path d="M7.6733e-06 1.76664L1.86279 -2.83694e-05L12.0089 9.6283C12.1725 9.78258 12.3023 9.96604 12.3908 10.1681C12.4794 10.3702 12.525 10.5869 12.525 10.8058C12.525 11.0247 12.4794 11.2414 12.3908 11.4435C12.3023 11.6456 12.1725 11.829 12.0089 11.9833L1.86279 21.6166L0.00176323 19.85L9.52461 10.8083L7.6733e-06 1.76664Z" fill="white"/>
<path d="M7.6733e-06 1.76664L1.86279 -2.83694e-05L12.0089 9.6283C12.1725 9.78258 12.3023 9.96604 12.3908 10.1681C12.4794 10.3702 12.525 10.5869 12.525 10.8058C12.525 11.0247 12.4794 11.2414 12.3908 11.4435C12.3023 11.6456 12.1725 11.829 12.0089 11.9833L1.86279 21.6166L0.00176323 19.85L9.52461 10.8083L7.6733e-06 1.76664Z" fill="white"/>
<path d="M7.6733e-06 1.76664L1.86279 -2.83694e-05L12.0089 9.6283C12.1725 9.78258 12.3023 9.96604 12.3908 10.1681C12.4794 10.3702 12.525 10.5869 12.525 10.8058C12.525 11.0247 12.4794 11.2414 12.3908 11.4435C12.3023 11.6456 12.1725 11.829 12.0089 11.9833L1.86279 21.6166L0.00176323 19.85L9.52461 10.8083L7.6733e-06 1.76664Z" fill="white"/>
<path d="M7.6733e-06 1.76664L1.86279 -2.83694e-05L12.0089 9.6283C12.1725 9.78258 12.3023 9.96604 12.3908 10.1681C12.4794 10.3702 12.525 10.5869 12.525 10.8058C12.525 11.0247 12.4794 11.2414 12.3908 11.4435C12.3023 11.6456 12.1725 11.829 12.0089 11.9833L1.86279 21.6166L0.00176323 19.85L9.52461 10.8083L7.6733e-06 1.76664Z" fill="white"/>
<path d="M7.6733e-06 1.76664L1.86279 -2.83694e-05L12.0089 9.6283C12.1725 9.78258 12.3023 9.96604 12.3908 10.1681C12.4794 10.3702 12.525 10.5869 12.525 10.8058C12.525 11.0247 12.4794 11.2414 12.3908 11.4435C12.3023 11.6456 12.1725 11.829 12.0089 11.9833L1.86279 21.6166L0.00176323 19.85L9.52461 10.8083L7.6733e-06 1.76664Z" fill="white"/>
<path d="M7.6733e-06 1.76664L1.86279 -2.83694e-05L12.0089 9.6283C12.1725 9.78258 12.3023 9.96604 12.3908 10.1681C12.4794 10.3702 12.525 10.5869 12.525 10.8058C12.525 11.0247 12.4794 11.2414 12.3908 11.4435C12.3023 11.6456 12.1725 11.829 12.0089 11.9833L1.86279 21.6166L0.00176323 19.85L9.52461 10.8083L7.6733e-06 1.76664Z" fill="white"/>
<path d="M7.6733e-06 1.76664L1.86279 -2.83694e-05L12.0089 9.6283C12.1725 9.78258 12.3023 9.96604 12.3908 10.1681C12.4794 10.3702 12.525 10.5869 12.525 10.8058C12.525 11.0247 12.4794 11.2414 12.3908 11.4435C12.3023 11.6456 12.1725 11.829 12.0089 11.9833L1.86279 21.6166L0.00176323 19.85L9.52461 10.8083L7.6733e-06 1.76664Z" fill="white"/>
<path d="M7.6733e-06 1.76664L1.86279 -2.83694e-05L12.0089 9.6283C12.1725 9.78258 12.3023 9.96604 12.3908 10.1681C12.4794 10.3702 12.525 10.5869 12.525 10.8058C12.525 11.0247 12.4794 11.2414 12.3908 11.4435C12.3023 11.6456 12.1725 11.829 12.0089 11.9833L1.86279 21.6166L0.00176323 19.85L9.52461 10.8083L7.6733e-06 1.76664Z" fill="white"/>
<path d="M7 1.76664L8.86278 -2.83694e-05L19.0089 9.6283C19.1725 9.78258 19.3022 9.96604 19.3908 10.1681C19.4794 10.3702 19.525 10.5869 19.525 10.8058C19.525 11.0247 19.4794 11.2414 19.3908 11.4435C19.3022 11.6456 19.1725 11.829 19.0089 11.9833L8.86278 21.6166L7.00176 19.85L16.5246 10.8083L7 1.76664Z" fill="white"/>
</svg>
