<svg width="26" height="27" viewBox="0 0 26 27" fill="none" xmlns="http://www.w3.org/2000/svg">
<path d="M10.3999 13.5C10.3999 12.8104 10.6738 12.1491 11.1614 11.6615C11.649 11.1739 12.3103 10.9 12.9999 10.9C13.6895 10.9 14.3508 11.1739 14.8384 11.6615C15.326 12.1491 15.5999 12.8104 15.5999 13.5C15.5999 14.1896 15.326 14.8509 14.8384 15.3385C14.3508 15.8261 13.6895 16.1 12.9999 16.1C12.3103 16.1 11.649 15.8261 11.1614 15.3385C10.6738 14.8509 10.3999 14.1896 10.3999 13.5Z" fill="black" fill-opacity="0.5"/>
<path fill-rule="evenodd" clip-rule="evenodd" d="M0 6.56666C0 5.8771 0.273928 5.21578 0.761522 4.72818C1.24912 4.24059 1.91044 3.96666 2.6 3.96666H23.4C24.0896 3.96666 24.7509 4.24059 25.2385 4.72818C25.7261 5.21578 26 5.8771 26 6.56666V20.4333C26 21.1229 25.7261 21.7842 25.2385 22.2718C24.7509 22.7594 24.0896 23.0333 23.4 23.0333H2.6C1.91044 23.0333 1.24912 22.7594 0.761522 22.2718C0.273928 21.7842 0 21.1229 0 20.4333L0 6.56666ZM6.93333 7.43333H3.46667V10.9H5.2V9.16666H6.93333V7.43333ZM20.8 9.16666H19.0667V7.43333H22.5333V10.9H20.8V9.16666ZM13 9.16666C11.8507 9.16666 10.7485 9.62321 9.93587 10.4359C9.12321 11.2485 8.66667 12.3507 8.66667 13.5C8.66667 14.6493 9.12321 15.7515 9.93587 16.5641C10.7485 17.3768 11.8507 17.8333 13 17.8333C14.1493 17.8333 15.2515 17.3768 16.0641 16.5641C16.8768 15.7515 17.3333 14.6493 17.3333 13.5C17.3333 12.3507 16.8768 11.2485 16.0641 10.4359C15.2515 9.62321 14.1493 9.16666 13 9.16666ZM19.0667 17.8333V19.5667H22.5333V16.1H20.8V17.8333H19.0667ZM3.46667 16.1H5.2V17.8333H6.93333V19.5667H3.46667V16.1Z" fill="#4BA664"/>
</svg>
