<svg width="14" height="14" viewBox="0 0 14 14" fill="none" xmlns="http://www.w3.org/2000/svg">
<path d="M3.66667 5.00667L3.67333 4.99933M6.33333 5.00667L6.34 4.99933M3.66667 7.67333L3.67333 7.666M6.33333 7.67333L6.34 7.666M3.66667 10.34L3.67333 10.3327M6.33333 10.34L6.34 10.3327M9 13H1.4C1.29391 13 1.19217 12.9579 1.11716 12.8828C1.04214 12.8078 1 12.7061 1 12.6V2.73333C1 2.62725 1.04214 2.52551 1.11716 2.45049C1.19217 2.37548 1.29391 2.33333 1.4 2.33333H5V1.4C5 1.29391 5.04214 1.19217 5.11716 1.11716C5.19217 1.04214 5.29391 1 5.4 1H8.6C8.70609 1 8.80783 1.04214 8.88284 1.11716C8.95786 1.19217 9 1.29391 9 1.4V5M9 13H12.6C12.7061 13 12.8078 12.9579 12.8828 12.8828C12.9579 12.8078 13 12.7061 13 12.6V5.4C13 5.29391 12.9579 5.19217 12.8828 5.11716C12.8078 5.04214 12.7061 5 12.6 5H9M9 13V10.3333M9 5V7.66667M9 10.3333V7.66667M9 10.3333H10.3333M9 7.66667H10.3333" stroke="#4BA664" stroke-width="1.5" stroke-linecap="round" stroke-linejoin="round"/>
</svg>
