<svg width="11" height="14" viewBox="0 0 11 14" fill="none" xmlns="http://www.w3.org/2000/svg">
<path fill-rule="evenodd" clip-rule="evenodd" d="M0.019455 5.12102C0.130276 3.72553 0.74048 2.42443 1.72901 1.47583C2.71754 0.527235 4.01217 0.000455785 5.35606 0H5.64388C6.98777 0.000455785 8.2824 0.527235 9.27093 1.47583C10.2595 2.42443 10.8697 3.72553 10.9805 5.12102C11.1035 6.67906 10.6418 8.22609 9.69264 9.43679L6.49933 13.5061C6.3783 13.6605 6.22585 13.7849 6.05301 13.8703C5.88017 13.9557 5.69126 14 5.49997 14C5.30867 14 5.11977 13.9557 4.94693 13.8703C4.77409 13.7849 4.62164 13.6605 4.50061 13.5061L1.30797 9.43679C0.358547 8.22619 -0.103336 6.67916 0.019455 5.12102ZM5.49997 2.6032C4.66065 2.6032 3.85571 2.95061 3.26222 3.56899C2.66873 4.18737 2.33532 5.02607 2.33532 5.9006C2.33532 6.77512 2.66873 7.61382 3.26222 8.2322C3.85571 8.85059 4.66065 9.19799 5.49997 9.19799C6.33929 9.19799 7.14423 8.85059 7.73772 8.2322C8.33121 7.61382 8.66462 6.77512 8.66462 5.9006C8.66462 5.02607 8.33121 4.18737 7.73772 3.56899C7.14423 2.95061 6.33929 2.6032 5.49997 2.6032Z" fill="#4BA664"/>
</svg>
