<svg width="19" height="15" viewBox="0 0 19 15" fill="none" xmlns="http://www.w3.org/2000/svg">
<path d="M18.125 13.75H17.5V4.375C17.5 4.20924 17.4342 4.05027 17.3169 3.93306C17.1997 3.81585 17.0408 3.75 16.875 3.75H11.875C11.7092 3.75 11.5503 3.81585 11.4331 3.93306C11.3158 4.05027 11.25 4.20924 11.25 4.375V7.5H7.5V0.625C7.5 0.45924 7.43415 0.300269 7.31694 0.183058C7.19973 0.0658481 7.04076 0 6.875 0H1.875C1.70924 0 1.55027 0.0658481 1.43306 0.183058C1.31585 0.300269 1.25 0.45924 1.25 0.625V13.75H0.625C0.45924 13.75 0.300268 13.8158 0.183058 13.9331C0.065848 14.0503 0 14.2092 0 14.375C0 14.5408 0.065848 14.6997 0.183058 14.8169C0.300268 14.9342 0.45924 15 0.625 15H18.125C18.2908 15 18.4497 14.9342 18.5669 14.8169C18.6842 14.6997 18.75 14.5408 18.75 14.375C18.75 14.2092 18.6842 14.0503 18.5669 13.9331C18.4497 13.8158 18.2908 13.75 18.125 13.75ZM12.5 5H16.25V13.75H12.5V5ZM11.25 8.75V13.75H7.5V8.75H11.25ZM2.5 1.25H6.25V13.75H2.5V1.25ZM5 3.125V4.375C5 4.54076 4.93415 4.69973 4.81694 4.81694C4.69973 4.93415 4.54076 5 4.375 5C4.20924 5 4.05027 4.93415 3.93306 4.81694C3.81585 4.69973 3.75 4.54076 3.75 4.375V3.125C3.75 2.95924 3.81585 2.80027 3.93306 2.68306C4.05027 2.56585 4.20924 2.5 4.375 2.5C4.54076 2.5 4.69973 2.56585 4.81694 2.68306C4.93415 2.80027 5 2.95924 5 3.125ZM5 6.875V8.125C5 8.29076 4.93415 8.44973 4.81694 8.56694C4.69973 8.68415 4.54076 8.75 4.375 8.75C4.20924 8.75 4.05027 8.68415 3.93306 8.56694C3.81585 8.44973 3.75 8.29076 3.75 8.125V6.875C3.75 6.70924 3.81585 6.55027 3.93306 6.43306C4.05027 6.31585 4.20924 6.25 4.375 6.25C4.54076 6.25 4.69973 6.31585 4.81694 6.43306C4.93415 6.55027 5 6.70924 5 6.875ZM5 10.625V11.875C5 12.0408 4.93415 12.1997 4.81694 12.3169C4.69973 12.4342 4.54076 12.5 4.375 12.5C4.20924 12.5 4.05027 12.4342 3.93306 12.3169C3.81585 12.1997 3.75 12.0408 3.75 11.875V10.625C3.75 10.4592 3.81585 10.3003 3.93306 10.1831C4.05027 10.0658 4.20924 10 4.375 10C4.54076 10 4.69973 10.0658 4.81694 10.1831C4.93415 10.3003 5 10.4592 5 10.625ZM8.75 11.875V10.625C8.75 10.4592 8.81585 10.3003 8.93306 10.1831C9.05027 10.0658 9.20924 10 9.375 10C9.54076 10 9.69973 10.0658 9.81694 10.1831C9.93415 10.3003 10 10.4592 10 10.625V11.875C10 12.0408 9.93415 12.1997 9.81694 12.3169C9.69973 12.4342 9.54076 12.5 9.375 12.5C9.20924 12.5 9.05027 12.4342 8.93306 12.3169C8.81585 12.1997 8.75 12.0408 8.75 11.875ZM13.75 11.875V10.625C13.75 10.4592 13.8158 10.3003 13.9331 10.1831C14.0503 10.0658 14.2092 10 14.375 10C14.5408 10 14.6997 10.0658 14.8169 10.1831C14.9342 10.3003 15 10.4592 15 10.625V11.875C15 12.0408 14.9342 12.1997 14.8169 12.3169C14.6997 12.4342 14.5408 12.5 14.375 12.5C14.2092 12.5 14.0503 12.4342 13.9331 12.3169C13.8158 12.1997 13.75 12.0408 13.75 11.875ZM13.75 8.125V6.875C13.75 6.70924 13.8158 6.55027 13.9331 6.43306C14.0503 6.31585 14.2092 6.25 14.375 6.25C14.5408 6.25 14.6997 6.31585 14.8169 6.43306C14.9342 6.55027 15 6.70924 15 6.875V8.125C15 8.29076 14.9342 8.44973 14.8169 8.56694C14.6997 8.68415 14.5408 8.75 14.375 8.75C14.2092 8.75 14.0503 8.68415 13.9331 8.56694C13.8158 8.44973 13.75 8.29076 13.75 8.125Z" fill="#4BA664"/>
</svg>
