<svg width="14" height="14" viewBox="0 0 14 14" fill="none" xmlns="http://www.w3.org/2000/svg">
<path d="M4.08333 5.25583L4.08917 5.24942M6.41667 5.25583L6.4225 5.24942M4.08333 7.58917L4.08917 7.58275M6.41667 7.58917L6.4225 7.58275M4.08333 9.9225L4.08917 9.91608M6.41667 9.9225L6.4225 9.91608M8.75 12.25H2.1C2.00717 12.25 1.91815 12.2131 1.85251 12.1475C1.78687 12.0818 1.75 11.9928 1.75 11.9V3.26667C1.75 3.17384 1.78687 3.08482 1.85251 3.01918C1.91815 2.95354 2.00717 2.91667 2.1 2.91667H5.25V2.1C5.25 2.00717 5.28687 1.91815 5.35251 1.85251C5.41815 1.78687 5.50717 1.75 5.6 1.75H8.4C8.49283 1.75 8.58185 1.78687 8.64749 1.85251C8.71313 1.91815 8.75 2.00717 8.75 2.1V5.25M8.75 12.25H11.9C11.9928 12.25 12.0818 12.2131 12.1475 12.1475C12.2131 12.0818 12.25 11.9928 12.25 11.9V5.6C12.25 5.50717 12.2131 5.41815 12.1475 5.35251C12.0818 5.28687 11.9928 5.25 11.9 5.25H8.75M8.75 12.25V9.91667M8.75 5.25V7.58333M8.75 9.91667V7.58333M8.75 9.91667H9.91667M8.75 7.58333H9.91667" stroke="#4BA664" stroke-width="1.5" stroke-linecap="round" stroke-linejoin="round"/>
</svg>
