<svg width="31" height="29" viewBox="0 0 31 29" fill="none" xmlns="http://www.w3.org/2000/svg">
<rect width="30.8125" height="29" rx="8" fill="#EAEAEA" fill-opacity="0.51"/>
<g clip-path="url(#clip0_1_4203)">
<path d="M11.9584 19.875C11.5688 19.875 11.2354 19.7364 10.9582 19.4592C10.681 19.182 10.5422 18.8484 10.5417 18.4583V9.25H9.83337V7.83333H13.375V7.125H17.625V7.83333H21.1667V9.25H20.4584V18.4583C20.4584 18.8479 20.3198 19.1815 20.0426 19.4592C19.7654 19.7369 19.4318 19.8755 19.0417 19.875H11.9584ZM19.0417 9.25H11.9584V18.4583H19.0417V9.25ZM13.375 17.0417H14.7917V10.6667H13.375V17.0417ZM16.2084 17.0417H17.625V10.6667H16.2084V17.0417Z" fill="#4BA664"/>
</g>
<defs>
<clipPath id="clip0_1_4203">
<rect width="17" height="17" fill="white" transform="translate(7 5)"/>
</clipPath>
</defs>
</svg>
