<svg width="31" height="29" viewBox="0 0 31 29" fill="none" xmlns="http://www.w3.org/2000/svg">
<rect width="30.8125" height="29" rx="8" fill="#EAEAEA" fill-opacity="0.51"/>
<path d="M12.9584 9.95834H12.25C11.8743 9.95834 11.514 10.1076 11.2483 10.3733C10.9826 10.6389 10.8334 10.9993 10.8334 11.375V17.75C10.8334 18.1257 10.9826 18.4861 11.2483 18.7517C11.514 19.0174 11.8743 19.1667 12.25 19.1667H18.625C19.0008 19.1667 19.3611 19.0174 19.6268 18.7517C19.8925 18.4861 20.0417 18.1257 20.0417 17.75V17.0417" stroke="#4BA664" stroke-width="1.5" stroke-linecap="round" stroke-linejoin="round"/>
<path d="M19.3333 8.54167L21.4583 10.6667M22.4394 9.66437C22.7183 9.3854 22.8751 9.00703 22.8751 8.6125C22.8751 8.21797 22.7183 7.8396 22.4394 7.56062C22.1604 7.28165 21.782 7.12492 21.3875 7.12492C20.993 7.12492 20.6146 7.28165 20.3356 7.56062L14.375 13.5V15.625H16.5L22.4394 9.66437Z" stroke="#4BA664" stroke-width="1.5" stroke-linecap="round" stroke-linejoin="round"/>
</svg>
