<svg width="20" height="18" viewBox="0 0 20 18" fill="none" xmlns="http://www.w3.org/2000/svg">
<path d="M10.0917 15.0042L10 15.0958L9.89921 15.0042C5.54504 11.0533 2.66671 8.44083 2.66671 5.79167C2.66671 3.95833 4.04171 2.58333 5.87504 2.58333C7.28671 2.58333 8.66171 3.5 9.14754 4.74667H10.8525C11.3384 3.5 12.7134 2.58333 14.125 2.58333C15.9584 2.58333 17.3334 3.95833 17.3334 5.79167C17.3334 8.44083 14.455 11.0533 10.0917 15.0042ZM14.125 0.75C12.53 0.75 10.9992 1.4925 10 2.65667C9.00087 1.4925 7.47004 0.75 5.87504 0.75C3.05171 0.75 0.833374 2.95917 0.833374 5.79167C0.833374 9.2475 3.95004 12.08 8.67087 16.3608L10 17.5708L11.3292 16.3608C16.05 12.08 19.1667 9.2475 19.1667 5.79167C19.1667 2.95917 16.9484 0.75 14.125 0.75Z" fill="#4BA664"/>
</svg>
