<svg width="23" height="17" viewBox="0 0 23 17" fill="none" xmlns="http://www.w3.org/2000/svg">
<path d="M21.4417 7.5052C21.7584 7.94895 21.9167 8.17187 21.9167 8.49999C21.9167 8.82916 21.7584 9.05104 21.4417 9.49479C20.0188 11.4906 16.3844 15.7917 11.5 15.7917C6.61462 15.7917 2.98129 11.4896 1.55837 9.49479C1.24171 9.05104 1.08337 8.82812 1.08337 8.49999C1.08337 8.17083 1.24171 7.94895 1.55837 7.5052C2.98129 5.50937 6.61567 1.20833 11.5 1.20833C16.3855 1.20833 20.0188 5.51041 21.4417 7.5052Z" stroke="#4BA664" stroke-width="1.5" stroke-linecap="round" stroke-linejoin="round"/>
<path d="M14.625 8.5C14.625 7.6712 14.2958 6.87634 13.7097 6.29029C13.1237 5.70424 12.3288 5.375 11.5 5.375C10.6712 5.375 9.87634 5.70424 9.29029 6.29029C8.70424 6.87634 8.375 7.6712 8.375 8.5C8.375 9.3288 8.70424 10.1237 9.29029 10.7097C9.87634 11.2958 10.6712 11.625 11.5 11.625C12.3288 11.625 13.1237 11.2958 13.7097 10.7097C14.2958 10.1237 14.625 9.3288 14.625 8.5Z" stroke="#4BA664" stroke-width="1.5" stroke-linecap="round" stroke-linejoin="round"/>
</svg>
