<svg width="32" height="30" viewBox="0 0 32 30" fill="none" xmlns="http://www.w3.org/2000/svg">
<rect width="32" height="30" rx="4" fill="white"/>
<path d="M12.956 21.4751C13.0628 21.5827 13.1897 21.6681 13.3297 21.7264C13.4696 21.7847 13.6196 21.8147 13.7712 21.8147C13.9228 21.8147 14.0728 21.7847 14.2128 21.7264C14.3527 21.6681 14.4797 21.5827 14.5864 21.4751L20.3271 15.7343C20.4347 15.6276 20.5202 15.5006 20.5784 15.3607C20.6367 15.2208 20.6667 15.0707 20.6667 14.9192C20.6667 14.7676 20.6367 14.6175 20.5784 14.4776C20.5202 14.3377 20.4347 14.2107 20.3271 14.104L14.5864 8.36323C14.4797 8.25561 14.3527 8.1702 14.2128 8.11191C14.0728 8.05362 13.9228 8.02361 13.7712 8.02361C13.6196 8.02361 13.4696 8.05362 13.3297 8.11191C13.1897 8.1702 13.0628 8.25561 12.956 8.36323C12.8484 8.46996 12.763 8.59695 12.7047 8.73686C12.6464 8.87677 12.6164 9.02684 12.6164 9.17841C12.6164 9.32998 12.6464 9.48005 12.7047 9.61996C12.763 9.75988 12.8484 9.88686 12.956 9.9936L17.8931 14.9192L12.956 19.8447C12.8484 19.9514 12.763 20.0784 12.7047 20.2183C12.6464 20.3583 12.6164 20.5083 12.6164 20.6599C12.6164 20.8115 12.6464 20.9615 12.7047 21.1014C12.763 21.2414 12.8484 21.3683 12.956 21.4751Z" fill="#4BA664"/>
</svg>
