<svg width="32" height="30" viewBox="0 0 32 30" fill="none" xmlns="http://www.w3.org/2000/svg">
<rect width="32" height="30" rx="4" fill="white"/>
<path d="M25.1353 14.5H12.2655M7.72284 14.5H5.8645M7.72284 14.5C7.72284 13.8977 7.96208 13.3201 8.38795 12.8943C8.81381 12.4684 9.39141 12.2292 9.99367 12.2292C10.5959 12.2292 11.1735 12.4684 11.5994 12.8943C12.0253 13.3201 12.2645 13.8977 12.2645 14.5C12.2645 15.1023 12.0253 15.6799 11.5994 16.1057C11.1735 16.5316 10.5959 16.7708 9.99367 16.7708C9.39141 16.7708 8.81381 16.5316 8.38795 16.1057C7.96208 15.6799 7.72284 15.1023 7.72284 14.5ZM25.1353 21.3823H19.1478M19.1478 21.3823C19.1478 21.9847 18.908 22.5629 18.4821 22.9889C18.0561 23.4149 17.4784 23.6542 16.876 23.6542C16.2737 23.6542 15.6961 23.4139 15.2702 22.988C14.8444 22.5622 14.6051 21.9846 14.6051 21.3823M19.1478 21.3823C19.1478 20.7799 18.908 20.2027 18.4821 19.7767C18.0561 19.3508 17.4784 19.1115 16.876 19.1115C16.2737 19.1115 15.6961 19.3507 15.2702 19.7766C14.8444 20.2024 14.6051 20.78 14.6051 21.3823M14.6051 21.3823H5.8645M25.1353 7.61771H21.901M17.3583 7.61771H5.8645M17.3583 7.61771C17.3583 7.01545 17.5975 6.43785 18.0234 6.01199C18.4492 5.58612 19.0268 5.34688 19.6291 5.34688C19.9273 5.34688 20.2226 5.40561 20.4981 5.51973C20.7736 5.63385 21.0239 5.80112 21.2348 6.01199C21.4457 6.22285 21.6129 6.47319 21.7271 6.7487C21.8412 7.02421 21.8999 7.3195 21.8999 7.61771C21.8999 7.91592 21.8412 8.21121 21.7271 8.48672C21.6129 8.76223 21.4457 9.01256 21.2348 9.22343C21.0239 9.4343 20.7736 9.60157 20.4981 9.71569C20.2226 9.82981 19.9273 9.88854 19.6291 9.88854C19.0268 9.88854 18.4492 9.64929 18.0234 9.22343C17.5975 8.79757 17.3583 8.21997 17.3583 7.61771Z" stroke="#4BA664" stroke-width="1.5" stroke-miterlimit="10" stroke-linecap="round"/>
</svg>
