<svg width="21" height="21" viewBox="0 0 21 21" fill="none" xmlns="http://www.w3.org/2000/svg">
<path d="M20.1355 10.5H7.26567M2.72296 10.5H0.864624M2.72296 10.5C2.72296 9.89773 2.96221 9.32013 3.38807 8.89427C3.81393 8.4684 4.39153 8.22915 4.99379 8.22915C5.59605 8.22915 6.17365 8.4684 6.59951 8.89427C7.02538 9.32013 7.26462 9.89773 7.26462 10.5C7.26462 11.1023 7.02538 11.6798 6.59951 12.1057C6.17365 12.5316 5.59605 12.7708 4.99379 12.7708C4.39153 12.7708 3.81393 12.5316 3.38807 12.1057C2.96221 11.6798 2.72296 11.1023 2.72296 10.5ZM20.1355 17.3823H14.148M14.148 17.3823C14.148 17.9847 13.9081 18.5629 13.4822 18.9889C13.0562 19.4149 12.4785 19.6542 11.8761 19.6542C11.2738 19.6542 10.6962 19.4139 10.2704 18.988C9.8445 18.5621 9.60525 17.9845 9.60525 17.3823M14.148 17.3823C14.148 16.7799 13.9081 16.2027 13.4822 15.7767C13.0562 15.3507 12.4785 15.1114 11.8761 15.1114C11.2738 15.1114 10.6962 15.3507 10.2704 15.7766C9.8445 16.2024 9.60525 16.78 9.60525 17.3823M9.60525 17.3823H0.864624M20.1355 3.6177H16.9011M12.3584 3.6177H0.864624M12.3584 3.6177C12.3584 3.01543 12.5976 2.43784 13.0235 2.01197C13.4494 1.58611 14.0269 1.34686 14.6292 1.34686C14.9274 1.34686 15.2227 1.4056 15.4982 1.51972C15.7737 1.63384 16.0241 1.80111 16.2349 2.01197C16.4458 2.22284 16.6131 2.47318 16.7272 2.74869C16.8413 3.0242 16.9 3.31949 16.9 3.6177C16.9 3.91591 16.8413 4.2112 16.7272 4.48671C16.6131 4.76222 16.4458 5.01255 16.2349 5.22342C16.0241 5.43428 15.7737 5.60155 15.4982 5.71567C15.2227 5.82979 14.9274 5.88853 14.6292 5.88853C14.0269 5.88853 13.4494 5.64928 13.0235 5.22342C12.5976 4.79755 12.3584 4.21996 12.3584 3.6177Z" stroke="white" stroke-width="1.5" stroke-miterlimit="10" stroke-linecap="round"/>
</svg>
